%TF.GenerationSoftware,KiCad,Pcbnew,10.0.1*%
%TF.CreationDate,2026-04-22T22:05:53-07:00*%
%TF.ProjectId,TamagotchiOfSin,54616d61-676f-4746-9368-694f6653696e,rev?*%
%TF.SameCoordinates,Original*%
%TF.FileFunction,Soldermask,Top*%
%TF.FilePolarity,Negative*%
%FSLAX46Y46*%
G04 Gerber Fmt 4.6, Leading zero omitted, Abs format (unit mm)*
G04 Created by KiCad (PCBNEW 10.0.1) date 2026-04-22 22:05:53*
%MOMM*%
%LPD*%
G01*
G04 APERTURE LIST*
G04 Aperture macros list*
%AMRoundRect*
0 Rectangle with rounded corners*
0 $1 Rounding radius*
0 $2 $3 $4 $5 $6 $7 $8 $9 X,Y pos of 4 corners*
0 Add a 4 corners polygon primitive as box body*
4,1,4,$2,$3,$4,$5,$6,$7,$8,$9,$2,$3,0*
0 Add four circle primitives for the rounded corners*
1,1,$1+$1,$2,$3*
1,1,$1+$1,$4,$5*
1,1,$1+$1,$6,$7*
1,1,$1+$1,$8,$9*
0 Add four rect primitives between the rounded corners*
20,1,$1+$1,$2,$3,$4,$5,0*
20,1,$1+$1,$4,$5,$6,$7,0*
20,1,$1+$1,$6,$7,$8,$9,0*
20,1,$1+$1,$8,$9,$2,$3,0*%
G04 Aperture macros list end*
%ADD10C,1.400000*%
%ADD11R,0.540000X0.500000*%
%ADD12RoundRect,0.102000X-0.654000X-0.654000X0.654000X-0.654000X0.654000X0.654000X-0.654000X0.654000X0*%
%ADD13C,1.512000*%
%ADD14C,2.030000*%
%ADD15C,1.800000*%
%ADD16C,1.600000*%
%ADD17RoundRect,0.152400X-1.063600X-0.609600X1.063600X-0.609600X1.063600X0.609600X-1.063600X0.609600X0*%
%ADD18C,1.524000*%
%ADD19RoundRect,0.152400X1.063600X0.609600X-1.063600X0.609600X-1.063600X-0.609600X1.063600X-0.609600X0*%
%ADD20RoundRect,0.275000X-0.975000X-0.275000X0.975000X-0.275000X0.975000X0.275000X-0.975000X0.275000X0*%
%ADD21C,1.700000*%
%ADD22C,3.200000*%
%ADD23O,2.750000X3.000000*%
%ADD24R,1.700000X1.700000*%
%ADD25R,2.500000X2.500000*%
%ADD26C,2.500000*%
G04 APERTURE END LIST*
D10*
%TO.C,R3*%
X96520000Y-98255000D03*
X96520000Y-108755000D03*
%TD*%
D11*
%TO.C,C3*%
X98425000Y-109435000D03*
X98425000Y-110275000D03*
%TD*%
D12*
%TO.C,U3*%
X74168000Y-85725000D03*
D13*
X74168000Y-88265000D03*
X74168000Y-90805000D03*
X74168000Y-93345000D03*
X74168000Y-95885000D03*
X74168000Y-98425000D03*
X74168000Y-100965000D03*
X74168000Y-103505000D03*
X92202000Y-103505000D03*
X92202000Y-100965000D03*
X92202000Y-98425000D03*
X92202000Y-95885000D03*
X92202000Y-93345000D03*
X92202000Y-90805000D03*
X92202000Y-88265000D03*
X92202000Y-85725000D03*
%TD*%
D14*
%TO.C,U2*%
X97985000Y-58420000D03*
X97985000Y-82220000D03*
X121285000Y-58420000D03*
X121285000Y-82220000D03*
D15*
X105825000Y-57860000D03*
X108365000Y-57860000D03*
X110905000Y-57860000D03*
X113445000Y-57860000D03*
%TD*%
D11*
%TO.C,C2*%
X71120000Y-85940000D03*
X71120000Y-86780000D03*
%TD*%
D16*
%TO.C,SW3*%
X129045000Y-88035000D03*
X133845000Y-88035000D03*
X129045000Y-91035000D03*
X133845000Y-91035000D03*
%TD*%
D17*
%TO.C,U4*%
X118310000Y-110104000D03*
D18*
X117475000Y-110104000D03*
D17*
X118310000Y-107564000D03*
D18*
X117475000Y-107564000D03*
D17*
X118310000Y-105024000D03*
D18*
X117475000Y-105024000D03*
D17*
X118310000Y-102484000D03*
D18*
X117475000Y-102484000D03*
D17*
X118310000Y-99944000D03*
D18*
X117475000Y-99944000D03*
D17*
X118310000Y-97404000D03*
D18*
X117475000Y-97404000D03*
D17*
X118310000Y-94864000D03*
D18*
X117475000Y-94864000D03*
X102235000Y-94864000D03*
D19*
X101400000Y-94864000D03*
D18*
X102235000Y-97404000D03*
D19*
X101400000Y-97404000D03*
D18*
X102235000Y-99944000D03*
D19*
X101400000Y-99944000D03*
D18*
X102235000Y-102484000D03*
D19*
X101400000Y-102484000D03*
D18*
X102235000Y-105024000D03*
D19*
X101400000Y-105024000D03*
D18*
X102235000Y-107564000D03*
D19*
X101400000Y-107564000D03*
D18*
X102235000Y-110104000D03*
D19*
X101400000Y-110104000D03*
D20*
X114300000Y-102870000D03*
X114300000Y-104775000D03*
D21*
X111125000Y-111120000D03*
X108585000Y-111120000D03*
X111125000Y-108580000D03*
X108585000Y-108580000D03*
X111125000Y-106040000D03*
X108585000Y-106040000D03*
%TD*%
D22*
%TO.C,REF\u002A\u002A*%
X69850000Y-107315000D03*
%TD*%
D16*
%TO.C,SW1*%
X129045000Y-71525000D03*
X133845000Y-71525000D03*
X129045000Y-74525000D03*
X133845000Y-74525000D03*
%TD*%
D22*
%TO.C,REF\u002A\u002A*%
X146685000Y-57785000D03*
%TD*%
D16*
%TO.C,SW2*%
X142380000Y-71525000D03*
X147180000Y-71525000D03*
X142380000Y-74525000D03*
X147180000Y-74525000D03*
%TD*%
D10*
%TO.C,R1*%
X77470000Y-107950000D03*
X87670000Y-107950000D03*
%TD*%
D21*
%TO.C,RV1*%
X142280000Y-92907500D03*
X144780000Y-92907500D03*
X147280000Y-92907500D03*
D23*
X140380000Y-85907500D03*
X149180000Y-85907500D03*
%TD*%
D10*
%TO.C,R2*%
X96520000Y-85705000D03*
X96520000Y-95905000D03*
%TD*%
D24*
%TO.C,BT1*%
X139065000Y-60960000D03*
D21*
X136525000Y-60960000D03*
%TD*%
D25*
%TO.C,SPK1*%
X77630000Y-69215000D03*
D26*
X87630000Y-69215000D03*
%TD*%
M02*
