M48
; DRILL file KiCad 10.0.1 date 2026-04-26T22:08:47
; FORMAT={-:-/ absolute / metric / decimal}
; #@! TF.CreationDate,2026-04-26T22:08:47-07:00
; #@! TF.GenerationSoftware,Kicad,Pcbnew,10.0.1
; #@! TF.FileFunction,Plated,1,2,PTH
FMAT,2
METRIC
; #@! TA.AperFunction,Plated,PTH,ViaDrill
T1C0.300
; #@! TA.AperFunction,Plated,PTH,ComponentDrill
T2C0.610
; #@! TA.AperFunction,Plated,PTH,ComponentDrill
T3C0.889
; #@! TA.AperFunction,Plated,PTH,ComponentDrill
T4C1.000
; #@! TA.AperFunction,Plated,PTH,ComponentDrill
T5C1.000
; #@! TA.AperFunction,Plated,PTH,ComponentDrill
T6C1.400
; #@! TA.AperFunction,Plated,PTH,ComponentDrill
T7C3.600
%
G90
G05
T1
X81.382Y-40.411
X81.382Y-42.951
X81.382Y-45.491
X81.382Y-48.031
X81.382Y-50.571
X81.382Y-53.111
X81.382Y-55.651
X81.382Y-58.191
X81.382Y-60.731
X81.382Y-63.271
X81.382Y-73.431
X81.382Y-75.971
X81.382Y-78.511
X81.382Y-81.051
X81.382Y-83.591
X81.382Y-86.131
X81.382Y-88.671
X81.382Y-91.211
X81.382Y-93.751
X81.382Y-96.291
X81.382Y-98.831
X81.382Y-101.371
X81.382Y-103.911
X81.382Y-106.451
X81.382Y-108.991
X83.922Y-37.871
X83.922Y-40.411
X83.922Y-42.951
X83.922Y-45.491
X83.922Y-48.031
X83.922Y-50.571
X83.922Y-53.111
X83.922Y-55.651
X83.922Y-58.191
X83.922Y-60.731
X83.922Y-63.271
X83.922Y-73.431
X83.922Y-75.971
X83.922Y-78.511
X83.922Y-81.051
X83.922Y-83.591
X83.922Y-86.131
X83.922Y-88.671
X83.922Y-91.211
X83.922Y-93.751
X83.922Y-96.291
X83.922Y-98.831
X83.922Y-101.371
X83.922Y-103.911
X83.922Y-106.451
X83.922Y-108.991
X83.922Y-111.531
X86.462Y-35.331
X86.462Y-37.871
X86.462Y-40.411
X86.462Y-42.951
X86.462Y-45.491
X86.462Y-48.031
X86.462Y-50.571
X86.462Y-53.111
X86.462Y-55.651
X86.462Y-58.191
X86.462Y-60.731
X86.462Y-63.271
X86.462Y-73.431
X86.462Y-75.971
X86.462Y-78.511
X86.462Y-81.051
X86.462Y-83.591
X86.462Y-86.131
X86.462Y-88.671
X86.462Y-91.211
X86.462Y-93.751
X86.462Y-96.291
X86.462Y-98.831
X86.462Y-101.371
X86.462Y-103.911
X86.462Y-106.451
X86.462Y-108.991
X86.462Y-111.531
X86.462Y-114.071
X89.002Y-32.791
X89.002Y-35.331
X89.002Y-37.871
X89.002Y-40.411
X89.002Y-42.951
X89.002Y-45.491
X89.002Y-48.031
X89.002Y-50.571
X89.002Y-53.111
X89.002Y-55.651
X89.002Y-58.191
X89.002Y-60.731
X89.002Y-63.271
X89.002Y-65.811
X89.002Y-68.351
X89.002Y-70.891
X89.002Y-73.431
X89.002Y-75.971
X89.002Y-98.831
X89.002Y-101.371
X89.002Y-103.911
X89.002Y-106.451
X89.002Y-108.991
X89.002Y-111.531
X89.002Y-114.071
X89.002Y-116.611
X91.542Y-32.791
X91.542Y-42.951
X91.542Y-45.491
X91.542Y-48.031
X91.542Y-50.571
X91.542Y-53.111
X91.542Y-55.651
X91.542Y-58.191
X91.542Y-60.731
X91.542Y-63.271
X91.542Y-65.811
X91.542Y-68.351
X91.542Y-70.891
X91.542Y-73.431
X91.542Y-75.971
X91.542Y-78.511
X91.542Y-81.051
X91.542Y-83.591
X91.542Y-86.131
X91.542Y-88.671
X91.542Y-91.211
X91.542Y-98.831
X91.542Y-106.451
X91.542Y-108.991
X91.542Y-111.531
X91.542Y-114.071
X91.542Y-116.611
X94.082Y-32.791
X94.082Y-42.951
X94.082Y-45.491
X94.082Y-48.031
X94.082Y-50.571
X94.082Y-53.111
X94.082Y-55.651
X94.082Y-58.191
X94.082Y-60.731
X94.082Y-63.271
X94.082Y-65.811
X94.082Y-68.351
X94.082Y-70.891
X94.082Y-73.431
X94.082Y-75.971
X94.082Y-78.511
X94.082Y-81.051
X94.082Y-83.591
X94.082Y-86.131
X94.082Y-88.671
X94.082Y-91.211
X94.082Y-98.831
X94.082Y-106.451
X94.082Y-108.991
X94.082Y-111.531
X94.082Y-114.071
X94.082Y-116.611
X96.622Y-32.791
X96.622Y-40.411
X96.622Y-42.951
X96.622Y-45.491
X96.622Y-48.031
X96.622Y-50.571
X96.622Y-53.111
X96.622Y-55.651
X96.622Y-58.191
X96.622Y-60.731
X96.622Y-63.271
X96.622Y-65.811
X96.622Y-68.351
X96.622Y-70.891
X96.622Y-73.431
X96.622Y-75.971
X96.622Y-78.511
X96.622Y-81.051
X96.622Y-83.591
X96.622Y-86.131
X96.622Y-88.671
X96.622Y-91.211
X96.622Y-116.611
X99.162Y-32.791
X99.162Y-40.411
X99.162Y-42.951
X99.162Y-45.491
X99.162Y-48.031
X99.162Y-50.571
X99.162Y-53.111
X99.162Y-55.651
X99.162Y-58.191
X99.162Y-60.731
X99.162Y-63.271
X99.162Y-65.811
X99.162Y-68.351
X99.162Y-70.891
X99.162Y-73.431
X99.162Y-75.971
X99.162Y-78.511
X99.162Y-81.051
X99.162Y-83.591
X99.162Y-86.131
X99.162Y-88.671
X99.162Y-91.211
X101.702Y-32.791
X101.702Y-40.411
X101.702Y-42.951
X101.702Y-45.491
X101.702Y-48.031
X101.702Y-50.571
X101.702Y-53.111
X101.702Y-55.651
X101.702Y-58.191
X101.702Y-60.731
X101.702Y-63.271
X101.702Y-65.811
X101.702Y-68.351
X101.702Y-70.891
X101.702Y-73.431
X101.702Y-75.971
X101.702Y-78.511
X101.702Y-81.051
X101.702Y-83.591
X101.702Y-86.131
X101.702Y-88.671
X101.702Y-91.211
X101.702Y-116.611
X104.242Y-40.411
X104.242Y-42.951
X104.242Y-45.491
X104.242Y-48.031
X104.242Y-50.571
X104.242Y-53.111
X104.242Y-55.651
X104.242Y-58.191
X104.242Y-60.731
X104.242Y-63.271
X104.242Y-70.891
X104.242Y-73.431
X104.242Y-75.971
X104.242Y-78.511
X104.242Y-81.051
X104.242Y-83.591
X104.242Y-86.131
X104.242Y-88.671
X104.242Y-91.211
X106.782Y-40.411
X106.782Y-42.951
X106.782Y-45.491
X106.782Y-48.031
X106.782Y-50.571
X106.782Y-53.111
X106.782Y-55.651
X106.782Y-58.191
X106.782Y-60.731
X106.782Y-63.271
X106.782Y-73.431
X106.782Y-81.051
X106.782Y-83.591
X106.782Y-86.131
X106.782Y-88.671
X106.782Y-106.451
X106.782Y-108.991
X109.322Y-40.411
X109.322Y-42.951
X109.322Y-45.491
X109.322Y-48.031
X109.322Y-50.571
X109.322Y-53.111
X109.322Y-55.651
X109.322Y-58.191
X109.322Y-60.731
X109.322Y-63.271
X109.322Y-70.891
X109.322Y-106.451
X109.322Y-108.991
X111.862Y-40.411
X111.862Y-42.951
X111.862Y-45.491
X111.862Y-48.031
X111.862Y-50.571
X111.862Y-53.111
X111.862Y-55.651
X111.862Y-58.191
X111.862Y-60.731
X111.862Y-63.271
X111.862Y-70.891
X111.862Y-73.431
X111.862Y-75.971
X111.862Y-78.511
X111.862Y-81.051
X111.862Y-83.591
X111.862Y-86.131
X111.862Y-88.671
X111.862Y-91.211
X111.862Y-101.371
X111.862Y-103.911
X111.862Y-106.451
X111.862Y-108.991
X111.862Y-111.531
X111.862Y-114.071
X111.862Y-116.611
X114.402Y-32.791
X114.402Y-40.411
X114.402Y-42.951
X114.402Y-45.491
X114.402Y-48.031
X114.402Y-50.571
X114.402Y-53.111
X114.402Y-55.651
X114.402Y-58.191
X114.402Y-60.731
X114.402Y-63.271
X114.402Y-70.891
X114.402Y-73.431
X114.402Y-75.971
X114.402Y-78.511
X114.402Y-81.051
X114.402Y-83.591
X114.402Y-86.131
X114.402Y-88.671
X114.402Y-91.211
X116.942Y-32.791
X116.942Y-40.411
X116.942Y-42.951
X116.942Y-45.491
X116.942Y-48.031
X116.942Y-50.571
X116.942Y-53.111
X116.942Y-55.651
X116.942Y-58.191
X116.942Y-60.731
X116.942Y-63.271
X116.942Y-70.891
X116.942Y-73.431
X116.942Y-75.971
X116.942Y-78.511
X116.942Y-81.051
X116.942Y-83.591
X116.942Y-86.131
X116.942Y-88.671
X116.942Y-91.211
X119.482Y-32.791
X119.482Y-42.951
X119.482Y-45.491
X119.482Y-48.031
X119.482Y-50.571
X119.482Y-53.111
X119.482Y-55.651
X119.482Y-58.191
X119.482Y-60.731
X119.482Y-63.271
X119.482Y-70.891
X119.482Y-73.431
X119.482Y-75.971
X119.482Y-78.511
X119.482Y-81.051
X119.482Y-83.591
X119.482Y-86.131
X119.482Y-88.671
X119.482Y-91.211
X119.482Y-108.991
X119.482Y-111.531
X119.482Y-114.071
X119.482Y-116.611
X122.022Y-32.791
X122.022Y-42.951
X122.022Y-45.491
X122.022Y-48.031
X122.022Y-50.571
X122.022Y-53.111
X122.022Y-55.651
X122.022Y-58.191
X122.022Y-60.731
X122.022Y-63.271
X122.022Y-73.431
X122.022Y-75.971
X122.022Y-78.511
X122.022Y-81.051
X122.022Y-83.591
X122.022Y-86.131
X122.022Y-88.671
X122.022Y-91.211
X122.022Y-108.991
X122.022Y-111.531
X122.022Y-114.071
X122.022Y-116.611
X124.562Y-32.791
X124.562Y-42.951
X124.562Y-45.491
X124.562Y-48.031
X124.562Y-50.571
X124.562Y-53.111
X124.562Y-55.651
X124.562Y-58.191
X124.562Y-60.731
X124.562Y-63.271
X124.562Y-65.811
X124.562Y-75.971
X124.562Y-78.511
X124.562Y-81.051
X124.562Y-83.591
X124.562Y-86.131
X124.562Y-88.671
X124.562Y-91.211
X124.562Y-108.991
X124.562Y-111.531
X124.562Y-114.071
X124.562Y-116.611
X127.102Y-35.331
X127.102Y-37.871
X127.102Y-40.411
X127.102Y-42.951
X127.102Y-45.491
X127.102Y-48.031
X127.102Y-50.571
X127.102Y-53.111
X127.102Y-55.651
X127.102Y-58.191
X127.102Y-60.731
X127.102Y-63.271
X127.102Y-108.991
X127.102Y-111.531
X127.102Y-114.071
X129.642Y-37.871
X129.642Y-40.411
X129.642Y-42.951
X129.642Y-45.491
X129.642Y-48.031
X129.642Y-50.571
X129.642Y-53.111
X129.642Y-55.651
X129.642Y-58.191
X129.642Y-60.731
X129.642Y-63.271
X129.642Y-73.431
X129.642Y-75.971
X129.642Y-78.511
X129.642Y-81.051
X129.642Y-83.591
X129.642Y-86.131
X129.642Y-88.671
X129.642Y-91.211
X129.642Y-93.751
X129.642Y-96.291
X129.642Y-98.831
X129.642Y-101.371
X129.642Y-103.911
X129.642Y-106.451
X129.642Y-108.991
X129.642Y-111.531
X132.182Y-40.411
X132.182Y-42.951
X132.182Y-45.491
X132.182Y-48.031
X132.182Y-50.571
X132.182Y-53.111
X132.182Y-55.651
X132.182Y-58.191
X132.182Y-60.731
X132.182Y-63.271
X132.182Y-73.431
X132.182Y-75.971
X132.182Y-78.511
X132.182Y-81.051
X132.182Y-83.591
X132.182Y-86.131
X132.182Y-88.671
X132.182Y-91.211
X132.182Y-93.751
X132.182Y-96.291
X132.182Y-98.831
X132.182Y-101.371
X132.182Y-103.911
X132.182Y-106.451
X132.182Y-108.991
T2
X106.61Y-77.445
X107.87Y-77.445
T3
X99.695Y-100.965
X99.695Y-103.505
X99.695Y-106.045
X99.695Y-108.585
X99.695Y-111.125
X99.695Y-113.665
X99.695Y-116.205
X102.87Y-108.971
X102.87Y-110.876
X114.935Y-100.965
X114.935Y-103.505
X114.935Y-106.045
X114.935Y-108.585
X114.935Y-111.125
X114.935Y-113.665
X114.935Y-116.205
T4
X91.58Y-100.894
X91.58Y-103.894
X95.695Y-36.63
X95.695Y-95.83
X96.38Y-100.894
X96.38Y-103.894
X98.235Y-36.63
X98.235Y-95.83
X100.775Y-36.63
X100.775Y-95.83
X103.315Y-36.63
X103.315Y-95.83
X104.775Y-100.894
X104.775Y-103.894
X105.855Y-36.63
X105.855Y-95.83
X108.395Y-36.63
X108.395Y-95.83
X109.575Y-100.894
X109.575Y-103.894
X110.935Y-36.63
X110.935Y-95.83
X113.475Y-36.63
X113.475Y-95.83
X116.015Y-36.63
X116.015Y-95.83
X118.25Y-100.894
X118.25Y-103.894
X118.555Y-36.63
X118.555Y-95.83
X123.05Y-100.894
X123.05Y-103.894
T5
X106.8Y-32.73
X109.34Y-32.73
T6
X103.99Y-67.31
X110.49Y-67.31
T7
X92.125Y-37.63
X92.125Y-94.83
X122.125Y-37.63
X122.125Y-94.83
M30
