%TF.GenerationSoftware,KiCad,Pcbnew,10.0.1*%
%TF.CreationDate,2026-04-22T22:05:53-07:00*%
%TF.ProjectId,TamagotchiOfSin,54616d61-676f-4746-9368-694f6653696e,rev?*%
%TF.SameCoordinates,Original*%
%TF.FileFunction,Copper,L1,Top*%
%TF.FilePolarity,Positive*%
%FSLAX46Y46*%
G04 Gerber Fmt 4.6, Leading zero omitted, Abs format (unit mm)*
G04 Created by KiCad (PCBNEW 10.0.1) date 2026-04-22 22:05:53*
%MOMM*%
%LPD*%
G01*
G04 APERTURE LIST*
G04 Aperture macros list*
%AMRoundRect*
0 Rectangle with rounded corners*
0 $1 Rounding radius*
0 $2 $3 $4 $5 $6 $7 $8 $9 X,Y pos of 4 corners*
0 Add a 4 corners polygon primitive as box body*
4,1,4,$2,$3,$4,$5,$6,$7,$8,$9,$2,$3,0*
0 Add four circle primitives for the rounded corners*
1,1,$1+$1,$2,$3*
1,1,$1+$1,$4,$5*
1,1,$1+$1,$6,$7*
1,1,$1+$1,$8,$9*
0 Add four rect primitives between the rounded corners*
20,1,$1+$1,$2,$3,$4,$5,0*
20,1,$1+$1,$4,$5,$6,$7,0*
20,1,$1+$1,$6,$7,$8,$9,0*
20,1,$1+$1,$8,$9,$2,$3,0*%
G04 Aperture macros list end*
%ADD10C,0.300000*%
%TA.AperFunction,NonConductor*%
%ADD11C,0.300000*%
%TD*%
%TA.AperFunction,NonConductor*%
%ADD12C,0.200000*%
%TD*%
%TA.AperFunction,ComponentPad*%
%ADD13C,1.400000*%
%TD*%
%TA.AperFunction,SMDPad,CuDef*%
%ADD14R,0.540000X0.500000*%
%TD*%
%TA.AperFunction,ComponentPad*%
%ADD15R,1.308000X1.308000*%
%TD*%
%TA.AperFunction,ComponentPad*%
%ADD16C,1.308000*%
%TD*%
%TA.AperFunction,ComponentPad*%
%ADD17C,2.030000*%
%TD*%
%TA.AperFunction,ComponentPad*%
%ADD18C,1.800000*%
%TD*%
%TA.AperFunction,ComponentPad*%
%ADD19C,1.600000*%
%TD*%
%TA.AperFunction,SMDPad,CuDef*%
%ADD20RoundRect,0.152400X-1.063600X-0.609600X1.063600X-0.609600X1.063600X0.609600X-1.063600X0.609600X0*%
%TD*%
%TA.AperFunction,ComponentPad*%
%ADD21C,1.524000*%
%TD*%
%TA.AperFunction,SMDPad,CuDef*%
%ADD22RoundRect,0.152400X1.063600X0.609600X-1.063600X0.609600X-1.063600X-0.609600X1.063600X-0.609600X0*%
%TD*%
%TA.AperFunction,ComponentPad*%
%ADD23RoundRect,0.275000X-0.975000X-0.275000X0.975000X-0.275000X0.975000X0.275000X-0.975000X0.275000X0*%
%TD*%
%TA.AperFunction,SMDPad,CuDef*%
%ADD24C,1.700000*%
%TD*%
%TA.AperFunction,ComponentPad*%
%ADD25C,1.700000*%
%TD*%
%TA.AperFunction,ComponentPad*%
%ADD26O,2.750000X3.000000*%
%TD*%
%TA.AperFunction,ComponentPad*%
%ADD27R,1.700000X1.700000*%
%TD*%
%TA.AperFunction,ComponentPad*%
%ADD28R,2.500000X2.500000*%
%TD*%
%TA.AperFunction,ComponentPad*%
%ADD29C,2.500000*%
%TD*%
%TA.AperFunction,ViaPad*%
%ADD30C,0.600000*%
%TD*%
%TA.AperFunction,Conductor*%
%ADD31C,0.200000*%
%TD*%
%TA.AperFunction,Conductor*%
%ADD32C,0.500000*%
%TD*%
G04 APERTURE END LIST*
D10*
D11*
X55163328Y-85079285D02*
X55163328Y-85364999D01*
X55163328Y-85364999D02*
X55234757Y-85507856D01*
X55234757Y-85507856D02*
X55306185Y-85579285D01*
X55306185Y-85579285D02*
X55520471Y-85722142D01*
X55520471Y-85722142D02*
X55806185Y-85793570D01*
X55806185Y-85793570D02*
X56377614Y-85793570D01*
X56377614Y-85793570D02*
X56520471Y-85722142D01*
X56520471Y-85722142D02*
X56591900Y-85650713D01*
X56591900Y-85650713D02*
X56663328Y-85507856D01*
X56663328Y-85507856D02*
X56663328Y-85222142D01*
X56663328Y-85222142D02*
X56591900Y-85079285D01*
X56591900Y-85079285D02*
X56520471Y-85007856D01*
X56520471Y-85007856D02*
X56377614Y-84936427D01*
X56377614Y-84936427D02*
X56020471Y-84936427D01*
X56020471Y-84936427D02*
X55877614Y-85007856D01*
X55877614Y-85007856D02*
X55806185Y-85079285D01*
X55806185Y-85079285D02*
X55734757Y-85222142D01*
X55734757Y-85222142D02*
X55734757Y-85507856D01*
X55734757Y-85507856D02*
X55806185Y-85650713D01*
X55806185Y-85650713D02*
X55877614Y-85722142D01*
X55877614Y-85722142D02*
X56020471Y-85793570D01*
X55163328Y-84007856D02*
X55163328Y-83864999D01*
X55163328Y-83864999D02*
X55234757Y-83722142D01*
X55234757Y-83722142D02*
X55306185Y-83650714D01*
X55306185Y-83650714D02*
X55449042Y-83579285D01*
X55449042Y-83579285D02*
X55734757Y-83507856D01*
X55734757Y-83507856D02*
X56091900Y-83507856D01*
X56091900Y-83507856D02*
X56377614Y-83579285D01*
X56377614Y-83579285D02*
X56520471Y-83650714D01*
X56520471Y-83650714D02*
X56591900Y-83722142D01*
X56591900Y-83722142D02*
X56663328Y-83864999D01*
X56663328Y-83864999D02*
X56663328Y-84007856D01*
X56663328Y-84007856D02*
X56591900Y-84150714D01*
X56591900Y-84150714D02*
X56520471Y-84222142D01*
X56520471Y-84222142D02*
X56377614Y-84293571D01*
X56377614Y-84293571D02*
X56091900Y-84364999D01*
X56091900Y-84364999D02*
X55734757Y-84364999D01*
X55734757Y-84364999D02*
X55449042Y-84293571D01*
X55449042Y-84293571D02*
X55306185Y-84222142D01*
X55306185Y-84222142D02*
X55234757Y-84150714D01*
X55234757Y-84150714D02*
X55163328Y-84007856D01*
X56520471Y-82865000D02*
X56591900Y-82793571D01*
X56591900Y-82793571D02*
X56663328Y-82865000D01*
X56663328Y-82865000D02*
X56591900Y-82936428D01*
X56591900Y-82936428D02*
X56520471Y-82865000D01*
X56520471Y-82865000D02*
X56663328Y-82865000D01*
X55163328Y-82293571D02*
X55163328Y-81364999D01*
X55163328Y-81364999D02*
X55734757Y-81864999D01*
X55734757Y-81864999D02*
X55734757Y-81650714D01*
X55734757Y-81650714D02*
X55806185Y-81507857D01*
X55806185Y-81507857D02*
X55877614Y-81436428D01*
X55877614Y-81436428D02*
X56020471Y-81364999D01*
X56020471Y-81364999D02*
X56377614Y-81364999D01*
X56377614Y-81364999D02*
X56520471Y-81436428D01*
X56520471Y-81436428D02*
X56591900Y-81507857D01*
X56591900Y-81507857D02*
X56663328Y-81650714D01*
X56663328Y-81650714D02*
X56663328Y-82079285D01*
X56663328Y-82079285D02*
X56591900Y-82222142D01*
X56591900Y-82222142D02*
X56520471Y-82293571D01*
X55306185Y-80793571D02*
X55234757Y-80722143D01*
X55234757Y-80722143D02*
X55163328Y-80579286D01*
X55163328Y-80579286D02*
X55163328Y-80222143D01*
X55163328Y-80222143D02*
X55234757Y-80079286D01*
X55234757Y-80079286D02*
X55306185Y-80007857D01*
X55306185Y-80007857D02*
X55449042Y-79936428D01*
X55449042Y-79936428D02*
X55591900Y-79936428D01*
X55591900Y-79936428D02*
X55806185Y-80007857D01*
X55806185Y-80007857D02*
X56663328Y-80865000D01*
X56663328Y-80865000D02*
X56663328Y-79936428D01*
D12*
X76970000Y-52705000D02*
X57198580Y-52705000D01*
X57198580Y-113025000D02*
X94115000Y-113025000D01*
X57785000Y-52705000D02*
X57785000Y-113025000D01*
X57785000Y-52705000D02*
X58371421Y-53831504D01*
X57785000Y-52705000D02*
X57198579Y-53831504D01*
X57785000Y-113025000D02*
X57198579Y-111898496D01*
X57785000Y-113025000D02*
X58371421Y-111898496D01*
D10*
D11*
X105942143Y-39296185D02*
X105799286Y-39224757D01*
X105799286Y-39224757D02*
X105727857Y-39153328D01*
X105727857Y-39153328D02*
X105656429Y-39010471D01*
X105656429Y-39010471D02*
X105656429Y-38939042D01*
X105656429Y-38939042D02*
X105727857Y-38796185D01*
X105727857Y-38796185D02*
X105799286Y-38724757D01*
X105799286Y-38724757D02*
X105942143Y-38653328D01*
X105942143Y-38653328D02*
X106227857Y-38653328D01*
X106227857Y-38653328D02*
X106370715Y-38724757D01*
X106370715Y-38724757D02*
X106442143Y-38796185D01*
X106442143Y-38796185D02*
X106513572Y-38939042D01*
X106513572Y-38939042D02*
X106513572Y-39010471D01*
X106513572Y-39010471D02*
X106442143Y-39153328D01*
X106442143Y-39153328D02*
X106370715Y-39224757D01*
X106370715Y-39224757D02*
X106227857Y-39296185D01*
X106227857Y-39296185D02*
X105942143Y-39296185D01*
X105942143Y-39296185D02*
X105799286Y-39367614D01*
X105799286Y-39367614D02*
X105727857Y-39439042D01*
X105727857Y-39439042D02*
X105656429Y-39581900D01*
X105656429Y-39581900D02*
X105656429Y-39867614D01*
X105656429Y-39867614D02*
X105727857Y-40010471D01*
X105727857Y-40010471D02*
X105799286Y-40081900D01*
X105799286Y-40081900D02*
X105942143Y-40153328D01*
X105942143Y-40153328D02*
X106227857Y-40153328D01*
X106227857Y-40153328D02*
X106370715Y-40081900D01*
X106370715Y-40081900D02*
X106442143Y-40010471D01*
X106442143Y-40010471D02*
X106513572Y-39867614D01*
X106513572Y-39867614D02*
X106513572Y-39581900D01*
X106513572Y-39581900D02*
X106442143Y-39439042D01*
X106442143Y-39439042D02*
X106370715Y-39367614D01*
X106370715Y-39367614D02*
X106227857Y-39296185D01*
X107013571Y-38653328D02*
X108013571Y-38653328D01*
X108013571Y-38653328D02*
X107370714Y-40153328D01*
X108584999Y-40010471D02*
X108656428Y-40081900D01*
X108656428Y-40081900D02*
X108584999Y-40153328D01*
X108584999Y-40153328D02*
X108513571Y-40081900D01*
X108513571Y-40081900D02*
X108584999Y-40010471D01*
X108584999Y-40010471D02*
X108584999Y-40153328D01*
X109942143Y-38653328D02*
X109656428Y-38653328D01*
X109656428Y-38653328D02*
X109513571Y-38724757D01*
X109513571Y-38724757D02*
X109442143Y-38796185D01*
X109442143Y-38796185D02*
X109299285Y-39010471D01*
X109299285Y-39010471D02*
X109227857Y-39296185D01*
X109227857Y-39296185D02*
X109227857Y-39867614D01*
X109227857Y-39867614D02*
X109299285Y-40010471D01*
X109299285Y-40010471D02*
X109370714Y-40081900D01*
X109370714Y-40081900D02*
X109513571Y-40153328D01*
X109513571Y-40153328D02*
X109799285Y-40153328D01*
X109799285Y-40153328D02*
X109942143Y-40081900D01*
X109942143Y-40081900D02*
X110013571Y-40010471D01*
X110013571Y-40010471D02*
X110085000Y-39867614D01*
X110085000Y-39867614D02*
X110085000Y-39510471D01*
X110085000Y-39510471D02*
X110013571Y-39367614D01*
X110013571Y-39367614D02*
X109942143Y-39296185D01*
X109942143Y-39296185D02*
X109799285Y-39224757D01*
X109799285Y-39224757D02*
X109513571Y-39224757D01*
X109513571Y-39224757D02*
X109370714Y-39296185D01*
X109370714Y-39296185D02*
X109299285Y-39367614D01*
X109299285Y-39367614D02*
X109227857Y-39510471D01*
X110584999Y-38653328D02*
X111513571Y-38653328D01*
X111513571Y-38653328D02*
X111013571Y-39224757D01*
X111013571Y-39224757D02*
X111227856Y-39224757D01*
X111227856Y-39224757D02*
X111370714Y-39296185D01*
X111370714Y-39296185D02*
X111442142Y-39367614D01*
X111442142Y-39367614D02*
X111513571Y-39510471D01*
X111513571Y-39510471D02*
X111513571Y-39867614D01*
X111513571Y-39867614D02*
X111442142Y-40010471D01*
X111442142Y-40010471D02*
X111370714Y-40081900D01*
X111370714Y-40081900D02*
X111227856Y-40153328D01*
X111227856Y-40153328D02*
X110799285Y-40153328D01*
X110799285Y-40153328D02*
X110656428Y-40081900D01*
X110656428Y-40081900D02*
X110584999Y-40010471D01*
D12*
X64770000Y-68715000D02*
X64770000Y-40688580D01*
X152400000Y-40688580D02*
X152400000Y-70275000D01*
X64770000Y-41275000D02*
X152400000Y-41275000D01*
X64770000Y-41275000D02*
X65896504Y-40688579D01*
X64770000Y-41275000D02*
X65896504Y-41861421D01*
X152400000Y-41275000D02*
X151273496Y-41861421D01*
X152400000Y-41275000D02*
X151273496Y-40688579D01*
D13*
%TO.P,R3,1*%
%TO.N,Net-(U4-GPIO20_D7_RX)*%
X96520000Y-98255000D03*
%TO.P,R3,2*%
%TO.N,GND*%
X96520000Y-108755000D03*
%TD*%
D14*
%TO.P,C3,1*%
%TO.N,GND*%
X98425000Y-109435000D03*
%TO.P,C3,2*%
%TO.N,+5V*%
X98425000Y-110275000D03*
%TD*%
D15*
%TO.P,U3,1,VCC_1*%
%TO.N,+5V*%
X74168000Y-85725000D03*
D16*
%TO.P,U3,2,RX_2*%
%TO.N,Net-(U3-RX)*%
X74168000Y-88265000D03*
%TO.P,U3,3,TX_3*%
%TO.N,Net-(U3-TX)*%
X74168000Y-90805000D03*
%TO.P,U3,4,DAC_R_4*%
%TO.N,unconnected-(U3-DAC_R-Pad4)*%
X74168000Y-93345000D03*
%TO.P,U3,5,DAC_L_5*%
%TO.N,unconnected-(U3-DAC_L-Pad5)*%
X74168000Y-95885000D03*
%TO.P,U3,6,SPK1_6*%
%TO.N,Net-(SPK1-+)*%
X74168000Y-98425000D03*
%TO.P,U3,7,GND_7*%
%TO.N,GND*%
X74168000Y-100965000D03*
%TO.P,U3,8,SPK2_8*%
%TO.N,Net-(SPK1--)*%
X74168000Y-103505000D03*
%TO.P,U3,9,IO1_9*%
%TO.N,unconnected-(U3-IO1-Pad9)*%
X92202000Y-103505000D03*
%TO.P,U3,10,GND_10*%
%TO.N,GND*%
X92202000Y-100965000D03*
%TO.P,U3,11,IO2_11*%
%TO.N,unconnected-(U3-IO2-Pad11)*%
X92202000Y-98425000D03*
%TO.P,U3,12,ADKEY1_12*%
%TO.N,unconnected-(U3-ADKEY1-Pad12)*%
X92202000Y-95885000D03*
%TO.P,U3,13,ADKEY2_13*%
%TO.N,unconnected-(U3-ADKEY2-Pad13)*%
X92202000Y-93345000D03*
%TO.P,U3,14,USB+_14*%
%TO.N,unconnected-(U3-USB+-Pad14)*%
X92202000Y-90805000D03*
%TO.P,U3,15,USB-_15*%
%TO.N,unconnected-(U3-USB--Pad15)*%
X92202000Y-88265000D03*
%TO.P,U3,16,BUSY_16*%
%TO.N,Net-(U3-BUSY)*%
X92202000Y-85725000D03*
%TD*%
D17*
%TO.P,U2,*%
%TO.N,*%
X97985000Y-58420000D03*
X97985000Y-82220000D03*
X121285000Y-58420000D03*
X121285000Y-82220000D03*
D18*
%TO.P,U2,1,GND_1*%
%TO.N,GND*%
X105825000Y-57860000D03*
%TO.P,U2,2,VCC_2*%
%TO.N,+3V3*%
X108365000Y-57860000D03*
%TO.P,U2,3,SCL_3*%
%TO.N,Net-(U2-SCL)*%
X110905000Y-57860000D03*
%TO.P,U2,4,SDA_4*%
%TO.N,Net-(U2-SDA)*%
X113445000Y-57860000D03*
%TD*%
D14*
%TO.P,C2,1*%
%TO.N,GND*%
X71120000Y-85940000D03*
%TO.P,C2,2*%
%TO.N,+5V*%
X71120000Y-86780000D03*
%TD*%
D19*
%TO.P,SW3,1,1_1*%
%TO.N,GND*%
X129045000Y-88035000D03*
X133845000Y-88035000D03*
%TO.P,SW3,2,2_2*%
%TO.N,Net-(U4-GPIO5_A3_D3)*%
X129045000Y-91035000D03*
X133845000Y-91035000D03*
%TD*%
D20*
%TO.P,U4,1,GPIO2_A0_D0_1*%
%TO.N,Net-(U4-GPIO2_A0_D0)*%
X118310000Y-110104000D03*
D21*
X117475000Y-110104000D03*
D20*
%TO.P,U4,2,GPIO3_A1_D1_2*%
%TO.N,Net-(U4-GPIO3_A1_D1)*%
X118310000Y-107564000D03*
D21*
X117475000Y-107564000D03*
D20*
%TO.P,U4,3,GPIO4_A2_D2_3*%
%TO.N,Net-(U4-GPIO4_A2_D2)*%
X118310000Y-105024000D03*
D21*
X117475000Y-105024000D03*
D20*
%TO.P,U4,4,GPIO5_A3_D3_4*%
%TO.N,Net-(U4-GPIO5_A3_D3)*%
X118310000Y-102484000D03*
D21*
X117475000Y-102484000D03*
D20*
%TO.P,U4,5,GPIO6_D4_SDA_5*%
%TO.N,Net-(U2-SDA)*%
X118310000Y-99944000D03*
D21*
X117475000Y-99944000D03*
D20*
%TO.P,U4,6,GPIO7_D5_SCL_6*%
%TO.N,Net-(U2-SCL)*%
X118310000Y-97404000D03*
D21*
X117475000Y-97404000D03*
D20*
%TO.P,U4,7,GPIO21_D6_TX_7*%
%TO.N,Net-(U4-GPIO21_D6_TX)*%
X118310000Y-94864000D03*
D21*
X117475000Y-94864000D03*
%TO.P,U4,8,GPIO20_D7_RX_8*%
%TO.N,Net-(U4-GPIO20_D7_RX)*%
X102235000Y-94864000D03*
D22*
X101400000Y-94864000D03*
D21*
%TO.P,U4,9,GPIO8_D8_SCK_9*%
%TO.N,Net-(U3-BUSY)*%
X102235000Y-97404000D03*
D22*
X101400000Y-97404000D03*
D21*
%TO.P,U4,10,GPIO9_D9_MISO_10*%
%TO.N,unconnected-(U4-GPIO9_D9_MISO-Pad10)*%
X102235000Y-99944000D03*
D22*
%TO.N,unconnected-(U4-GPIO9_D9_MISO-Pad10)_1*%
X101400000Y-99944000D03*
D21*
%TO.P,U4,11,GPIO10_D10_MOSI_11*%
%TO.N,unconnected-(U4-GPIO10_D10_MOSI-Pad11)_1*%
X102235000Y-102484000D03*
D22*
%TO.N,unconnected-(U4-GPIO10_D10_MOSI-Pad11)*%
X101400000Y-102484000D03*
D21*
%TO.P,U4,12,3V3_12*%
%TO.N,+3V3*%
X102235000Y-105024000D03*
D22*
X101400000Y-105024000D03*
D21*
%TO.P,U4,13,GND_13*%
%TO.N,GND*%
X102235000Y-107564000D03*
D22*
X101400000Y-107564000D03*
D21*
%TO.P,U4,14,VBUS_14*%
%TO.N,+5V*%
X102235000Y-110104000D03*
D22*
X101400000Y-110104000D03*
D23*
%TO.P,U4,15*%
%TO.N,N/C*%
X114300000Y-102870000D03*
%TO.P,U4,16*%
X114300000Y-104775000D03*
D24*
%TO.P,U4,17*%
X111125000Y-111120000D03*
%TO.P,U4,18*%
X108585000Y-111120000D03*
%TO.P,U4,19*%
X111125000Y-108580000D03*
%TO.P,U4,20*%
X108585000Y-108580000D03*
%TO.P,U4,21*%
X111125000Y-106040000D03*
%TO.P,U4,22*%
X108585000Y-106040000D03*
%TD*%
D19*
%TO.P,SW1,1,1_1*%
%TO.N,GND*%
X129045000Y-71525000D03*
X133845000Y-71525000D03*
%TO.P,SW1,2,2_2*%
%TO.N,Net-(U4-GPIO3_A1_D1)*%
X129045000Y-74525000D03*
X133845000Y-74525000D03*
%TD*%
%TO.P,SW2,1,1_1*%
%TO.N,GND*%
X142380000Y-71525000D03*
X147180000Y-71525000D03*
%TO.P,SW2,2,2_2*%
%TO.N,Net-(U4-GPIO4_A2_D2)*%
X142380000Y-74525000D03*
X147180000Y-74525000D03*
%TD*%
D13*
%TO.P,R1,1*%
%TO.N,Net-(U3-RX)*%
X77470000Y-107950000D03*
%TO.P,R1,2*%
%TO.N,Net-(U4-GPIO21_D6_TX)*%
X87670000Y-107950000D03*
%TD*%
D25*
%TO.P,RV1,1,1_1*%
%TO.N,+3V3*%
X142280000Y-92907500D03*
%TO.P,RV1,2,2_2*%
%TO.N,Net-(U4-GPIO2_A0_D0)*%
X144780000Y-92907500D03*
%TO.P,RV1,3,3_3*%
%TO.N,GND*%
X147280000Y-92907500D03*
D26*
%TO.P,RV1,4*%
%TO.N,N/C*%
X140380000Y-85907500D03*
%TO.P,RV1,5*%
X149180000Y-85907500D03*
%TD*%
D13*
%TO.P,R2,1*%
%TO.N,Net-(U3-TX)*%
X96520000Y-85705000D03*
%TO.P,R2,2*%
%TO.N,Net-(U4-GPIO20_D7_RX)*%
X96520000Y-95905000D03*
%TD*%
D27*
%TO.P,BT1,1,+_1*%
%TO.N,+BATT*%
X139065000Y-60960000D03*
D25*
%TO.P,BT1,2,-_2*%
%TO.N,GND*%
X136525000Y-60960000D03*
%TD*%
D28*
%TO.P,SPK1,1,+_1*%
%TO.N,Net-(SPK1-+)*%
X77630000Y-69215000D03*
D29*
%TO.P,SPK1,2,-_2*%
%TO.N,Net-(SPK1--)*%
X87630000Y-69215000D03*
%TD*%
D30*
%TO.N,GND*%
X70485000Y-82550000D03*
%TO.N,+5V*%
X71120000Y-86995000D03*
X94615000Y-110490000D03*
%TO.N,Net-(U2-SCL)*%
X122555000Y-94615000D03*
%TO.N,Net-(U2-SDA)*%
X123190000Y-97155000D03*
%TO.N,Net-(U4-GPIO5_A3_D3)*%
X150495000Y-76835000D03*
X123825000Y-71755000D03*
%TD*%
%TO.N,Net-(U4-GPIO20_D7_RX)*%
D31*
X98177000Y-94864000D02*
X101400000Y-94864000D01*
X97561500Y-94863500D02*
X96520000Y-95905000D01*
X98176500Y-94863500D02*
X98177000Y-94864000D01*
X96520000Y-98255000D02*
X96520000Y-95905000D01*
X98176500Y-94863500D02*
X97561500Y-94863500D01*
%TO.N,GND*%
D32*
X70270000Y-85940000D02*
X68580000Y-87630000D01*
X105825000Y-57860000D02*
X108440000Y-55245000D01*
X130545000Y-89535000D02*
X129045000Y-88035000D01*
D31*
X141975000Y-71120000D02*
X142380000Y-71525000D01*
D32*
X99529000Y-109435000D02*
X101400000Y-107564000D01*
X127000000Y-55245000D02*
X132080000Y-60325000D01*
X132080000Y-60325000D02*
X132080000Y-62865000D01*
X68580000Y-97155000D02*
X72390000Y-100965000D01*
X96520000Y-108755000D02*
X97745000Y-108755000D01*
X140105000Y-71525000D02*
X142380000Y-71525000D01*
X68580000Y-87630000D02*
X68580000Y-97155000D01*
D31*
X142380000Y-71525000D02*
X147180000Y-71525000D01*
D32*
X71120000Y-83185000D02*
X71120000Y-85940000D01*
X129045000Y-88035000D02*
X127000000Y-85990000D01*
X147280000Y-92035000D02*
X144780000Y-89535000D01*
X86995000Y-100965000D02*
X94785000Y-108755000D01*
X138430000Y-69850000D02*
X140105000Y-71525000D01*
X127000000Y-85990000D02*
X127000000Y-73570000D01*
X129045000Y-71525000D02*
X130720000Y-69850000D01*
X127000000Y-73570000D02*
X129045000Y-71525000D01*
X129045000Y-71525000D02*
X133845000Y-71525000D01*
D31*
X147280000Y-92907500D02*
X147280000Y-92035000D01*
D32*
X101355100Y-107950000D02*
X101741600Y-107563500D01*
X98425000Y-109435000D02*
X97745000Y-108755000D01*
X130810000Y-55245000D02*
X136525000Y-60960000D01*
X144780000Y-89535000D02*
X130545000Y-89535000D01*
X108440000Y-55245000D02*
X127000000Y-55245000D01*
X130720000Y-69850000D02*
X138430000Y-69850000D01*
X70485000Y-82550000D02*
X71120000Y-83185000D01*
X94785000Y-108755000D02*
X96520000Y-108755000D01*
X127000000Y-55245000D02*
X130810000Y-55245000D01*
X86995000Y-100965000D02*
X92202000Y-100965000D01*
X71120000Y-85940000D02*
X70270000Y-85940000D01*
X132080000Y-62865000D02*
X138430000Y-69215000D01*
X129045000Y-88035000D02*
X133845000Y-88035000D01*
X98425000Y-109435000D02*
X99529000Y-109435000D01*
X101400000Y-107564000D02*
X102235000Y-107564000D01*
X72390000Y-100965000D02*
X86995000Y-100965000D01*
X138430000Y-69215000D02*
X138430000Y-69850000D01*
%TO.N,+5V*%
X98210000Y-110490000D02*
X98425000Y-110275000D01*
X99480000Y-110275000D02*
X99695000Y-110490000D01*
X100081000Y-110490000D02*
X100467000Y-110104000D01*
D31*
X101741600Y-110103500D02*
X101355100Y-110490000D01*
D32*
X98425000Y-110275000D02*
X99480000Y-110275000D01*
X100467000Y-110104000D02*
X102235000Y-110104000D01*
D31*
X71120000Y-86780000D02*
X71120000Y-86995000D01*
D32*
X94615000Y-110490000D02*
X98210000Y-110490000D01*
X99695000Y-110490000D02*
X100081000Y-110490000D01*
%TO.N,Net-(U3-TX)*%
D31*
X74168000Y-90805000D02*
X81788000Y-83185000D01*
X94000000Y-83185000D02*
X96520000Y-85705000D01*
X81788000Y-83185000D02*
X94000000Y-83185000D01*
%TO.N,Net-(SPK1-+)*%
X73025000Y-73820000D02*
X73025000Y-97282000D01*
X77630000Y-69215000D02*
X73025000Y-73820000D01*
X73025000Y-97282000D02*
X74168000Y-98425000D01*
%TO.N,Net-(SPK1--)*%
D32*
X67310000Y-98990686D02*
X71824314Y-103505000D01*
X87630000Y-69215000D02*
X87630000Y-65405000D01*
X76835000Y-64135000D02*
X67310000Y-73660000D01*
X71824314Y-103505000D02*
X74168000Y-103505000D01*
X87630000Y-65405000D02*
X86360000Y-64135000D01*
X67310000Y-73660000D02*
X67310000Y-98990686D01*
X86360000Y-64135000D02*
X76835000Y-64135000D01*
%TO.N,Net-(U3-BUSY)*%
D31*
X93472000Y-86995000D02*
X99695000Y-86995000D01*
X92202000Y-85725000D02*
X93472000Y-86995000D01*
X104140000Y-91440000D02*
X104140000Y-95499000D01*
X104140000Y-95499000D02*
X102235000Y-97404000D01*
X99695000Y-86995000D02*
X104140000Y-91440000D01*
%TO.N,+3V3*%
D32*
X103256000Y-105024000D02*
X102235000Y-105024000D01*
X142280000Y-92907500D02*
X141842500Y-93345000D01*
X116205000Y-93345000D02*
X115570000Y-93980000D01*
X106680000Y-95250000D02*
X106680000Y-101600000D01*
X115570000Y-93980000D02*
X107950000Y-93980000D01*
X141842500Y-93345000D02*
X116205000Y-93345000D01*
X106680000Y-101600000D02*
X103256000Y-105024000D01*
X107950000Y-93980000D02*
X106680000Y-95250000D01*
%TO.N,Net-(U2-SCL)*%
D31*
X121036000Y-97404000D02*
X117475000Y-97404000D01*
X122555000Y-95885000D02*
X121036000Y-97404000D01*
X122555000Y-94615000D02*
X122555000Y-95885000D01*
%TO.N,Net-(U2-SDA)*%
X120401000Y-99944000D02*
X117475000Y-99944000D01*
X123190000Y-97155000D02*
X120401000Y-99944000D01*
%TO.N,Net-(U4-GPIO3_A1_D1)*%
X143945660Y-90246814D02*
X143430000Y-90246814D01*
X131491308Y-74525000D02*
X133845000Y-74525000D01*
X127000000Y-94615000D02*
X120650000Y-100965000D01*
X119766000Y-107564000D02*
X117475000Y-107564000D01*
X143430000Y-93383846D02*
X142198846Y-94615000D01*
X143430000Y-90246814D02*
X143430000Y-93383846D01*
X129045000Y-74525000D02*
X131491308Y-74525000D01*
X120650000Y-106680000D02*
X119766000Y-107564000D01*
X131491308Y-74525000D02*
X148486192Y-91519884D01*
X146803654Y-94057500D02*
X146130000Y-93383846D01*
X146130000Y-92431154D02*
X143945660Y-90246814D01*
X142198846Y-94615000D02*
X127000000Y-94615000D01*
X148486192Y-91519884D02*
X148486192Y-93327654D01*
X120650000Y-100965000D02*
X120650000Y-106680000D01*
X147756346Y-94057500D02*
X146803654Y-94057500D01*
X146130000Y-93383846D02*
X146130000Y-92431154D01*
X148486192Y-93327654D02*
X147756346Y-94057500D01*
%TO.N,Net-(U4-GPIO5_A3_D3)*%
X129045000Y-91035000D02*
X133845000Y-91035000D01*
X123825000Y-71755000D02*
X123825000Y-85815000D01*
X151130000Y-106045000D02*
X151130000Y-77470000D01*
X115956000Y-100965000D02*
X113582104Y-100965000D01*
X112395000Y-107671227D02*
X117118773Y-112395000D01*
X123825000Y-85815000D02*
X129045000Y-91035000D01*
X112395000Y-102152104D02*
X112395000Y-107671227D01*
X144780000Y-112395000D02*
X151130000Y-106045000D01*
X117475000Y-102484000D02*
X115956000Y-100965000D01*
X117118773Y-112395000D02*
X144780000Y-112395000D01*
X151130000Y-77470000D02*
X150495000Y-76835000D01*
X113582104Y-100965000D02*
X112395000Y-102152104D01*
%TO.N,Net-(U4-GPIO2_A0_D0)*%
X141991000Y-110104000D02*
X144780000Y-107315000D01*
X144780000Y-107315000D02*
X144780000Y-92907500D01*
X117475000Y-110104000D02*
X141991000Y-110104000D01*
%TO.N,Net-(U4-GPIO4_A2_D2)*%
X147180000Y-86855000D02*
X148886192Y-88561192D01*
X142380000Y-74525000D02*
X147180000Y-74525000D01*
X116231600Y-110942142D02*
X116231600Y-106267400D01*
X147180000Y-74525000D02*
X147180000Y-86855000D01*
X116692958Y-111403500D02*
X116231600Y-110942142D01*
X143866500Y-111403500D02*
X116692958Y-111403500D01*
X148886192Y-106383808D02*
X143866500Y-111403500D01*
X116231600Y-106267400D02*
X117475000Y-105024000D01*
X148886192Y-88561192D02*
X148886192Y-106383808D01*
%TO.N,Net-(U4-GPIO21_D6_TX)*%
X107435000Y-102870000D02*
X107435000Y-102750000D01*
X115441000Y-94864000D02*
X117475000Y-94864000D01*
X107435000Y-102870000D02*
X115441000Y-94864000D01*
X87670000Y-107950000D02*
X91480000Y-111760000D01*
X107435000Y-108465000D02*
X107435000Y-102870000D01*
X91480000Y-111760000D02*
X104140000Y-111760000D01*
X104140000Y-111760000D02*
X107435000Y-108465000D01*
%TD*%
M02*
