M48
; DRILL file KiCad 10.0.1 date 2026-04-22T22:06:23
; FORMAT={-:-/ absolute / metric / decimal}
; #@! TF.CreationDate,2026-04-22T22:06:23-07:00
; #@! TF.GenerationSoftware,Kicad,Pcbnew,10.0.1
; #@! TF.FileFunction,Plated,1,2,PTH
FMAT,2
METRIC
; #@! TA.AperFunction,Plated,PTH,ViaDrill
T1C0.300
; #@! TA.AperFunction,Plated,PTH,ComponentDrill
T2C0.700
; #@! TA.AperFunction,Plated,PTH,ComponentDrill
T3C0.800
; #@! TA.AperFunction,Plated,PTH,ComponentDrill
T4C0.800
; #@! TA.AperFunction,Plated,PTH,ComponentDrill
T5C0.889
; #@! TA.AperFunction,Plated,PTH,ComponentDrill
T6C1.000
; #@! TA.AperFunction,Plated,PTH,ComponentDrill
T7C1.000
; #@! TA.AperFunction,Plated,PTH,ComponentDrill
T8C1.050
; #@! TA.AperFunction,Plated,PTH,ComponentDrill
T9C1.100
; #@! TA.AperFunction,Plated,PTH,ComponentDrill
T10C1.800
; #@! TA.AperFunction,Plated,PTH,ComponentDrill
T11C2.500
%
G90
G05
T1
X70.485Y-82.55
X71.12Y-86.995
X94.615Y-110.49
X122.555Y-94.615
X123.19Y-97.155
X123.825Y-71.755
X150.495Y-76.835
T2
X96.52Y-98.255
X96.52Y-108.755
T3
X77.47Y-107.95
X87.67Y-107.95
X96.52Y-85.705
X96.52Y-95.905
T4
X74.168Y-85.725
X74.168Y-88.265
X74.168Y-90.805
X74.168Y-93.345
X74.168Y-95.885
X74.168Y-98.425
X74.168Y-100.965
X74.168Y-103.505
X92.202Y-85.725
X92.202Y-88.265
X92.202Y-90.805
X92.202Y-93.345
X92.202Y-95.885
X92.202Y-98.425
X92.202Y-100.965
X92.202Y-103.505
T5
X102.235Y-94.864
X102.235Y-97.404
X102.235Y-99.944
X102.235Y-102.484
X102.235Y-105.024
X102.235Y-107.564
X102.235Y-110.104
X114.3Y-102.87
X114.3Y-104.775
X117.475Y-94.864
X117.475Y-97.404
X117.475Y-99.944
X117.475Y-102.484
X117.475Y-105.024
X117.475Y-107.564
X117.475Y-110.104
T6
X129.045Y-71.525
X129.045Y-74.525
X129.045Y-88.035
X129.045Y-91.035
X133.845Y-71.525
X133.845Y-74.525
X133.845Y-88.035
X133.845Y-91.035
X142.28Y-92.907
X142.38Y-71.525
X142.38Y-74.525
X144.78Y-92.907
X147.18Y-71.525
X147.18Y-74.525
X147.28Y-92.907
T7
X136.525Y-60.96
X139.065Y-60.96
T8
X105.825Y-57.86
X108.365Y-57.86
X110.905Y-57.86
X113.445Y-57.86
T9
X77.63Y-69.215
X87.63Y-69.215
T11
X97.985Y-58.42
X97.985Y-82.22
X121.285Y-58.42
X121.285Y-82.22
T10
G00X140.38Y-85.757
M15
G01X140.38Y-86.058
M16
G05
G00X149.18Y-85.757
M15
G01X149.18Y-86.058
M16
G05
M30
