%TF.GenerationSoftware,KiCad,Pcbnew,10.0.1*%
%TF.CreationDate,2026-04-26T22:08:42-07:00*%
%TF.ProjectId,TamagotchiOfSin,54616d61-676f-4746-9368-694f6653696e,rev?*%
%TF.SameCoordinates,Original*%
%TF.FileFunction,Copper,L2,Bot*%
%TF.FilePolarity,Positive*%
%FSLAX46Y46*%
G04 Gerber Fmt 4.6, Leading zero omitted, Abs format (unit mm)*
G04 Created by KiCad (PCBNEW 10.0.1) date 2026-04-26 22:08:42*
%MOMM*%
%LPD*%
G01*
G04 APERTURE LIST*
G04 Aperture macros list*
%AMRoundRect*
0 Rectangle with rounded corners*
0 $1 Rounding radius*
0 $2 $3 $4 $5 $6 $7 $8 $9 X,Y pos of 4 corners*
0 Add a 4 corners polygon primitive as box body*
4,1,4,$2,$3,$4,$5,$6,$7,$8,$9,$2,$3,0*
0 Add four circle primitives for the rounded corners*
1,1,$1+$1,$2,$3*
1,1,$1+$1,$4,$5*
1,1,$1+$1,$6,$7*
1,1,$1+$1,$8,$9*
0 Add four rect primitives between the rounded corners*
20,1,$1+$1,$2,$3,$4,$5,0*
20,1,$1+$1,$4,$5,$6,$7,0*
20,1,$1+$1,$6,$7,$8,$9,0*
20,1,$1+$1,$8,$9,$2,$3,0*%
G04 Aperture macros list end*
%TA.AperFunction,ComponentPad*%
%ADD10C,3.300000*%
%TD*%
%TA.AperFunction,ComponentPad*%
%ADD11C,1.600000*%
%TD*%
%TA.AperFunction,ComponentPad*%
%ADD12R,1.600000X1.600000*%
%TD*%
%TA.AperFunction,ComponentPad*%
%ADD13C,2.200000*%
%TD*%
%TA.AperFunction,ComponentPad*%
%ADD14R,1.700000X1.700000*%
%TD*%
%TA.AperFunction,ComponentPad*%
%ADD15C,1.700000*%
%TD*%
%TA.AperFunction,ComponentPad*%
%ADD16O,0.900000X1.800000*%
%TD*%
%TA.AperFunction,SMDPad,CuDef*%
%ADD17RoundRect,0.152400X1.063600X0.609600X-1.063600X0.609600X-1.063600X-0.609600X1.063600X-0.609600X0*%
%TD*%
%TA.AperFunction,ComponentPad*%
%ADD18C,1.524000*%
%TD*%
%TA.AperFunction,SMDPad,CuDef*%
%ADD19RoundRect,0.152400X-1.063600X-0.609600X1.063600X-0.609600X1.063600X0.609600X-1.063600X0.609600X0*%
%TD*%
%TA.AperFunction,ComponentPad*%
%ADD20RoundRect,0.275000X0.975000X0.275000X-0.975000X0.275000X-0.975000X-0.275000X0.975000X-0.275000X0*%
%TD*%
%TA.AperFunction,SMDPad,CuDef*%
%ADD21C,1.700000*%
%TD*%
%TA.AperFunction,ViaPad*%
%ADD22C,0.600000*%
%TD*%
%TA.AperFunction,Conductor*%
%ADD23C,0.200000*%
%TD*%
G04 APERTURE END LIST*
D10*
%TO.P,LCD1,*%
%TO.N,*%
X92125000Y-94830000D03*
X122125000Y-94830000D03*
X122125000Y-37630000D03*
X92125000Y-37630000D03*
D11*
%TO.P,LCD1,20,CS1_20*%
%TO.N,unconnected-(LCD1-CS1-Pad20)*%
X95695000Y-95830000D03*
%TO.P,LCD1,19,RES_19*%
%TO.N,Net-(U4-GPIO5_A3_D3)*%
X98235000Y-95830000D03*
%TO.P,LCD1,18,DC_18*%
%TO.N,Net-(U4-GPIO6_D4_SDA)*%
X100775000Y-95830000D03*
%TO.P,LCD1,17,SDA_17*%
%TO.N,Net-(U4-GPIO10_D10_MOSI)*%
X103315000Y-95830000D03*
%TO.P,LCD1,16,CLK_16*%
%TO.N,Net-(U4-GPIO8_D8_SCK)*%
X105855000Y-95830000D03*
%TO.P,LCD1,15,FSO_15*%
%TO.N,unconnected-(LCD1-FSO-Pad15)*%
X108395000Y-95830000D03*
%TO.P,LCD1,14,FCS_14*%
%TO.N,unconnected-(LCD1-FCS-Pad14)*%
X110935000Y-95830000D03*
%TO.P,LCD1,13,BLK_13*%
%TO.N,unconnected-(LCD1-BLK-Pad13)*%
X113475000Y-95830000D03*
%TO.P,LCD1,12,GND_12*%
%TO.N,GND*%
X116015000Y-95830000D03*
D12*
%TO.P,LCD1,11,VCC_11*%
%TO.N,+3V3*%
X118555000Y-95830000D03*
D11*
%TO.P,LCD1,10,FCS_10*%
%TO.N,unconnected-(LCD1-FCS-Pad10)*%
X118555000Y-36630000D03*
%TO.P,LCD1,9,FSO_9*%
%TO.N,unconnected-(LCD1-FSO-Pad9)*%
X116015000Y-36630000D03*
%TO.P,LCD1,8,BLK_8*%
%TO.N,unconnected-(LCD1-BLK-Pad8)*%
X113475000Y-36630000D03*
%TO.P,LCD1,7,CS1_7*%
%TO.N,unconnected-(LCD1-CS1-Pad7)*%
X110935000Y-36630000D03*
%TO.P,LCD1,6,DC_6*%
%TO.N,unconnected-(LCD1-DC-Pad6)*%
X108395000Y-36630000D03*
%TO.P,LCD1,5,RES_5*%
%TO.N,unconnected-(LCD1-RES-Pad5)*%
X105855000Y-36630000D03*
%TO.P,LCD1,4,SDA_4*%
%TO.N,unconnected-(LCD1-SDA-Pad4)*%
X103315000Y-36630000D03*
%TO.P,LCD1,3,CLK_3*%
%TO.N,unconnected-(LCD1-CLK-Pad3)*%
X100775000Y-36630000D03*
%TO.P,LCD1,2,VCC_2*%
%TO.N,unconnected-(LCD1-VCC-Pad2)*%
X98235000Y-36630000D03*
D12*
%TO.P,LCD1,1,GND_1*%
%TO.N,unconnected-(LCD1-GND-Pad1)*%
X95695000Y-36630000D03*
%TD*%
D13*
%TO.P,BUZZER1,1,+_1*%
%TO.N,Net-(BUZZER1-+)*%
X110490000Y-67310000D03*
%TO.P,BUZZER1,2,-_2*%
%TO.N,GND*%
X103990000Y-67310000D03*
%TD*%
D14*
%TO.P,BT1,1,+_1*%
%TO.N,+BATT*%
X106800000Y-32730000D03*
D15*
%TO.P,BT1,2,-_2*%
%TO.N,GND*%
X109340000Y-32730000D03*
%TD*%
D11*
%TO.P,SW2,1,1_1*%
%TO.N,GND*%
X104775000Y-100893750D03*
X109575000Y-100893750D03*
%TO.P,SW2,2,2_2*%
%TO.N,Net-(U4-GPIO3_A1_D1)*%
X104775000Y-103893750D03*
X109575000Y-103893750D03*
%TD*%
%TO.P,SW1,1,1_1*%
%TO.N,GND*%
X91580000Y-100893750D03*
X96380000Y-100893750D03*
%TO.P,SW1,2,2_2*%
%TO.N,Net-(U4-GPIO2_A0_D0)*%
X91580000Y-103893750D03*
X96380000Y-103893750D03*
%TD*%
%TO.P,SW3,1,1_1*%
%TO.N,GND*%
X118250000Y-100893750D03*
X123050000Y-100893750D03*
%TO.P,SW3,2,2_2*%
%TO.N,Net-(U4-GPIO4_A2_D2)*%
X118250000Y-103893750D03*
X123050000Y-103893750D03*
%TD*%
D16*
%TO.P,MOT1,1,-_1*%
%TO.N,GND*%
X107870000Y-77445000D03*
%TO.P,MOT1,2,+_2*%
%TO.N,Net-(MOT1-+)*%
X106610000Y-77445000D03*
%TD*%
D17*
%TO.P,U4,1,GPIO2_A0_D0_1*%
%TO.N,Net-(U4-GPIO2_A0_D0)*%
X98860000Y-116205000D03*
D18*
X99695000Y-116205000D03*
D17*
%TO.P,U4,2,GPIO3_A1_D1_2*%
%TO.N,Net-(U4-GPIO3_A1_D1)*%
X98860000Y-113665000D03*
D18*
X99695000Y-113665000D03*
D17*
%TO.P,U4,3,GPIO4_A2_D2_3*%
%TO.N,Net-(U4-GPIO4_A2_D2)*%
X98860000Y-111125000D03*
D18*
X99695000Y-111125000D03*
D17*
%TO.P,U4,4,GPIO5_A3_D3_4*%
%TO.N,Net-(U4-GPIO5_A3_D3)*%
X98860000Y-108585000D03*
D18*
X99695000Y-108585000D03*
D17*
%TO.P,U4,5,GPIO6_D4_SDA_5*%
%TO.N,Net-(U4-GPIO6_D4_SDA)*%
X98860000Y-106045000D03*
D18*
X99695000Y-106045000D03*
D17*
%TO.P,U4,6,GPIO7_D5_SCL_6*%
%TO.N,Net-(MOT1-+)*%
X98860000Y-103505000D03*
D18*
X99695000Y-103505000D03*
D17*
%TO.P,U4,7,GPIO21_D6_TX_7*%
%TO.N,unconnected-(U4-GPIO21_D6_TX-Pad7)_1*%
X98860000Y-100965000D03*
D18*
%TO.N,unconnected-(U4-GPIO21_D6_TX-Pad7)*%
X99695000Y-100965000D03*
%TO.P,U4,8,GPIO20_D7_RX_8*%
%TO.N,unconnected-(U4-GPIO20_D7_RX-Pad8)_1*%
X114935000Y-100965000D03*
D19*
%TO.N,unconnected-(U4-GPIO20_D7_RX-Pad8)*%
X115770000Y-100965000D03*
D18*
%TO.P,U4,9,GPIO8_D8_SCK_9*%
%TO.N,Net-(U4-GPIO8_D8_SCK)*%
X114935000Y-103505000D03*
D19*
X115770000Y-103505000D03*
D18*
%TO.P,U4,10,GPIO9_D9_MISO_10*%
%TO.N,Net-(BUZZER1-+)*%
X114935000Y-106045000D03*
D19*
X115770000Y-106045000D03*
D18*
%TO.P,U4,11,GPIO10_D10_MOSI_11*%
%TO.N,Net-(U4-GPIO10_D10_MOSI)*%
X114935000Y-108585000D03*
D19*
X115770000Y-108585000D03*
D18*
%TO.P,U4,12,3V3_12*%
%TO.N,+3V3*%
X114935000Y-111125000D03*
D19*
X115770000Y-111125000D03*
D18*
%TO.P,U4,13,GND_13*%
%TO.N,GND*%
X114935000Y-113665000D03*
D19*
X115770000Y-113665000D03*
D18*
%TO.P,U4,14,VBUS_14*%
%TO.N,+5V*%
X114935000Y-116205000D03*
D19*
X115770000Y-116205000D03*
D20*
%TO.P,U4,15*%
%TO.N,N/C*%
X102870000Y-108971000D03*
%TO.P,U4,16*%
X102870000Y-110876000D03*
D21*
%TO.P,U4,17*%
X106045000Y-117221000D03*
%TO.P,U4,18*%
X108585000Y-117221000D03*
%TO.P,U4,19*%
X106045000Y-114681000D03*
%TO.P,U4,20*%
X108585000Y-114681000D03*
%TO.P,U4,21*%
X106045000Y-112141000D03*
%TO.P,U4,22*%
X108585000Y-112141000D03*
%TD*%
D22*
%TO.N,GND*%
X124561600Y-116611400D03*
X122021600Y-116611400D03*
X119481600Y-116611400D03*
X111861600Y-116611400D03*
X101701600Y-116611400D03*
X96621600Y-116611400D03*
X94081600Y-116611400D03*
X91541600Y-116611400D03*
X89001600Y-116611400D03*
X127101600Y-114071400D03*
X124561600Y-114071400D03*
X122021600Y-114071400D03*
X119481600Y-114071400D03*
X111861600Y-114071400D03*
X94081600Y-114071400D03*
X91541600Y-114071400D03*
X89001600Y-114071400D03*
X86461600Y-114071400D03*
X129641600Y-111531400D03*
X127101600Y-111531400D03*
X124561600Y-111531400D03*
X122021600Y-111531400D03*
X119481600Y-111531400D03*
X111861600Y-111531400D03*
X94081600Y-111531400D03*
X91541600Y-111531400D03*
X89001600Y-111531400D03*
X86461600Y-111531400D03*
X132181600Y-108991400D03*
X129641600Y-108991400D03*
X127101600Y-108991400D03*
X124561600Y-108991400D03*
X122021600Y-108991400D03*
X119481600Y-108991400D03*
X111861600Y-108991400D03*
X109321600Y-108991400D03*
X106781600Y-108991400D03*
X94081600Y-108991400D03*
X91541600Y-108991400D03*
X89001600Y-108991400D03*
X86461600Y-108991400D03*
X83921600Y-108991400D03*
X81381600Y-108991400D03*
X132181600Y-106451400D03*
X129641600Y-106451400D03*
X111861600Y-106451400D03*
X109321600Y-106451400D03*
X94081600Y-106451400D03*
X91541600Y-106451400D03*
X89001600Y-106451400D03*
X86461600Y-106451400D03*
X83921600Y-106451400D03*
X81381600Y-106451400D03*
X132181600Y-103911400D03*
X129641600Y-103911400D03*
X111861600Y-103911400D03*
X89001600Y-103911400D03*
X86461600Y-103911400D03*
X83921600Y-103911400D03*
X81381600Y-103911400D03*
X132181600Y-101371400D03*
X129641600Y-101371400D03*
X111861600Y-101371400D03*
X89001600Y-101371400D03*
X86461600Y-101371400D03*
X83921600Y-101371400D03*
X81381600Y-101371400D03*
X132181600Y-98831400D03*
X129641600Y-98831400D03*
X94081600Y-98831400D03*
X91541600Y-98831400D03*
X89001600Y-98831400D03*
X86461600Y-98831400D03*
X83921600Y-98831400D03*
X81381600Y-98831400D03*
X132181600Y-96291400D03*
X129641600Y-96291400D03*
X86461600Y-96291400D03*
X83921600Y-96291400D03*
X81381600Y-96291400D03*
X132181600Y-93751400D03*
X129641600Y-93751400D03*
X86461600Y-93751400D03*
X83921600Y-93751400D03*
X81381600Y-93751400D03*
X132181600Y-91211400D03*
X129641600Y-91211400D03*
X124561600Y-91211400D03*
X122021600Y-91211400D03*
X119481600Y-91211400D03*
X116941600Y-91211400D03*
X114401600Y-91211400D03*
X111861600Y-91211400D03*
X104241600Y-91211400D03*
X101701600Y-91211400D03*
X99161600Y-91211400D03*
X96621600Y-91211400D03*
X94081600Y-91211400D03*
X91541600Y-91211400D03*
X86461600Y-91211400D03*
X83921600Y-91211400D03*
X81381600Y-91211400D03*
X132181600Y-88671400D03*
X129641600Y-88671400D03*
X124561600Y-88671400D03*
X122021600Y-88671400D03*
X119481600Y-88671400D03*
X116941600Y-88671400D03*
X114401600Y-88671400D03*
X111861600Y-88671400D03*
X106781600Y-88671400D03*
X104241600Y-88671400D03*
X101701600Y-88671400D03*
X99161600Y-88671400D03*
X96621600Y-88671400D03*
X94081600Y-88671400D03*
X91541600Y-88671400D03*
X86461600Y-88671400D03*
X83921600Y-88671400D03*
X81381600Y-88671400D03*
X132181600Y-86131400D03*
X129641600Y-86131400D03*
X124561600Y-86131400D03*
X122021600Y-86131400D03*
X119481600Y-86131400D03*
X116941600Y-86131400D03*
X114401600Y-86131400D03*
X111861600Y-86131400D03*
X106781600Y-86131400D03*
X104241600Y-86131400D03*
X101701600Y-86131400D03*
X99161600Y-86131400D03*
X96621600Y-86131400D03*
X94081600Y-86131400D03*
X91541600Y-86131400D03*
X86461600Y-86131400D03*
X83921600Y-86131400D03*
X81381600Y-86131400D03*
X132181600Y-83591400D03*
X129641600Y-83591400D03*
X124561600Y-83591400D03*
X122021600Y-83591400D03*
X119481600Y-83591400D03*
X116941600Y-83591400D03*
X114401600Y-83591400D03*
X111861600Y-83591400D03*
X106781600Y-83591400D03*
X104241600Y-83591400D03*
X101701600Y-83591400D03*
X99161600Y-83591400D03*
X96621600Y-83591400D03*
X94081600Y-83591400D03*
X91541600Y-83591400D03*
X86461600Y-83591400D03*
X83921600Y-83591400D03*
X81381600Y-83591400D03*
X132181600Y-81051400D03*
X129641600Y-81051400D03*
X124561600Y-81051400D03*
X122021600Y-81051400D03*
X119481600Y-81051400D03*
X116941600Y-81051400D03*
X114401600Y-81051400D03*
X111861600Y-81051400D03*
X106781600Y-81051400D03*
X104241600Y-81051400D03*
X101701600Y-81051400D03*
X99161600Y-81051400D03*
X96621600Y-81051400D03*
X94081600Y-81051400D03*
X91541600Y-81051400D03*
X86461600Y-81051400D03*
X83921600Y-81051400D03*
X81381600Y-81051400D03*
X132181600Y-78511400D03*
X129641600Y-78511400D03*
X124561600Y-78511400D03*
X122021600Y-78511400D03*
X119481600Y-78511400D03*
X116941600Y-78511400D03*
X114401600Y-78511400D03*
X111861600Y-78511400D03*
X104241600Y-78511400D03*
X101701600Y-78511400D03*
X99161600Y-78511400D03*
X96621600Y-78511400D03*
X94081600Y-78511400D03*
X91541600Y-78511400D03*
X86461600Y-78511400D03*
X83921600Y-78511400D03*
X81381600Y-78511400D03*
X132181600Y-75971400D03*
X129641600Y-75971400D03*
X124561600Y-75971400D03*
X122021600Y-75971400D03*
X119481600Y-75971400D03*
X116941600Y-75971400D03*
X114401600Y-75971400D03*
X111861600Y-75971400D03*
X104241600Y-75971400D03*
X101701600Y-75971400D03*
X99161600Y-75971400D03*
X96621600Y-75971400D03*
X94081600Y-75971400D03*
X91541600Y-75971400D03*
X89001600Y-75971400D03*
X86461600Y-75971400D03*
X83921600Y-75971400D03*
X81381600Y-75971400D03*
X122021600Y-73431400D03*
X119481600Y-73431400D03*
X116941600Y-73431400D03*
X114401600Y-73431400D03*
X111861600Y-73431400D03*
X106781600Y-73431400D03*
X104241600Y-73431400D03*
X101701600Y-73431400D03*
X99161600Y-73431400D03*
X96621600Y-73431400D03*
X94081600Y-73431400D03*
X91541600Y-73431400D03*
X89001600Y-73431400D03*
X86461600Y-73431400D03*
X83921600Y-73431400D03*
X81381600Y-73431400D03*
X119481600Y-70891400D03*
X116941600Y-70891400D03*
X114401600Y-70891400D03*
X111861600Y-70891400D03*
X109321600Y-70891400D03*
X104241600Y-70891400D03*
X101701600Y-70891400D03*
X99161600Y-70891400D03*
X96621600Y-70891400D03*
X94081600Y-70891400D03*
X91541600Y-70891400D03*
X89001600Y-70891400D03*
X101701600Y-68351400D03*
X99161600Y-68351400D03*
X96621600Y-68351400D03*
X94081600Y-68351400D03*
X91541600Y-68351400D03*
X89001600Y-68351400D03*
X124561600Y-65811400D03*
X101701600Y-65811400D03*
X99161600Y-65811400D03*
X96621600Y-65811400D03*
X94081600Y-65811400D03*
X91541600Y-65811400D03*
X89001600Y-65811400D03*
X132181600Y-63271400D03*
X129641600Y-63271400D03*
X127101600Y-63271400D03*
X124561600Y-63271400D03*
X122021600Y-63271400D03*
X119481600Y-63271400D03*
X116941600Y-63271400D03*
X114401600Y-63271400D03*
X111861600Y-63271400D03*
X109321600Y-63271400D03*
X106781600Y-63271400D03*
X104241600Y-63271400D03*
X101701600Y-63271400D03*
X99161600Y-63271400D03*
X96621600Y-63271400D03*
X94081600Y-63271400D03*
X91541600Y-63271400D03*
X89001600Y-63271400D03*
X86461600Y-63271400D03*
X83921600Y-63271400D03*
X81381600Y-63271400D03*
X132181600Y-60731400D03*
X129641600Y-60731400D03*
X127101600Y-60731400D03*
X124561600Y-60731400D03*
X122021600Y-60731400D03*
X119481600Y-60731400D03*
X116941600Y-60731400D03*
X114401600Y-60731400D03*
X111861600Y-60731400D03*
X109321600Y-60731400D03*
X106781600Y-60731400D03*
X104241600Y-60731400D03*
X101701600Y-60731400D03*
X99161600Y-60731400D03*
X96621600Y-60731400D03*
X94081600Y-60731400D03*
X91541600Y-60731400D03*
X89001600Y-60731400D03*
X86461600Y-60731400D03*
X83921600Y-60731400D03*
X81381600Y-60731400D03*
X132181600Y-58191400D03*
X129641600Y-58191400D03*
X127101600Y-58191400D03*
X124561600Y-58191400D03*
X122021600Y-58191400D03*
X119481600Y-58191400D03*
X116941600Y-58191400D03*
X114401600Y-58191400D03*
X111861600Y-58191400D03*
X109321600Y-58191400D03*
X106781600Y-58191400D03*
X104241600Y-58191400D03*
X101701600Y-58191400D03*
X99161600Y-58191400D03*
X96621600Y-58191400D03*
X94081600Y-58191400D03*
X91541600Y-58191400D03*
X89001600Y-58191400D03*
X86461600Y-58191400D03*
X83921600Y-58191400D03*
X81381600Y-58191400D03*
X132181600Y-55651400D03*
X129641600Y-55651400D03*
X127101600Y-55651400D03*
X124561600Y-55651400D03*
X122021600Y-55651400D03*
X119481600Y-55651400D03*
X116941600Y-55651400D03*
X114401600Y-55651400D03*
X111861600Y-55651400D03*
X109321600Y-55651400D03*
X106781600Y-55651400D03*
X104241600Y-55651400D03*
X101701600Y-55651400D03*
X99161600Y-55651400D03*
X96621600Y-55651400D03*
X94081600Y-55651400D03*
X91541600Y-55651400D03*
X89001600Y-55651400D03*
X86461600Y-55651400D03*
X83921600Y-55651400D03*
X81381600Y-55651400D03*
X132181600Y-53111400D03*
X129641600Y-53111400D03*
X127101600Y-53111400D03*
X124561600Y-53111400D03*
X122021600Y-53111400D03*
X119481600Y-53111400D03*
X116941600Y-53111400D03*
X114401600Y-53111400D03*
X111861600Y-53111400D03*
X109321600Y-53111400D03*
X106781600Y-53111400D03*
X104241600Y-53111400D03*
X101701600Y-53111400D03*
X99161600Y-53111400D03*
X96621600Y-53111400D03*
X94081600Y-53111400D03*
X91541600Y-53111400D03*
X89001600Y-53111400D03*
X86461600Y-53111400D03*
X83921600Y-53111400D03*
X81381600Y-53111400D03*
X132181600Y-50571400D03*
X129641600Y-50571400D03*
X127101600Y-50571400D03*
X124561600Y-50571400D03*
X122021600Y-50571400D03*
X119481600Y-50571400D03*
X116941600Y-50571400D03*
X114401600Y-50571400D03*
X111861600Y-50571400D03*
X109321600Y-50571400D03*
X106781600Y-50571400D03*
X104241600Y-50571400D03*
X101701600Y-50571400D03*
X99161600Y-50571400D03*
X96621600Y-50571400D03*
X94081600Y-50571400D03*
X91541600Y-50571400D03*
X89001600Y-50571400D03*
X86461600Y-50571400D03*
X83921600Y-50571400D03*
X81381600Y-50571400D03*
X132181600Y-48031400D03*
X129641600Y-48031400D03*
X127101600Y-48031400D03*
X124561600Y-48031400D03*
X122021600Y-48031400D03*
X119481600Y-48031400D03*
X116941600Y-48031400D03*
X114401600Y-48031400D03*
X111861600Y-48031400D03*
X109321600Y-48031400D03*
X106781600Y-48031400D03*
X104241600Y-48031400D03*
X101701600Y-48031400D03*
X99161600Y-48031400D03*
X96621600Y-48031400D03*
X94081600Y-48031400D03*
X91541600Y-48031400D03*
X89001600Y-48031400D03*
X86461600Y-48031400D03*
X83921600Y-48031400D03*
X81381600Y-48031400D03*
X132181600Y-45491400D03*
X129641600Y-45491400D03*
X127101600Y-45491400D03*
X124561600Y-45491400D03*
X122021600Y-45491400D03*
X119481600Y-45491400D03*
X116941600Y-45491400D03*
X114401600Y-45491400D03*
X111861600Y-45491400D03*
X109321600Y-45491400D03*
X106781600Y-45491400D03*
X104241600Y-45491400D03*
X101701600Y-45491400D03*
X99161600Y-45491400D03*
X96621600Y-45491400D03*
X94081600Y-45491400D03*
X91541600Y-45491400D03*
X89001600Y-45491400D03*
X86461600Y-45491400D03*
X83921600Y-45491400D03*
X81381600Y-45491400D03*
X132181600Y-42951400D03*
X129641600Y-42951400D03*
X127101600Y-42951400D03*
X124561600Y-42951400D03*
X122021600Y-42951400D03*
X119481600Y-42951400D03*
X116941600Y-42951400D03*
X114401600Y-42951400D03*
X111861600Y-42951400D03*
X109321600Y-42951400D03*
X106781600Y-42951400D03*
X104241600Y-42951400D03*
X101701600Y-42951400D03*
X99161600Y-42951400D03*
X96621600Y-42951400D03*
X94081600Y-42951400D03*
X91541600Y-42951400D03*
X89001600Y-42951400D03*
X86461600Y-42951400D03*
X83921600Y-42951400D03*
X81381600Y-42951400D03*
X132181600Y-40411400D03*
X129641600Y-40411400D03*
X127101600Y-40411400D03*
X116941600Y-40411400D03*
X114401600Y-40411400D03*
X111861600Y-40411400D03*
X109321600Y-40411400D03*
X106781600Y-40411400D03*
X104241600Y-40411400D03*
X101701600Y-40411400D03*
X99161600Y-40411400D03*
X96621600Y-40411400D03*
X89001600Y-40411400D03*
X86461600Y-40411400D03*
X83921600Y-40411400D03*
X81381600Y-40411400D03*
X129641600Y-37871400D03*
X127101600Y-37871400D03*
X89001600Y-37871400D03*
X86461600Y-37871400D03*
X83921600Y-37871400D03*
X127101600Y-35331400D03*
X89001600Y-35331400D03*
X86461600Y-35331400D03*
X124561600Y-32791400D03*
X122021600Y-32791400D03*
X119481600Y-32791400D03*
X116941600Y-32791400D03*
X114401600Y-32791400D03*
X101701600Y-32791400D03*
X99161600Y-32791400D03*
X96621600Y-32791400D03*
X94081600Y-32791400D03*
X91541600Y-32791400D03*
X89001600Y-32791400D03*
X106781600Y-106451400D03*
X83921600Y-111531400D03*
X132181600Y-73431400D03*
X129641600Y-73431400D03*
%TD*%
%TO.N,Net-(MOT1-+)*%
D23*
X99695000Y-103505000D02*
X99082786Y-103505000D01*
%TD*%
%TA.AperFunction,Conductor*%
%TO.N,GND*%
G36*
X124429869Y-30999407D02*
G01*
X124441682Y-31009496D01*
X134090504Y-40658318D01*
X134118281Y-40712835D01*
X134119500Y-40728322D01*
X134119500Y-109131678D01*
X134100593Y-109189869D01*
X134090504Y-109201682D01*
X124441682Y-118850504D01*
X124387165Y-118878281D01*
X124371678Y-118879500D01*
X89623322Y-118879500D01*
X89565131Y-118860593D01*
X89553318Y-118850504D01*
X79904496Y-109201682D01*
X79876719Y-109147165D01*
X79875500Y-109131678D01*
X79875500Y-103791394D01*
X90279500Y-103791394D01*
X90279500Y-103996105D01*
X90311521Y-104198279D01*
X90374780Y-104392969D01*
X90467712Y-104575359D01*
X90467714Y-104575363D01*
X90588029Y-104740963D01*
X90588031Y-104740965D01*
X90588034Y-104740969D01*
X90732781Y-104885716D01*
X90732784Y-104885718D01*
X90732786Y-104885720D01*
X90898386Y-105006035D01*
X90898390Y-105006037D01*
X91080781Y-105098970D01*
X91275466Y-105162227D01*
X91275467Y-105162227D01*
X91275470Y-105162228D01*
X91477645Y-105194250D01*
X91477648Y-105194250D01*
X91682355Y-105194250D01*
X91884529Y-105162228D01*
X91884530Y-105162227D01*
X91884534Y-105162227D01*
X92079219Y-105098970D01*
X92261610Y-105006037D01*
X92427219Y-104885716D01*
X92571966Y-104740969D01*
X92692287Y-104575360D01*
X92785220Y-104392969D01*
X92848477Y-104198284D01*
X92848478Y-104198279D01*
X92880500Y-103996105D01*
X92880500Y-103791394D01*
X95079500Y-103791394D01*
X95079500Y-103996105D01*
X95111521Y-104198279D01*
X95174780Y-104392969D01*
X95267712Y-104575359D01*
X95267714Y-104575363D01*
X95388029Y-104740963D01*
X95388031Y-104740965D01*
X95388034Y-104740969D01*
X95532781Y-104885716D01*
X95532784Y-104885718D01*
X95532786Y-104885720D01*
X95698386Y-105006035D01*
X95698390Y-105006037D01*
X95880781Y-105098970D01*
X96075466Y-105162227D01*
X96075467Y-105162227D01*
X96075470Y-105162228D01*
X96277645Y-105194250D01*
X96277648Y-105194250D01*
X96482355Y-105194250D01*
X96684529Y-105162228D01*
X96684530Y-105162227D01*
X96684534Y-105162227D01*
X96879219Y-105098970D01*
X97061610Y-105006037D01*
X97078457Y-104993796D01*
X97136643Y-104974888D01*
X97194835Y-104993792D01*
X97230801Y-105043291D01*
X97230804Y-105104476D01*
X97221862Y-105124282D01*
X97192436Y-105174039D01*
X97192436Y-105174041D01*
X97146414Y-105332448D01*
X97146412Y-105332455D01*
X97143500Y-105369471D01*
X97143500Y-106720528D01*
X97146412Y-106757544D01*
X97146414Y-106757551D01*
X97192436Y-106915958D01*
X97192437Y-106915962D01*
X97276405Y-107057943D01*
X97276406Y-107057944D01*
X97276408Y-107057947D01*
X97393053Y-107174592D01*
X97393055Y-107174593D01*
X97393056Y-107174594D01*
X97486381Y-107229787D01*
X97526844Y-107275683D01*
X97532602Y-107336597D01*
X97501456Y-107389261D01*
X97486381Y-107400213D01*
X97393056Y-107455405D01*
X97276405Y-107572056D01*
X97192437Y-107714037D01*
X97192436Y-107714041D01*
X97146414Y-107872448D01*
X97146412Y-107872455D01*
X97143500Y-107909471D01*
X97143500Y-109260528D01*
X97146412Y-109297544D01*
X97146412Y-109297547D01*
X97146413Y-109297548D01*
X97189511Y-109445892D01*
X97192436Y-109455958D01*
X97192437Y-109455962D01*
X97276405Y-109597943D01*
X97276406Y-109597944D01*
X97276408Y-109597947D01*
X97393053Y-109714592D01*
X97393055Y-109714593D01*
X97393056Y-109714594D01*
X97486381Y-109769787D01*
X97526844Y-109815683D01*
X97532602Y-109876597D01*
X97501456Y-109929261D01*
X97486381Y-109940213D01*
X97393056Y-109995405D01*
X97276405Y-110112056D01*
X97192437Y-110254037D01*
X97192436Y-110254041D01*
X97146414Y-110412448D01*
X97146412Y-110412455D01*
X97143500Y-110449471D01*
X97143500Y-111800528D01*
X97146412Y-111837544D01*
X97146414Y-111837551D01*
X97192436Y-111995958D01*
X97192437Y-111995962D01*
X97276405Y-112137943D01*
X97276406Y-112137944D01*
X97276408Y-112137947D01*
X97393053Y-112254592D01*
X97393055Y-112254593D01*
X97393056Y-112254594D01*
X97486381Y-112309787D01*
X97526844Y-112355683D01*
X97532602Y-112416597D01*
X97501456Y-112469261D01*
X97486381Y-112480213D01*
X97393056Y-112535405D01*
X97276405Y-112652056D01*
X97192437Y-112794037D01*
X97192436Y-112794041D01*
X97146414Y-112952448D01*
X97146412Y-112952455D01*
X97143500Y-112989471D01*
X97143500Y-114340528D01*
X97146412Y-114377544D01*
X97146412Y-114377547D01*
X97146413Y-114377548D01*
X97192378Y-114535761D01*
X97192436Y-114535958D01*
X97192437Y-114535962D01*
X97276405Y-114677943D01*
X97276406Y-114677944D01*
X97276408Y-114677947D01*
X97393053Y-114794592D01*
X97393055Y-114794593D01*
X97393056Y-114794594D01*
X97486381Y-114849787D01*
X97526844Y-114895683D01*
X97532602Y-114956597D01*
X97501456Y-115009261D01*
X97486381Y-115020213D01*
X97393056Y-115075405D01*
X97276405Y-115192056D01*
X97192437Y-115334037D01*
X97192436Y-115334041D01*
X97146414Y-115492448D01*
X97146412Y-115492455D01*
X97143500Y-115529471D01*
X97143500Y-116880528D01*
X97146412Y-116917544D01*
X97146414Y-116917551D01*
X97192436Y-117075958D01*
X97192437Y-117075962D01*
X97276405Y-117217943D01*
X97276406Y-117217944D01*
X97276408Y-117217947D01*
X97393053Y-117334592D01*
X97393055Y-117334593D01*
X97393056Y-117334594D01*
X97535037Y-117418562D01*
X97535038Y-117418562D01*
X97535041Y-117418564D01*
X97693452Y-117464587D01*
X97730466Y-117467500D01*
X97730471Y-117467500D01*
X99989529Y-117467500D01*
X99989534Y-117467500D01*
X100026548Y-117464587D01*
X100184959Y-117418564D01*
X100326947Y-117334592D01*
X100424546Y-117236991D01*
X100436338Y-117226921D01*
X100517464Y-117167981D01*
X100657981Y-117027464D01*
X100774787Y-116866694D01*
X100865005Y-116689632D01*
X100926413Y-116500636D01*
X100957500Y-116304361D01*
X100957500Y-116105639D01*
X100957500Y-116105635D01*
X100935460Y-115966487D01*
X100926413Y-115909364D01*
X100865005Y-115720368D01*
X100774787Y-115543306D01*
X100657981Y-115382536D01*
X100517464Y-115242019D01*
X100517460Y-115242016D01*
X100517458Y-115242014D01*
X100436347Y-115183083D01*
X100424535Y-115172995D01*
X100326946Y-115075407D01*
X100326944Y-115075406D01*
X100233618Y-115020213D01*
X100193155Y-114974318D01*
X100187397Y-114913404D01*
X100218543Y-114860739D01*
X100233610Y-114849791D01*
X100326947Y-114794592D01*
X100424546Y-114696991D01*
X100436338Y-114686921D01*
X100517464Y-114627981D01*
X100657981Y-114487464D01*
X100774787Y-114326694D01*
X100865005Y-114149632D01*
X100926413Y-113960636D01*
X100951664Y-113801208D01*
X100957500Y-113764364D01*
X100957500Y-113565635D01*
X100934151Y-113418219D01*
X100926413Y-113369364D01*
X100865005Y-113180368D01*
X100774787Y-113003306D01*
X100657981Y-112842536D01*
X100517464Y-112702019D01*
X100517460Y-112702016D01*
X100517458Y-112702014D01*
X100436347Y-112643083D01*
X100424535Y-112632995D01*
X100326946Y-112535407D01*
X100326944Y-112535406D01*
X100233618Y-112480213D01*
X100193155Y-112434318D01*
X100187397Y-112373404D01*
X100218543Y-112320739D01*
X100233610Y-112309791D01*
X100326947Y-112254592D01*
X100424546Y-112156991D01*
X100436338Y-112146921D01*
X100517464Y-112087981D01*
X100570736Y-112034709D01*
X104694500Y-112034709D01*
X104694500Y-112247290D01*
X104727752Y-112457238D01*
X104793443Y-112659412D01*
X104889948Y-112848815D01*
X104889950Y-112848819D01*
X105014891Y-113020786D01*
X105014893Y-113020788D01*
X105014896Y-113020792D01*
X105165208Y-113171104D01*
X105165211Y-113171106D01*
X105165213Y-113171108D01*
X105337180Y-113296049D01*
X105337184Y-113296051D01*
X105389662Y-113322790D01*
X105432927Y-113366055D01*
X105442498Y-113426487D01*
X105414720Y-113481004D01*
X105389662Y-113499210D01*
X105337184Y-113525948D01*
X105337180Y-113525950D01*
X105165213Y-113650891D01*
X105014891Y-113801213D01*
X104889950Y-113973180D01*
X104889948Y-113973184D01*
X104793443Y-114162587D01*
X104727752Y-114364761D01*
X104694500Y-114574709D01*
X104694500Y-114787290D01*
X104727752Y-114997238D01*
X104793443Y-115199412D01*
X104889948Y-115388815D01*
X104889950Y-115388819D01*
X105014891Y-115560786D01*
X105014893Y-115560788D01*
X105014896Y-115560792D01*
X105165208Y-115711104D01*
X105165211Y-115711106D01*
X105165213Y-115711108D01*
X105337180Y-115836049D01*
X105337184Y-115836051D01*
X105389662Y-115862790D01*
X105432927Y-115906055D01*
X105442498Y-115966487D01*
X105414720Y-116021004D01*
X105389662Y-116039210D01*
X105337184Y-116065948D01*
X105337180Y-116065950D01*
X105165213Y-116190891D01*
X105014891Y-116341213D01*
X104889950Y-116513180D01*
X104889948Y-116513184D01*
X104793443Y-116702587D01*
X104727752Y-116904761D01*
X104694500Y-117114709D01*
X104694500Y-117327290D01*
X104727752Y-117537238D01*
X104793443Y-117739412D01*
X104889948Y-117928815D01*
X104889950Y-117928819D01*
X105014891Y-118100786D01*
X105014893Y-118100788D01*
X105014896Y-118100792D01*
X105165208Y-118251104D01*
X105165211Y-118251106D01*
X105165213Y-118251108D01*
X105337180Y-118376049D01*
X105337184Y-118376051D01*
X105526588Y-118472557D01*
X105728757Y-118538246D01*
X105728758Y-118538246D01*
X105728761Y-118538247D01*
X105938710Y-118571500D01*
X105938713Y-118571500D01*
X106151290Y-118571500D01*
X106361238Y-118538247D01*
X106361239Y-118538246D01*
X106361243Y-118538246D01*
X106563412Y-118472557D01*
X106752816Y-118376051D01*
X106924792Y-118251104D01*
X107075104Y-118100792D01*
X107200051Y-117928816D01*
X107226790Y-117876336D01*
X107270054Y-117833073D01*
X107330486Y-117823501D01*
X107385003Y-117851278D01*
X107403210Y-117876337D01*
X107429948Y-117928815D01*
X107429950Y-117928819D01*
X107554891Y-118100786D01*
X107554893Y-118100788D01*
X107554896Y-118100792D01*
X107705208Y-118251104D01*
X107705211Y-118251106D01*
X107705213Y-118251108D01*
X107877180Y-118376049D01*
X107877184Y-118376051D01*
X108066588Y-118472557D01*
X108268757Y-118538246D01*
X108268758Y-118538246D01*
X108268761Y-118538247D01*
X108478710Y-118571500D01*
X108478713Y-118571500D01*
X108691290Y-118571500D01*
X108901238Y-118538247D01*
X108901239Y-118538246D01*
X108901243Y-118538246D01*
X109103412Y-118472557D01*
X109292816Y-118376051D01*
X109464792Y-118251104D01*
X109615104Y-118100792D01*
X109740051Y-117928816D01*
X109836557Y-117739412D01*
X109902246Y-117537243D01*
X109902247Y-117537238D01*
X109935500Y-117327290D01*
X109935500Y-117114709D01*
X109902247Y-116904761D01*
X109894373Y-116880528D01*
X109836557Y-116702588D01*
X109740051Y-116513184D01*
X109740049Y-116513180D01*
X109615108Y-116341213D01*
X109615106Y-116341211D01*
X109615104Y-116341208D01*
X109464792Y-116190896D01*
X109464788Y-116190893D01*
X109464786Y-116190891D01*
X109292819Y-116065950D01*
X109292815Y-116065948D01*
X109261904Y-116050198D01*
X109240336Y-116039209D01*
X109197073Y-115995946D01*
X109187501Y-115935514D01*
X109215278Y-115880997D01*
X109240335Y-115862791D01*
X109292816Y-115836051D01*
X109464792Y-115711104D01*
X109615104Y-115560792D01*
X109740051Y-115388816D01*
X109836557Y-115199412D01*
X109902246Y-114997243D01*
X109910917Y-114942500D01*
X109935500Y-114787290D01*
X109935500Y-114574709D01*
X109902247Y-114364761D01*
X109894356Y-114340475D01*
X109836557Y-114162588D01*
X109740051Y-113973184D01*
X109740049Y-113973180D01*
X109615108Y-113801213D01*
X109615106Y-113801211D01*
X109615104Y-113801208D01*
X109464792Y-113650896D01*
X109292816Y-113525949D01*
X109240336Y-113499209D01*
X109197073Y-113455946D01*
X109187501Y-113395514D01*
X109215278Y-113340997D01*
X109240335Y-113322791D01*
X109292816Y-113296051D01*
X109464792Y-113171104D01*
X109615104Y-113020792D01*
X109740051Y-112848816D01*
X109836557Y-112659412D01*
X109902246Y-112457243D01*
X109910917Y-112402500D01*
X109935500Y-112247290D01*
X109935500Y-112034709D01*
X109902247Y-111824761D01*
X109894373Y-111800528D01*
X109836557Y-111622588D01*
X109740051Y-111433184D01*
X109740049Y-111433180D01*
X109615108Y-111261213D01*
X109615106Y-111261211D01*
X109615104Y-111261208D01*
X109464792Y-111110896D01*
X109464788Y-111110893D01*
X109464786Y-111110891D01*
X109292819Y-110985950D01*
X109292815Y-110985948D01*
X109103412Y-110889443D01*
X108901238Y-110823752D01*
X108691290Y-110790500D01*
X108691287Y-110790500D01*
X108478713Y-110790500D01*
X108478710Y-110790500D01*
X108268761Y-110823752D01*
X108066587Y-110889443D01*
X107877184Y-110985948D01*
X107877180Y-110985950D01*
X107705213Y-111110891D01*
X107554891Y-111261213D01*
X107429950Y-111433180D01*
X107429948Y-111433184D01*
X107403210Y-111485662D01*
X107359945Y-111528927D01*
X107299513Y-111538498D01*
X107244996Y-111510720D01*
X107226790Y-111485662D01*
X107200051Y-111433184D01*
X107200049Y-111433180D01*
X107075108Y-111261213D01*
X107075106Y-111261211D01*
X107075104Y-111261208D01*
X106924792Y-111110896D01*
X106924788Y-111110893D01*
X106924786Y-111110891D01*
X106752819Y-110985950D01*
X106752815Y-110985948D01*
X106563412Y-110889443D01*
X106361238Y-110823752D01*
X106151290Y-110790500D01*
X106151287Y-110790500D01*
X105938713Y-110790500D01*
X105938710Y-110790500D01*
X105728761Y-110823752D01*
X105526587Y-110889443D01*
X105337184Y-110985948D01*
X105337180Y-110985950D01*
X105165213Y-111110891D01*
X105014891Y-111261213D01*
X104889950Y-111433180D01*
X104889948Y-111433184D01*
X104793443Y-111622587D01*
X104727752Y-111824761D01*
X104694500Y-112034709D01*
X100570736Y-112034709D01*
X100657981Y-111947464D01*
X100774787Y-111786694D01*
X100865005Y-111609632D01*
X100926413Y-111420636D01*
X100940284Y-111333059D01*
X100968061Y-111278543D01*
X101022578Y-111250765D01*
X101083010Y-111260336D01*
X101126274Y-111303601D01*
X101132042Y-111319506D01*
X101132322Y-111319409D01*
X101191875Y-111489601D01*
X101191878Y-111489606D01*
X101275434Y-111622587D01*
X101284853Y-111637576D01*
X101408424Y-111761147D01*
X101408427Y-111761149D01*
X101408426Y-111761149D01*
X101507070Y-111823130D01*
X101556394Y-111854122D01*
X101556395Y-111854122D01*
X101556398Y-111854124D01*
X101721336Y-111911839D01*
X101721340Y-111911840D01*
X101721343Y-111911841D01*
X101721344Y-111911841D01*
X101721348Y-111911842D01*
X101830317Y-111924119D01*
X101851448Y-111926500D01*
X101851449Y-111926500D01*
X103888551Y-111926500D01*
X103888552Y-111926500D01*
X103937799Y-111920951D01*
X104018651Y-111911842D01*
X104018653Y-111911841D01*
X104018657Y-111911841D01*
X104018663Y-111911839D01*
X104183601Y-111854124D01*
X104183602Y-111854123D01*
X104183606Y-111854122D01*
X104331576Y-111761147D01*
X104455147Y-111637576D01*
X104548122Y-111489606D01*
X104605841Y-111324657D01*
X104606422Y-111319506D01*
X104620498Y-111194568D01*
X104620500Y-111194551D01*
X104620500Y-110557448D01*
X104620498Y-110557431D01*
X104605842Y-110427348D01*
X104605839Y-110427336D01*
X104548124Y-110262398D01*
X104548121Y-110262393D01*
X104542873Y-110254041D01*
X104455147Y-110114424D01*
X104334224Y-109993501D01*
X104306449Y-109938987D01*
X104316020Y-109878555D01*
X104334223Y-109853499D01*
X104455147Y-109732576D01*
X104548122Y-109584606D01*
X104605841Y-109419657D01*
X104620500Y-109289552D01*
X104620500Y-108652448D01*
X104618119Y-108631317D01*
X104605842Y-108522348D01*
X104605839Y-108522336D01*
X104548124Y-108357398D01*
X104548121Y-108357393D01*
X104505377Y-108289366D01*
X104455147Y-108209424D01*
X104331576Y-108085853D01*
X104331573Y-108085851D01*
X104331572Y-108085850D01*
X104331573Y-108085850D01*
X104183606Y-107992878D01*
X104183601Y-107992875D01*
X104018663Y-107935160D01*
X104018651Y-107935157D01*
X103888568Y-107920501D01*
X103888553Y-107920500D01*
X103888552Y-107920500D01*
X101851448Y-107920500D01*
X101851447Y-107920500D01*
X101851431Y-107920501D01*
X101721348Y-107935157D01*
X101721336Y-107935160D01*
X101556398Y-107992875D01*
X101556393Y-107992878D01*
X101408427Y-108085850D01*
X101284850Y-108209427D01*
X101191878Y-108357393D01*
X101191877Y-108357396D01*
X101146311Y-108487612D01*
X101109245Y-108536292D01*
X101050644Y-108553888D01*
X100992893Y-108533679D01*
X100958049Y-108483384D01*
X100955086Y-108470400D01*
X100937188Y-108357398D01*
X100926413Y-108289364D01*
X100865005Y-108100368D01*
X100774787Y-107923306D01*
X100657981Y-107762536D01*
X100517464Y-107622019D01*
X100517460Y-107622016D01*
X100517458Y-107622014D01*
X100436347Y-107563083D01*
X100424535Y-107552995D01*
X100326946Y-107455407D01*
X100326944Y-107455406D01*
X100233618Y-107400213D01*
X100193155Y-107354318D01*
X100187397Y-107293404D01*
X100218543Y-107240739D01*
X100233610Y-107229791D01*
X100326947Y-107174592D01*
X100424546Y-107076991D01*
X100436338Y-107066921D01*
X100517464Y-107007981D01*
X100657981Y-106867464D01*
X100774787Y-106706694D01*
X100865005Y-106529632D01*
X100926413Y-106340636D01*
X100957500Y-106144361D01*
X100957500Y-105945639D01*
X100957500Y-105945635D01*
X100926413Y-105749366D01*
X100926413Y-105749364D01*
X100865005Y-105560368D01*
X100774787Y-105383306D01*
X100657981Y-105222536D01*
X100517464Y-105082019D01*
X100517460Y-105082016D01*
X100517458Y-105082014D01*
X100436347Y-105023083D01*
X100424535Y-105012995D01*
X100326946Y-104915407D01*
X100326944Y-104915406D01*
X100233618Y-104860213D01*
X100193155Y-104814318D01*
X100187397Y-104753404D01*
X100218543Y-104700739D01*
X100233610Y-104689791D01*
X100326947Y-104634592D01*
X100424546Y-104536991D01*
X100436338Y-104526921D01*
X100517464Y-104467981D01*
X100657981Y-104327464D01*
X100774787Y-104166694D01*
X100865005Y-103989632D01*
X100926413Y-103800636D01*
X100927876Y-103791394D01*
X103474500Y-103791394D01*
X103474500Y-103996105D01*
X103506521Y-104198279D01*
X103569780Y-104392969D01*
X103662712Y-104575359D01*
X103662714Y-104575363D01*
X103783029Y-104740963D01*
X103783031Y-104740965D01*
X103783034Y-104740969D01*
X103927781Y-104885716D01*
X103927784Y-104885718D01*
X103927786Y-104885720D01*
X104093386Y-105006035D01*
X104093390Y-105006037D01*
X104275781Y-105098970D01*
X104470466Y-105162227D01*
X104470467Y-105162227D01*
X104470470Y-105162228D01*
X104672645Y-105194250D01*
X104672648Y-105194250D01*
X104877355Y-105194250D01*
X105079529Y-105162228D01*
X105079530Y-105162227D01*
X105079534Y-105162227D01*
X105274219Y-105098970D01*
X105456610Y-105006037D01*
X105622219Y-104885716D01*
X105766966Y-104740969D01*
X105887287Y-104575360D01*
X105980220Y-104392969D01*
X106043477Y-104198284D01*
X106043478Y-104198279D01*
X106075500Y-103996105D01*
X106075500Y-103791394D01*
X108274500Y-103791394D01*
X108274500Y-103996105D01*
X108306521Y-104198279D01*
X108369780Y-104392969D01*
X108462712Y-104575359D01*
X108462714Y-104575363D01*
X108583029Y-104740963D01*
X108583031Y-104740965D01*
X108583034Y-104740969D01*
X108727781Y-104885716D01*
X108727784Y-104885718D01*
X108727786Y-104885720D01*
X108893386Y-105006035D01*
X108893390Y-105006037D01*
X109075781Y-105098970D01*
X109270466Y-105162227D01*
X109270467Y-105162227D01*
X109270470Y-105162228D01*
X109472645Y-105194250D01*
X109472648Y-105194250D01*
X109677355Y-105194250D01*
X109879529Y-105162228D01*
X109879530Y-105162227D01*
X109879534Y-105162227D01*
X110074219Y-105098970D01*
X110256610Y-105006037D01*
X110422219Y-104885716D01*
X110566966Y-104740969D01*
X110687287Y-104575360D01*
X110780220Y-104392969D01*
X110843477Y-104198284D01*
X110843478Y-104198279D01*
X110875500Y-103996105D01*
X110875500Y-103791394D01*
X110843478Y-103589220D01*
X110783829Y-103405639D01*
X110780220Y-103394531D01*
X110687287Y-103212140D01*
X110687285Y-103212136D01*
X110566970Y-103046536D01*
X110566968Y-103046534D01*
X110566966Y-103046531D01*
X110422219Y-102901784D01*
X110422215Y-102901781D01*
X110422213Y-102901779D01*
X110256613Y-102781464D01*
X110256609Y-102781462D01*
X110074219Y-102688530D01*
X109879529Y-102625271D01*
X109677355Y-102593250D01*
X109677352Y-102593250D01*
X109472648Y-102593250D01*
X109472645Y-102593250D01*
X109270470Y-102625271D01*
X109075780Y-102688530D01*
X108893390Y-102781462D01*
X108893386Y-102781464D01*
X108727786Y-102901779D01*
X108583029Y-103046536D01*
X108462714Y-103212136D01*
X108462712Y-103212140D01*
X108369780Y-103394530D01*
X108306521Y-103589220D01*
X108274500Y-103791394D01*
X106075500Y-103791394D01*
X106043478Y-103589220D01*
X105983829Y-103405639D01*
X105980220Y-103394531D01*
X105887287Y-103212140D01*
X105887285Y-103212136D01*
X105766970Y-103046536D01*
X105766968Y-103046534D01*
X105766966Y-103046531D01*
X105622219Y-102901784D01*
X105622215Y-102901781D01*
X105622213Y-102901779D01*
X105456613Y-102781464D01*
X105456609Y-102781462D01*
X105274219Y-102688530D01*
X105079529Y-102625271D01*
X104877355Y-102593250D01*
X104877352Y-102593250D01*
X104672648Y-102593250D01*
X104672645Y-102593250D01*
X104470470Y-102625271D01*
X104275780Y-102688530D01*
X104093390Y-102781462D01*
X104093386Y-102781464D01*
X103927786Y-102901779D01*
X103783029Y-103046536D01*
X103662714Y-103212136D01*
X103662712Y-103212140D01*
X103569780Y-103394530D01*
X103506521Y-103589220D01*
X103474500Y-103791394D01*
X100927876Y-103791394D01*
X100927887Y-103791327D01*
X100930946Y-103772020D01*
X100930946Y-103772019D01*
X100957500Y-103604364D01*
X100957500Y-103405635D01*
X100936775Y-103274789D01*
X100926413Y-103209364D01*
X100865005Y-103020368D01*
X100774787Y-102843306D01*
X100657981Y-102682536D01*
X100517464Y-102542019D01*
X100517460Y-102542016D01*
X100517458Y-102542014D01*
X100436347Y-102483083D01*
X100424535Y-102472995D01*
X100326946Y-102375407D01*
X100326944Y-102375406D01*
X100233618Y-102320213D01*
X100193155Y-102274318D01*
X100187397Y-102213404D01*
X100218543Y-102160739D01*
X100233610Y-102149791D01*
X100326947Y-102094592D01*
X100424546Y-101996991D01*
X100436338Y-101986921D01*
X100517464Y-101927981D01*
X100657981Y-101787464D01*
X100774787Y-101626694D01*
X100865005Y-101449632D01*
X100926413Y-101260636D01*
X100949405Y-101115471D01*
X100957500Y-101064364D01*
X100957500Y-100865635D01*
X100947585Y-100803035D01*
X100945748Y-100791434D01*
X103475000Y-100791434D01*
X103475000Y-100996065D01*
X103507008Y-101198162D01*
X103570243Y-101392777D01*
X103663139Y-101575098D01*
X103663143Y-101575103D01*
X103695523Y-101619670D01*
X103695524Y-101619670D01*
X104292037Y-101023156D01*
X104309076Y-101086742D01*
X104374902Y-101200756D01*
X104467994Y-101293848D01*
X104582008Y-101359674D01*
X104645591Y-101376711D01*
X104049078Y-101973225D01*
X104093647Y-102005608D01*
X104275972Y-102098506D01*
X104470587Y-102161741D01*
X104672685Y-102193750D01*
X104877315Y-102193750D01*
X105079412Y-102161741D01*
X105274027Y-102098506D01*
X105456342Y-102005613D01*
X105456350Y-102005608D01*
X105500920Y-101973225D01*
X104904407Y-101376712D01*
X104967992Y-101359674D01*
X105082006Y-101293848D01*
X105175098Y-101200756D01*
X105240924Y-101086742D01*
X105257962Y-101023157D01*
X105854475Y-101619670D01*
X105886858Y-101575100D01*
X105886863Y-101575092D01*
X105979756Y-101392777D01*
X106042991Y-101198162D01*
X106075000Y-100996065D01*
X106075000Y-100791434D01*
X108275000Y-100791434D01*
X108275000Y-100996065D01*
X108307008Y-101198162D01*
X108370243Y-101392777D01*
X108463139Y-101575098D01*
X108463143Y-101575103D01*
X108495523Y-101619670D01*
X108495524Y-101619670D01*
X109092037Y-101023156D01*
X109109076Y-101086742D01*
X109174902Y-101200756D01*
X109267994Y-101293848D01*
X109382008Y-101359674D01*
X109445591Y-101376711D01*
X108849078Y-101973225D01*
X108893647Y-102005608D01*
X109075972Y-102098506D01*
X109270587Y-102161741D01*
X109472685Y-102193750D01*
X109677315Y-102193750D01*
X109879412Y-102161741D01*
X110074027Y-102098506D01*
X110256342Y-102005613D01*
X110256350Y-102005608D01*
X110300920Y-101973225D01*
X109704407Y-101376712D01*
X109767992Y-101359674D01*
X109882006Y-101293848D01*
X109975098Y-101200756D01*
X110040924Y-101086742D01*
X110057962Y-101023157D01*
X110654475Y-101619670D01*
X110686858Y-101575100D01*
X110686863Y-101575092D01*
X110779756Y-101392777D01*
X110842991Y-101198162D01*
X110875000Y-100996065D01*
X110875000Y-100865635D01*
X113672500Y-100865635D01*
X113672500Y-101064364D01*
X113703586Y-101260633D01*
X113746837Y-101393749D01*
X113764995Y-101449632D01*
X113855213Y-101626694D01*
X113972019Y-101787464D01*
X114112536Y-101927981D01*
X114112539Y-101927983D01*
X114193651Y-101986915D01*
X114205463Y-101997003D01*
X114303053Y-102094592D01*
X114309671Y-102098506D01*
X114396381Y-102149787D01*
X114436844Y-102195683D01*
X114442602Y-102256597D01*
X114411456Y-102309261D01*
X114396381Y-102320213D01*
X114303055Y-102375406D01*
X114303053Y-102375407D01*
X114205463Y-102472996D01*
X114193651Y-102483084D01*
X114112541Y-102542014D01*
X113972018Y-102682537D01*
X113855211Y-102843308D01*
X113764994Y-103020369D01*
X113703586Y-103209366D01*
X113672500Y-103405635D01*
X113672500Y-103604364D01*
X113703586Y-103800633D01*
X113703587Y-103800636D01*
X113764995Y-103989632D01*
X113855213Y-104166694D01*
X113972019Y-104327464D01*
X114112536Y-104467981D01*
X114112539Y-104467983D01*
X114193651Y-104526915D01*
X114205463Y-104537003D01*
X114303053Y-104634592D01*
X114303055Y-104634593D01*
X114396381Y-104689787D01*
X114436844Y-104735683D01*
X114442602Y-104796597D01*
X114411456Y-104849261D01*
X114396381Y-104860213D01*
X114303055Y-104915406D01*
X114303053Y-104915407D01*
X114205463Y-105012996D01*
X114193651Y-105023084D01*
X114112541Y-105082014D01*
X113972018Y-105222537D01*
X113855211Y-105383308D01*
X113764994Y-105560369D01*
X113703586Y-105749366D01*
X113672500Y-105945635D01*
X113672500Y-106144364D01*
X113703586Y-106340633D01*
X113703587Y-106340636D01*
X113764995Y-106529632D01*
X113855213Y-106706694D01*
X113972019Y-106867464D01*
X114112536Y-107007981D01*
X114112539Y-107007983D01*
X114193651Y-107066915D01*
X114205463Y-107077003D01*
X114303053Y-107174592D01*
X114324155Y-107187072D01*
X114396381Y-107229787D01*
X114436844Y-107275683D01*
X114442602Y-107336597D01*
X114411456Y-107389261D01*
X114396381Y-107400213D01*
X114303055Y-107455406D01*
X114303053Y-107455407D01*
X114205463Y-107552996D01*
X114193651Y-107563084D01*
X114112541Y-107622014D01*
X113972018Y-107762537D01*
X113855211Y-107923308D01*
X113764994Y-108100369D01*
X113703586Y-108289366D01*
X113672500Y-108485635D01*
X113672500Y-108684364D01*
X113703586Y-108880633D01*
X113703587Y-108880636D01*
X113764995Y-109069632D01*
X113855213Y-109246694D01*
X113972019Y-109407464D01*
X114112536Y-109547981D01*
X114112539Y-109547983D01*
X114193651Y-109606915D01*
X114205463Y-109617003D01*
X114275775Y-109687314D01*
X114303053Y-109714592D01*
X114324155Y-109727072D01*
X114396381Y-109769787D01*
X114436844Y-109815683D01*
X114442602Y-109876597D01*
X114411456Y-109929261D01*
X114396381Y-109940213D01*
X114303055Y-109995406D01*
X114303053Y-109995407D01*
X114205463Y-110092996D01*
X114193651Y-110103084D01*
X114112541Y-110162014D01*
X113972018Y-110302537D01*
X113855211Y-110463308D01*
X113764994Y-110640369D01*
X113703586Y-110829366D01*
X113672500Y-111025635D01*
X113672500Y-111224364D01*
X113703586Y-111420633D01*
X113738772Y-111528927D01*
X113764995Y-111609632D01*
X113855213Y-111786694D01*
X113972019Y-111947464D01*
X114112536Y-112087981D01*
X114112539Y-112087983D01*
X114193651Y-112146915D01*
X114205463Y-112157003D01*
X114295748Y-112247287D01*
X114303053Y-112254592D01*
X114342930Y-112278175D01*
X114396872Y-112310077D01*
X114437335Y-112355972D01*
X114443093Y-112416886D01*
X114411947Y-112469551D01*
X114396873Y-112480503D01*
X114303363Y-112535804D01*
X114231360Y-112607805D01*
X114850906Y-113227352D01*
X114763429Y-113250792D01*
X114662070Y-113309311D01*
X114579311Y-113392070D01*
X114520792Y-113493429D01*
X114497352Y-113580907D01*
X113882728Y-112966283D01*
X113855641Y-113003567D01*
X113765459Y-113180559D01*
X113704073Y-113369485D01*
X113673000Y-113565674D01*
X113673000Y-113764325D01*
X113704073Y-113960514D01*
X113765459Y-114149440D01*
X113855637Y-114326425D01*
X113882729Y-114363714D01*
X114497351Y-113749091D01*
X114520792Y-113836571D01*
X114579311Y-113937930D01*
X114662070Y-114020689D01*
X114763429Y-114079208D01*
X114850905Y-114102647D01*
X114231361Y-114722192D01*
X114303363Y-114794194D01*
X114396872Y-114849495D01*
X114437335Y-114895391D01*
X114443093Y-114956305D01*
X114411947Y-115008970D01*
X114396873Y-115019922D01*
X114303052Y-115075408D01*
X114205463Y-115172996D01*
X114193651Y-115183084D01*
X114112541Y-115242014D01*
X113972018Y-115382537D01*
X113855211Y-115543308D01*
X113764994Y-115720369D01*
X113703586Y-115909366D01*
X113672500Y-116105635D01*
X113672500Y-116304364D01*
X113703586Y-116500633D01*
X113738772Y-116608927D01*
X113764995Y-116689632D01*
X113855213Y-116866694D01*
X113972019Y-117027464D01*
X114112536Y-117167981D01*
X114112539Y-117167983D01*
X114193651Y-117226915D01*
X114205463Y-117237003D01*
X114295748Y-117327287D01*
X114303053Y-117334592D01*
X114350382Y-117362582D01*
X114445037Y-117418562D01*
X114445038Y-117418562D01*
X114445041Y-117418564D01*
X114603452Y-117464587D01*
X114640466Y-117467500D01*
X114640471Y-117467500D01*
X116899529Y-117467500D01*
X116899534Y-117467500D01*
X116936548Y-117464587D01*
X117094959Y-117418564D01*
X117236947Y-117334592D01*
X117353592Y-117217947D01*
X117437564Y-117075959D01*
X117483587Y-116917548D01*
X117486500Y-116880534D01*
X117486500Y-115529466D01*
X117483587Y-115492452D01*
X117437564Y-115334041D01*
X117413335Y-115293073D01*
X117353594Y-115192056D01*
X117353593Y-115192055D01*
X117353592Y-115192053D01*
X117236947Y-115075408D01*
X117236944Y-115075406D01*
X117236943Y-115075405D01*
X117143127Y-115019922D01*
X117102664Y-114974026D01*
X117096906Y-114913112D01*
X117128052Y-114860448D01*
X117143127Y-114849495D01*
X117236636Y-114794194D01*
X117353196Y-114677634D01*
X117437100Y-114535761D01*
X117437100Y-114535760D01*
X117483089Y-114377467D01*
X117485999Y-114340475D01*
X117485999Y-112989524D01*
X117483088Y-112952531D01*
X117483087Y-112952526D01*
X117437100Y-112794238D01*
X117353196Y-112652365D01*
X117236634Y-112535803D01*
X117143127Y-112480503D01*
X117102664Y-112434607D01*
X117096906Y-112373694D01*
X117128052Y-112321029D01*
X117143117Y-112310083D01*
X117236947Y-112254592D01*
X117353592Y-112137947D01*
X117437564Y-111995959D01*
X117483587Y-111837548D01*
X117486500Y-111800534D01*
X117486500Y-110449466D01*
X117483587Y-110412452D01*
X117437564Y-110254041D01*
X117353592Y-110112053D01*
X117236947Y-109995408D01*
X117236944Y-109995406D01*
X117236943Y-109995405D01*
X117143618Y-109940213D01*
X117103155Y-109894318D01*
X117097397Y-109833404D01*
X117128543Y-109780739D01*
X117143618Y-109769787D01*
X117206538Y-109732576D01*
X117236947Y-109714592D01*
X117353592Y-109597947D01*
X117437564Y-109455959D01*
X117483587Y-109297548D01*
X117486500Y-109260534D01*
X117486500Y-107909466D01*
X117483587Y-107872452D01*
X117437564Y-107714041D01*
X117353592Y-107572053D01*
X117236947Y-107455408D01*
X117236944Y-107455406D01*
X117236943Y-107455405D01*
X117143618Y-107400213D01*
X117103155Y-107354318D01*
X117097397Y-107293404D01*
X117128543Y-107240739D01*
X117143618Y-107229787D01*
X117151625Y-107225051D01*
X117236947Y-107174592D01*
X117353592Y-107057947D01*
X117437564Y-106915959D01*
X117483587Y-106757548D01*
X117486500Y-106720534D01*
X117486500Y-105369466D01*
X117483587Y-105332452D01*
X117437564Y-105174041D01*
X117408136Y-105124282D01*
X117394790Y-105064571D01*
X117419090Y-105008418D01*
X117471755Y-104977272D01*
X117532669Y-104983030D01*
X117551539Y-104993794D01*
X117568390Y-105006037D01*
X117750781Y-105098970D01*
X117945466Y-105162227D01*
X117945467Y-105162227D01*
X117945470Y-105162228D01*
X118147645Y-105194250D01*
X118147648Y-105194250D01*
X118352355Y-105194250D01*
X118554529Y-105162228D01*
X118554530Y-105162227D01*
X118554534Y-105162227D01*
X118749219Y-105098970D01*
X118931610Y-105006037D01*
X119097219Y-104885716D01*
X119241966Y-104740969D01*
X119362287Y-104575360D01*
X119455220Y-104392969D01*
X119518477Y-104198284D01*
X119518478Y-104198279D01*
X119550500Y-103996105D01*
X119550500Y-103791394D01*
X121749500Y-103791394D01*
X121749500Y-103996105D01*
X121781521Y-104198279D01*
X121844780Y-104392969D01*
X121937712Y-104575359D01*
X121937714Y-104575363D01*
X122058029Y-104740963D01*
X122058031Y-104740965D01*
X122058034Y-104740969D01*
X122202781Y-104885716D01*
X122202784Y-104885718D01*
X122202786Y-104885720D01*
X122368386Y-105006035D01*
X122368390Y-105006037D01*
X122550781Y-105098970D01*
X122745466Y-105162227D01*
X122745467Y-105162227D01*
X122745470Y-105162228D01*
X122947645Y-105194250D01*
X122947648Y-105194250D01*
X123152355Y-105194250D01*
X123354529Y-105162228D01*
X123354530Y-105162227D01*
X123354534Y-105162227D01*
X123549219Y-105098970D01*
X123731610Y-105006037D01*
X123897219Y-104885716D01*
X124041966Y-104740969D01*
X124162287Y-104575360D01*
X124255220Y-104392969D01*
X124318477Y-104198284D01*
X124318478Y-104198279D01*
X124350500Y-103996105D01*
X124350500Y-103791394D01*
X124318478Y-103589220D01*
X124258829Y-103405639D01*
X124255220Y-103394531D01*
X124162287Y-103212140D01*
X124162285Y-103212136D01*
X124041970Y-103046536D01*
X124041968Y-103046534D01*
X124041966Y-103046531D01*
X123897219Y-102901784D01*
X123897215Y-102901781D01*
X123897213Y-102901779D01*
X123731613Y-102781464D01*
X123731609Y-102781462D01*
X123549219Y-102688530D01*
X123354529Y-102625271D01*
X123152355Y-102593250D01*
X123152352Y-102593250D01*
X122947648Y-102593250D01*
X122947645Y-102593250D01*
X122745470Y-102625271D01*
X122550780Y-102688530D01*
X122368390Y-102781462D01*
X122368386Y-102781464D01*
X122202786Y-102901779D01*
X122058029Y-103046536D01*
X121937714Y-103212136D01*
X121937712Y-103212140D01*
X121844780Y-103394530D01*
X121781521Y-103589220D01*
X121749500Y-103791394D01*
X119550500Y-103791394D01*
X119518478Y-103589220D01*
X119458829Y-103405639D01*
X119455220Y-103394531D01*
X119362287Y-103212140D01*
X119362285Y-103212136D01*
X119241970Y-103046536D01*
X119241968Y-103046534D01*
X119241966Y-103046531D01*
X119097219Y-102901784D01*
X119097215Y-102901781D01*
X119097213Y-102901779D01*
X118931613Y-102781464D01*
X118931609Y-102781462D01*
X118749219Y-102688530D01*
X118554529Y-102625271D01*
X118352355Y-102593250D01*
X118352352Y-102593250D01*
X118147648Y-102593250D01*
X118147645Y-102593250D01*
X117945470Y-102625271D01*
X117750780Y-102688530D01*
X117598367Y-102766188D01*
X117537935Y-102775759D01*
X117483418Y-102747981D01*
X117458353Y-102705598D01*
X117437564Y-102634041D01*
X117432377Y-102625271D01*
X117353594Y-102492056D01*
X117353593Y-102492055D01*
X117353592Y-102492053D01*
X117236947Y-102375408D01*
X117236944Y-102375406D01*
X117236943Y-102375405D01*
X117143618Y-102320213D01*
X117103155Y-102274318D01*
X117097397Y-102213404D01*
X117128543Y-102160739D01*
X117143618Y-102149787D01*
X117151625Y-102145051D01*
X117236947Y-102094592D01*
X117353592Y-101977947D01*
X117353595Y-101977942D01*
X117357410Y-101973025D01*
X117359423Y-101974587D01*
X117397264Y-101941204D01*
X117458176Y-101935425D01*
X117494805Y-101951956D01*
X117568652Y-102005610D01*
X117568651Y-102005610D01*
X117750972Y-102098506D01*
X117945587Y-102161741D01*
X118147685Y-102193750D01*
X118352315Y-102193750D01*
X118554412Y-102161741D01*
X118749027Y-102098506D01*
X118931342Y-102005613D01*
X118931350Y-102005608D01*
X118975920Y-101973225D01*
X118379407Y-101376711D01*
X118442992Y-101359674D01*
X118557006Y-101293848D01*
X118650098Y-101200756D01*
X118715924Y-101086742D01*
X118732962Y-101023157D01*
X119329475Y-101619670D01*
X119361858Y-101575100D01*
X119361863Y-101575092D01*
X119454756Y-101392777D01*
X119517991Y-101198162D01*
X119550000Y-100996065D01*
X119550000Y-100791434D01*
X121750000Y-100791434D01*
X121750000Y-100996065D01*
X121782008Y-101198162D01*
X121845243Y-101392777D01*
X121938139Y-101575098D01*
X121938143Y-101575103D01*
X121970523Y-101619670D01*
X121970524Y-101619670D01*
X122567037Y-101023156D01*
X122584076Y-101086742D01*
X122649902Y-101200756D01*
X122742994Y-101293848D01*
X122857008Y-101359674D01*
X122920591Y-101376711D01*
X122324078Y-101973225D01*
X122368647Y-102005608D01*
X122550972Y-102098506D01*
X122745587Y-102161741D01*
X122947685Y-102193750D01*
X123152315Y-102193750D01*
X123354412Y-102161741D01*
X123549027Y-102098506D01*
X123731342Y-102005613D01*
X123731350Y-102005608D01*
X123775920Y-101973225D01*
X123179407Y-101376712D01*
X123242992Y-101359674D01*
X123357006Y-101293848D01*
X123450098Y-101200756D01*
X123515924Y-101086742D01*
X123532962Y-101023157D01*
X124129475Y-101619670D01*
X124161858Y-101575100D01*
X124161863Y-101575092D01*
X124254756Y-101392777D01*
X124317991Y-101198162D01*
X124350000Y-100996065D01*
X124350000Y-100791434D01*
X124317991Y-100589337D01*
X124254756Y-100394722D01*
X124161858Y-100212397D01*
X124129475Y-100167828D01*
X123532961Y-100764341D01*
X123515924Y-100700758D01*
X123450098Y-100586744D01*
X123357006Y-100493652D01*
X123242992Y-100427826D01*
X123179406Y-100410787D01*
X123775920Y-99814274D01*
X123775920Y-99814273D01*
X123731353Y-99781893D01*
X123731348Y-99781889D01*
X123549027Y-99688993D01*
X123354412Y-99625758D01*
X123152315Y-99593750D01*
X122947685Y-99593750D01*
X122745587Y-99625758D01*
X122550972Y-99688993D01*
X122368651Y-99781889D01*
X122368647Y-99781891D01*
X122324078Y-99814273D01*
X122920592Y-100410787D01*
X122857008Y-100427826D01*
X122742994Y-100493652D01*
X122649902Y-100586744D01*
X122584076Y-100700758D01*
X122567037Y-100764342D01*
X121970523Y-100167828D01*
X121938141Y-100212397D01*
X121938139Y-100212401D01*
X121845243Y-100394722D01*
X121782008Y-100589337D01*
X121750000Y-100791434D01*
X119550000Y-100791434D01*
X119517991Y-100589337D01*
X119454756Y-100394722D01*
X119361858Y-100212397D01*
X119329475Y-100167828D01*
X118732961Y-100764341D01*
X118715924Y-100700758D01*
X118650098Y-100586744D01*
X118557006Y-100493652D01*
X118442992Y-100427826D01*
X118379406Y-100410787D01*
X118975920Y-99814273D01*
X118931353Y-99781893D01*
X118931348Y-99781889D01*
X118749027Y-99688993D01*
X118554412Y-99625758D01*
X118352315Y-99593750D01*
X118147685Y-99593750D01*
X117945587Y-99625758D01*
X117750972Y-99688993D01*
X117568653Y-99781888D01*
X117413940Y-99894295D01*
X117355749Y-99913202D01*
X117297558Y-99894295D01*
X117285746Y-99884206D01*
X117236946Y-99835407D01*
X117236944Y-99835406D01*
X117094962Y-99751437D01*
X117094959Y-99751436D01*
X116936548Y-99705413D01*
X116936547Y-99705412D01*
X116936544Y-99705412D01*
X116913031Y-99703562D01*
X116899534Y-99702500D01*
X114640466Y-99702500D01*
X114627886Y-99703490D01*
X114603455Y-99705412D01*
X114603448Y-99705414D01*
X114445041Y-99751436D01*
X114445037Y-99751437D01*
X114303055Y-99835406D01*
X114303053Y-99835407D01*
X114205463Y-99932996D01*
X114193651Y-99943084D01*
X114112541Y-100002014D01*
X113972018Y-100142537D01*
X113855211Y-100303308D01*
X113764994Y-100480369D01*
X113703586Y-100669366D01*
X113672500Y-100865635D01*
X110875000Y-100865635D01*
X110875000Y-100791434D01*
X110842991Y-100589337D01*
X110779756Y-100394722D01*
X110686858Y-100212397D01*
X110654475Y-100167828D01*
X110057961Y-100764341D01*
X110040924Y-100700758D01*
X109975098Y-100586744D01*
X109882006Y-100493652D01*
X109767992Y-100427826D01*
X109704406Y-100410787D01*
X110300920Y-99814274D01*
X110300920Y-99814273D01*
X110256353Y-99781893D01*
X110256348Y-99781889D01*
X110074027Y-99688993D01*
X109879412Y-99625758D01*
X109677315Y-99593750D01*
X109472685Y-99593750D01*
X109270587Y-99625758D01*
X109075972Y-99688993D01*
X108893651Y-99781889D01*
X108893647Y-99781891D01*
X108849078Y-99814273D01*
X109445592Y-100410787D01*
X109382008Y-100427826D01*
X109267994Y-100493652D01*
X109174902Y-100586744D01*
X109109076Y-100700758D01*
X109092037Y-100764342D01*
X108495523Y-100167828D01*
X108463141Y-100212397D01*
X108463139Y-100212401D01*
X108370243Y-100394722D01*
X108307008Y-100589337D01*
X108275000Y-100791434D01*
X106075000Y-100791434D01*
X106042991Y-100589337D01*
X105979756Y-100394722D01*
X105886858Y-100212397D01*
X105854475Y-100167828D01*
X105257961Y-100764341D01*
X105240924Y-100700758D01*
X105175098Y-100586744D01*
X105082006Y-100493652D01*
X104967992Y-100427826D01*
X104904406Y-100410787D01*
X105500920Y-99814274D01*
X105500920Y-99814273D01*
X105456353Y-99781893D01*
X105456348Y-99781889D01*
X105274027Y-99688993D01*
X105079412Y-99625758D01*
X104877315Y-99593750D01*
X104672685Y-99593750D01*
X104470587Y-99625758D01*
X104275972Y-99688993D01*
X104093651Y-99781889D01*
X104093647Y-99781891D01*
X104049078Y-99814273D01*
X104645592Y-100410787D01*
X104582008Y-100427826D01*
X104467994Y-100493652D01*
X104374902Y-100586744D01*
X104309076Y-100700758D01*
X104292037Y-100764342D01*
X103695523Y-100167828D01*
X103663141Y-100212397D01*
X103663139Y-100212401D01*
X103570243Y-100394722D01*
X103507008Y-100589337D01*
X103475000Y-100791434D01*
X100945748Y-100791434D01*
X100926413Y-100669366D01*
X100926413Y-100669364D01*
X100865005Y-100480368D01*
X100774787Y-100303306D01*
X100657981Y-100142536D01*
X100517464Y-100002019D01*
X100517460Y-100002016D01*
X100517458Y-100002014D01*
X100436347Y-99943083D01*
X100424534Y-99932995D01*
X100413548Y-99922009D01*
X100413546Y-99922006D01*
X100326946Y-99835407D01*
X100326944Y-99835406D01*
X100184962Y-99751437D01*
X100184959Y-99751436D01*
X100026548Y-99705413D01*
X100026547Y-99705412D01*
X100026544Y-99705412D01*
X100003031Y-99703562D01*
X99989534Y-99702500D01*
X97730466Y-99702500D01*
X97717886Y-99703490D01*
X97693455Y-99705412D01*
X97693448Y-99705414D01*
X97535041Y-99751436D01*
X97535037Y-99751437D01*
X97393055Y-99835406D01*
X97393053Y-99835407D01*
X97344254Y-99884206D01*
X97289737Y-99911983D01*
X97229305Y-99902411D01*
X97216060Y-99894295D01*
X97061346Y-99781888D01*
X96879027Y-99688993D01*
X96684412Y-99625758D01*
X96482315Y-99593750D01*
X96277685Y-99593750D01*
X96075587Y-99625758D01*
X95880972Y-99688993D01*
X95698651Y-99781889D01*
X95698647Y-99781891D01*
X95654078Y-99814273D01*
X96250592Y-100410788D01*
X96187008Y-100427826D01*
X96072994Y-100493652D01*
X95979902Y-100586744D01*
X95914076Y-100700758D01*
X95897037Y-100764342D01*
X95300523Y-100167828D01*
X95268141Y-100212397D01*
X95268139Y-100212401D01*
X95175243Y-100394722D01*
X95112008Y-100589337D01*
X95080000Y-100791434D01*
X95080000Y-100996065D01*
X95112008Y-101198162D01*
X95175243Y-101392777D01*
X95268139Y-101575098D01*
X95268143Y-101575103D01*
X95300523Y-101619670D01*
X95300524Y-101619670D01*
X95897037Y-101023156D01*
X95914076Y-101086742D01*
X95979902Y-101200756D01*
X96072994Y-101293848D01*
X96187008Y-101359674D01*
X96250591Y-101376711D01*
X95654078Y-101973225D01*
X95698647Y-102005608D01*
X95880972Y-102098506D01*
X96075587Y-102161741D01*
X96277685Y-102193750D01*
X96482315Y-102193750D01*
X96684412Y-102161741D01*
X96879027Y-102098506D01*
X97061348Y-102005610D01*
X97135194Y-101951957D01*
X97193385Y-101933049D01*
X97251576Y-101951956D01*
X97271508Y-101973858D01*
X97272587Y-101973022D01*
X97276402Y-101977940D01*
X97276406Y-101977944D01*
X97276408Y-101977947D01*
X97393053Y-102094592D01*
X97393055Y-102094593D01*
X97393056Y-102094594D01*
X97486381Y-102149787D01*
X97526844Y-102195683D01*
X97532602Y-102256597D01*
X97501456Y-102309261D01*
X97486381Y-102320213D01*
X97393056Y-102375405D01*
X97276405Y-102492056D01*
X97192437Y-102634037D01*
X97192436Y-102634039D01*
X97171646Y-102705599D01*
X97137254Y-102756204D01*
X97079686Y-102776929D01*
X97031632Y-102766188D01*
X96879219Y-102688530D01*
X96684529Y-102625271D01*
X96482355Y-102593250D01*
X96482352Y-102593250D01*
X96277648Y-102593250D01*
X96277645Y-102593250D01*
X96075470Y-102625271D01*
X95880780Y-102688530D01*
X95698390Y-102781462D01*
X95698386Y-102781464D01*
X95532786Y-102901779D01*
X95388029Y-103046536D01*
X95267714Y-103212136D01*
X95267712Y-103212140D01*
X95174780Y-103394530D01*
X95111521Y-103589220D01*
X95079500Y-103791394D01*
X92880500Y-103791394D01*
X92848478Y-103589220D01*
X92788829Y-103405639D01*
X92785220Y-103394531D01*
X92692287Y-103212140D01*
X92692285Y-103212136D01*
X92571970Y-103046536D01*
X92571968Y-103046534D01*
X92571966Y-103046531D01*
X92427219Y-102901784D01*
X92427215Y-102901781D01*
X92427213Y-102901779D01*
X92261613Y-102781464D01*
X92261609Y-102781462D01*
X92079219Y-102688530D01*
X91884529Y-102625271D01*
X91682355Y-102593250D01*
X91682352Y-102593250D01*
X91477648Y-102593250D01*
X91477645Y-102593250D01*
X91275470Y-102625271D01*
X91080780Y-102688530D01*
X90898390Y-102781462D01*
X90898386Y-102781464D01*
X90732786Y-102901779D01*
X90588029Y-103046536D01*
X90467714Y-103212136D01*
X90467712Y-103212140D01*
X90374780Y-103394530D01*
X90311521Y-103589220D01*
X90279500Y-103791394D01*
X79875500Y-103791394D01*
X79875500Y-100791434D01*
X90280000Y-100791434D01*
X90280000Y-100996065D01*
X90312008Y-101198162D01*
X90375243Y-101392777D01*
X90468139Y-101575098D01*
X90468143Y-101575103D01*
X90500523Y-101619670D01*
X90500524Y-101619670D01*
X91097037Y-101023156D01*
X91114076Y-101086742D01*
X91179902Y-101200756D01*
X91272994Y-101293848D01*
X91387008Y-101359674D01*
X91450591Y-101376711D01*
X90854078Y-101973225D01*
X90898647Y-102005608D01*
X91080972Y-102098506D01*
X91275587Y-102161741D01*
X91477685Y-102193750D01*
X91682315Y-102193750D01*
X91884412Y-102161741D01*
X92079027Y-102098506D01*
X92261342Y-102005613D01*
X92261350Y-102005608D01*
X92305920Y-101973225D01*
X91709407Y-101376712D01*
X91772992Y-101359674D01*
X91887006Y-101293848D01*
X91980098Y-101200756D01*
X92045924Y-101086742D01*
X92062962Y-101023157D01*
X92659475Y-101619670D01*
X92691858Y-101575100D01*
X92691863Y-101575092D01*
X92784756Y-101392777D01*
X92847991Y-101198162D01*
X92880000Y-100996065D01*
X92880000Y-100791434D01*
X92847991Y-100589337D01*
X92784756Y-100394722D01*
X92691858Y-100212397D01*
X92659475Y-100167828D01*
X92062961Y-100764341D01*
X92045924Y-100700758D01*
X91980098Y-100586744D01*
X91887006Y-100493652D01*
X91772992Y-100427826D01*
X91709406Y-100410787D01*
X92305920Y-99814274D01*
X92305920Y-99814273D01*
X92261353Y-99781893D01*
X92261348Y-99781889D01*
X92079027Y-99688993D01*
X91884412Y-99625758D01*
X91682315Y-99593750D01*
X91477685Y-99593750D01*
X91275587Y-99625758D01*
X91080972Y-99688993D01*
X90898651Y-99781889D01*
X90898647Y-99781891D01*
X90854078Y-99814273D01*
X91450592Y-100410787D01*
X91387008Y-100427826D01*
X91272994Y-100493652D01*
X91179902Y-100586744D01*
X91114076Y-100700758D01*
X91097037Y-100764342D01*
X90500523Y-100167828D01*
X90468141Y-100212397D01*
X90468139Y-100212401D01*
X90375243Y-100394722D01*
X90312008Y-100589337D01*
X90280000Y-100791434D01*
X79875500Y-100791434D01*
X79875500Y-94679215D01*
X89824500Y-94679215D01*
X89824500Y-94980784D01*
X89863861Y-95279760D01*
X89863861Y-95279765D01*
X89865357Y-95285347D01*
X89916561Y-95476445D01*
X89941911Y-95571050D01*
X89941915Y-95571063D01*
X90057313Y-95849660D01*
X90057315Y-95849663D01*
X90057317Y-95849668D01*
X90157386Y-96022992D01*
X90208102Y-96110835D01*
X90391675Y-96350073D01*
X90391677Y-96350075D01*
X90391681Y-96350080D01*
X90604920Y-96563319D01*
X90604924Y-96563322D01*
X90604926Y-96563324D01*
X90831895Y-96737483D01*
X90844168Y-96746900D01*
X91105332Y-96897683D01*
X91383942Y-97013087D01*
X91675232Y-97091138D01*
X91974217Y-97130500D01*
X91974218Y-97130500D01*
X92275782Y-97130500D01*
X92275783Y-97130500D01*
X92574768Y-97091138D01*
X92866058Y-97013087D01*
X93144668Y-96897683D01*
X93405832Y-96746900D01*
X93645080Y-96563319D01*
X93858319Y-96350080D01*
X94041900Y-96110832D01*
X94192683Y-95849668D01*
X94204036Y-95822260D01*
X94243772Y-95775734D01*
X94303267Y-95761450D01*
X94359795Y-95784864D01*
X94391764Y-95837033D01*
X94394500Y-95860145D01*
X94394500Y-95932355D01*
X94426521Y-96134529D01*
X94489780Y-96329219D01*
X94582712Y-96511609D01*
X94582714Y-96511613D01*
X94703029Y-96677213D01*
X94703031Y-96677215D01*
X94703034Y-96677219D01*
X94847781Y-96821966D01*
X94847784Y-96821968D01*
X94847786Y-96821970D01*
X95013386Y-96942285D01*
X95013390Y-96942287D01*
X95195781Y-97035220D01*
X95390466Y-97098477D01*
X95390467Y-97098477D01*
X95390470Y-97098478D01*
X95592645Y-97130500D01*
X95592648Y-97130500D01*
X95797355Y-97130500D01*
X95999529Y-97098478D01*
X95999530Y-97098477D01*
X95999534Y-97098477D01*
X96194219Y-97035220D01*
X96376610Y-96942287D01*
X96377201Y-96941858D01*
X96431813Y-96902180D01*
X96542219Y-96821966D01*
X96686966Y-96677219D01*
X96807287Y-96511610D01*
X96876790Y-96375201D01*
X96920055Y-96331937D01*
X96980487Y-96322366D01*
X97035003Y-96350143D01*
X97053210Y-96375202D01*
X97122712Y-96511609D01*
X97122714Y-96511613D01*
X97243029Y-96677213D01*
X97243031Y-96677215D01*
X97243034Y-96677219D01*
X97387781Y-96821966D01*
X97387784Y-96821968D01*
X97387786Y-96821970D01*
X97553386Y-96942285D01*
X97553390Y-96942287D01*
X97735781Y-97035220D01*
X97930466Y-97098477D01*
X97930467Y-97098477D01*
X97930470Y-97098478D01*
X98132645Y-97130500D01*
X98132648Y-97130500D01*
X98337355Y-97130500D01*
X98539529Y-97098478D01*
X98539530Y-97098477D01*
X98539534Y-97098477D01*
X98734219Y-97035220D01*
X98916610Y-96942287D01*
X98917201Y-96941858D01*
X98971813Y-96902180D01*
X99082219Y-96821966D01*
X99226966Y-96677219D01*
X99347287Y-96511610D01*
X99416790Y-96375201D01*
X99460055Y-96331937D01*
X99520487Y-96322366D01*
X99575003Y-96350143D01*
X99593210Y-96375202D01*
X99662712Y-96511609D01*
X99662714Y-96511613D01*
X99783029Y-96677213D01*
X99783031Y-96677215D01*
X99783034Y-96677219D01*
X99927781Y-96821966D01*
X99927784Y-96821968D01*
X99927786Y-96821970D01*
X100093386Y-96942285D01*
X100093390Y-96942287D01*
X100275781Y-97035220D01*
X100470466Y-97098477D01*
X100470467Y-97098477D01*
X100470470Y-97098478D01*
X100672645Y-97130500D01*
X100672648Y-97130500D01*
X100877355Y-97130500D01*
X101079529Y-97098478D01*
X101079530Y-97098477D01*
X101079534Y-97098477D01*
X101274219Y-97035220D01*
X101456610Y-96942287D01*
X101457201Y-96941858D01*
X101511813Y-96902180D01*
X101622219Y-96821966D01*
X101766966Y-96677219D01*
X101887287Y-96511610D01*
X101956790Y-96375201D01*
X102000055Y-96331937D01*
X102060487Y-96322366D01*
X102115003Y-96350143D01*
X102133210Y-96375202D01*
X102202712Y-96511609D01*
X102202714Y-96511613D01*
X102323029Y-96677213D01*
X102323031Y-96677215D01*
X102323034Y-96677219D01*
X102467781Y-96821966D01*
X102467784Y-96821968D01*
X102467786Y-96821970D01*
X102633386Y-96942285D01*
X102633390Y-96942287D01*
X102815781Y-97035220D01*
X103010466Y-97098477D01*
X103010467Y-97098477D01*
X103010470Y-97098478D01*
X103212645Y-97130500D01*
X103212648Y-97130500D01*
X103417355Y-97130500D01*
X103619529Y-97098478D01*
X103619530Y-97098477D01*
X103619534Y-97098477D01*
X103814219Y-97035220D01*
X103996610Y-96942287D01*
X103997201Y-96941858D01*
X104051813Y-96902180D01*
X104162219Y-96821966D01*
X104306966Y-96677219D01*
X104427287Y-96511610D01*
X104496790Y-96375201D01*
X104540055Y-96331937D01*
X104600487Y-96322366D01*
X104655003Y-96350143D01*
X104673210Y-96375202D01*
X104742712Y-96511609D01*
X104742714Y-96511613D01*
X104863029Y-96677213D01*
X104863031Y-96677215D01*
X104863034Y-96677219D01*
X105007781Y-96821966D01*
X105007784Y-96821968D01*
X105007786Y-96821970D01*
X105173386Y-96942285D01*
X105173390Y-96942287D01*
X105355781Y-97035220D01*
X105550466Y-97098477D01*
X105550467Y-97098477D01*
X105550470Y-97098478D01*
X105752645Y-97130500D01*
X105752648Y-97130500D01*
X105957355Y-97130500D01*
X106159529Y-97098478D01*
X106159530Y-97098477D01*
X106159534Y-97098477D01*
X106354219Y-97035220D01*
X106536610Y-96942287D01*
X106537201Y-96941858D01*
X106591813Y-96902180D01*
X106702219Y-96821966D01*
X106846966Y-96677219D01*
X106967287Y-96511610D01*
X107036790Y-96375201D01*
X107080055Y-96331937D01*
X107140487Y-96322366D01*
X107195003Y-96350143D01*
X107213210Y-96375202D01*
X107282712Y-96511609D01*
X107282714Y-96511613D01*
X107403029Y-96677213D01*
X107403031Y-96677215D01*
X107403034Y-96677219D01*
X107547781Y-96821966D01*
X107547784Y-96821968D01*
X107547786Y-96821970D01*
X107713386Y-96942285D01*
X107713390Y-96942287D01*
X107895781Y-97035220D01*
X108090466Y-97098477D01*
X108090467Y-97098477D01*
X108090470Y-97098478D01*
X108292645Y-97130500D01*
X108292648Y-97130500D01*
X108497355Y-97130500D01*
X108699529Y-97098478D01*
X108699530Y-97098477D01*
X108699534Y-97098477D01*
X108894219Y-97035220D01*
X109076610Y-96942287D01*
X109077201Y-96941858D01*
X109131813Y-96902180D01*
X109242219Y-96821966D01*
X109386966Y-96677219D01*
X109507287Y-96511610D01*
X109576790Y-96375201D01*
X109620055Y-96331937D01*
X109680487Y-96322366D01*
X109735003Y-96350143D01*
X109753210Y-96375202D01*
X109822712Y-96511609D01*
X109822714Y-96511613D01*
X109943029Y-96677213D01*
X109943031Y-96677215D01*
X109943034Y-96677219D01*
X110087781Y-96821966D01*
X110087784Y-96821968D01*
X110087786Y-96821970D01*
X110253386Y-96942285D01*
X110253390Y-96942287D01*
X110435781Y-97035220D01*
X110630466Y-97098477D01*
X110630467Y-97098477D01*
X110630470Y-97098478D01*
X110832645Y-97130500D01*
X110832648Y-97130500D01*
X111037355Y-97130500D01*
X111239529Y-97098478D01*
X111239530Y-97098477D01*
X111239534Y-97098477D01*
X111434219Y-97035220D01*
X111616610Y-96942287D01*
X111617201Y-96941858D01*
X111671813Y-96902180D01*
X111782219Y-96821966D01*
X111926966Y-96677219D01*
X112047287Y-96511610D01*
X112116790Y-96375201D01*
X112160055Y-96331937D01*
X112220487Y-96322366D01*
X112275003Y-96350143D01*
X112293210Y-96375202D01*
X112362712Y-96511609D01*
X112362714Y-96511613D01*
X112483029Y-96677213D01*
X112483031Y-96677215D01*
X112483034Y-96677219D01*
X112627781Y-96821966D01*
X112627784Y-96821968D01*
X112627786Y-96821970D01*
X112793386Y-96942285D01*
X112793390Y-96942287D01*
X112975781Y-97035220D01*
X113170466Y-97098477D01*
X113170467Y-97098477D01*
X113170470Y-97098478D01*
X113372645Y-97130500D01*
X113372648Y-97130500D01*
X113577355Y-97130500D01*
X113779529Y-97098478D01*
X113779530Y-97098477D01*
X113779534Y-97098477D01*
X113974219Y-97035220D01*
X114156610Y-96942287D01*
X114157201Y-96941858D01*
X114211813Y-96902180D01*
X114322219Y-96821966D01*
X114466966Y-96677219D01*
X114587287Y-96511610D01*
X114657071Y-96374650D01*
X114700335Y-96331388D01*
X114760767Y-96321816D01*
X114815283Y-96349593D01*
X114833490Y-96374652D01*
X114903139Y-96511348D01*
X114903143Y-96511353D01*
X114935523Y-96555920D01*
X114935524Y-96555920D01*
X115532037Y-95959406D01*
X115549076Y-96022992D01*
X115614902Y-96137006D01*
X115707994Y-96230098D01*
X115822008Y-96295924D01*
X115885591Y-96312961D01*
X115289078Y-96909475D01*
X115333647Y-96941858D01*
X115515972Y-97034756D01*
X115710587Y-97097991D01*
X115912685Y-97130000D01*
X116117315Y-97130000D01*
X116319412Y-97097991D01*
X116514027Y-97034756D01*
X116696342Y-96941863D01*
X116696350Y-96941858D01*
X116740920Y-96909475D01*
X116144407Y-96312962D01*
X116207992Y-96295924D01*
X116322006Y-96230098D01*
X116415098Y-96137006D01*
X116480924Y-96022992D01*
X116497962Y-95959407D01*
X117094475Y-96555920D01*
X117113595Y-96554416D01*
X117124902Y-96546201D01*
X117186087Y-96546198D01*
X117235589Y-96582159D01*
X117254500Y-96640348D01*
X117254500Y-96677865D01*
X117254501Y-96677870D01*
X117260908Y-96737480D01*
X117260909Y-96737485D01*
X117311202Y-96872329D01*
X117363573Y-96942287D01*
X117397454Y-96987546D01*
X117397457Y-96987548D01*
X117397458Y-96987549D01*
X117512670Y-97073797D01*
X117647511Y-97124089D01*
X117647512Y-97124089D01*
X117647517Y-97124091D01*
X117707127Y-97130500D01*
X119402872Y-97130499D01*
X119462483Y-97124091D01*
X119550835Y-97091138D01*
X119597329Y-97073797D01*
X119597329Y-97073796D01*
X119597331Y-97073796D01*
X119712546Y-96987546D01*
X119798796Y-96872331D01*
X119817580Y-96821970D01*
X119849089Y-96737488D01*
X119849090Y-96737485D01*
X119849091Y-96737483D01*
X119855500Y-96677873D01*
X119855499Y-95860142D01*
X119874406Y-95801953D01*
X119923906Y-95765989D01*
X119985092Y-95765989D01*
X120034592Y-95801953D01*
X120045963Y-95822258D01*
X120057314Y-95849663D01*
X120208102Y-96110835D01*
X120391675Y-96350073D01*
X120391677Y-96350075D01*
X120391681Y-96350080D01*
X120604920Y-96563319D01*
X120604924Y-96563322D01*
X120604926Y-96563324D01*
X120831895Y-96737483D01*
X120844168Y-96746900D01*
X121105332Y-96897683D01*
X121383942Y-97013087D01*
X121675232Y-97091138D01*
X121974217Y-97130500D01*
X121974218Y-97130500D01*
X122275782Y-97130500D01*
X122275783Y-97130500D01*
X122574768Y-97091138D01*
X122866058Y-97013087D01*
X123144668Y-96897683D01*
X123405832Y-96746900D01*
X123645080Y-96563319D01*
X123858319Y-96350080D01*
X124041900Y-96110832D01*
X124192683Y-95849668D01*
X124308087Y-95571058D01*
X124386138Y-95279768D01*
X124425500Y-94980783D01*
X124425500Y-94679217D01*
X124386138Y-94380232D01*
X124308087Y-94088942D01*
X124192683Y-93810332D01*
X124041900Y-93549168D01*
X123858319Y-93309920D01*
X123645080Y-93096681D01*
X123645075Y-93096677D01*
X123645073Y-93096675D01*
X123405835Y-92913102D01*
X123405832Y-92913100D01*
X123144668Y-92762317D01*
X123144664Y-92762315D01*
X123144660Y-92762313D01*
X122866063Y-92646915D01*
X122866062Y-92646914D01*
X122866058Y-92646913D01*
X122574768Y-92568862D01*
X122574765Y-92568861D01*
X122574763Y-92568861D01*
X122275784Y-92529500D01*
X122275783Y-92529500D01*
X121974217Y-92529500D01*
X121974215Y-92529500D01*
X121675239Y-92568861D01*
X121675234Y-92568861D01*
X121383949Y-92646911D01*
X121383936Y-92646915D01*
X121105339Y-92762313D01*
X120844164Y-92913102D01*
X120604926Y-93096675D01*
X120391675Y-93309926D01*
X120208102Y-93549164D01*
X120057313Y-93810339D01*
X119941915Y-94088936D01*
X119941911Y-94088949D01*
X119863861Y-94380234D01*
X119863861Y-94380239D01*
X119837344Y-94581655D01*
X119811003Y-94636880D01*
X119757232Y-94666075D01*
X119696570Y-94658089D01*
X119679862Y-94647986D01*
X119597329Y-94586202D01*
X119462488Y-94535910D01*
X119462483Y-94535909D01*
X119462481Y-94535908D01*
X119462477Y-94535908D01*
X119431249Y-94532550D01*
X119402873Y-94529500D01*
X119402870Y-94529500D01*
X117707133Y-94529500D01*
X117707129Y-94529500D01*
X117707128Y-94529501D01*
X117702486Y-94530000D01*
X117647519Y-94535908D01*
X117647514Y-94535909D01*
X117512670Y-94586202D01*
X117397458Y-94672450D01*
X117397450Y-94672458D01*
X117311202Y-94787670D01*
X117260910Y-94922511D01*
X117260909Y-94922517D01*
X117254645Y-94980784D01*
X117254500Y-94982129D01*
X117254500Y-95019644D01*
X117235593Y-95077835D01*
X117186093Y-95113799D01*
X117124907Y-95113799D01*
X117113599Y-95105583D01*
X117094475Y-95104078D01*
X116497961Y-95700591D01*
X116480924Y-95637008D01*
X116415098Y-95522994D01*
X116322006Y-95429902D01*
X116207992Y-95364076D01*
X116144406Y-95347037D01*
X116740920Y-94750524D01*
X116740920Y-94750523D01*
X116696353Y-94718143D01*
X116696348Y-94718139D01*
X116514027Y-94625243D01*
X116319412Y-94562008D01*
X116117315Y-94530000D01*
X115912685Y-94530000D01*
X115710587Y-94562008D01*
X115515972Y-94625243D01*
X115333651Y-94718139D01*
X115333647Y-94718141D01*
X115289078Y-94750523D01*
X115885592Y-95347037D01*
X115822008Y-95364076D01*
X115707994Y-95429902D01*
X115614902Y-95522994D01*
X115549076Y-95637008D01*
X115532037Y-95700592D01*
X114935523Y-95104078D01*
X114903141Y-95148647D01*
X114903139Y-95148651D01*
X114833490Y-95285347D01*
X114790225Y-95328612D01*
X114729793Y-95338183D01*
X114675276Y-95310406D01*
X114657070Y-95285347D01*
X114654227Y-95279768D01*
X114587287Y-95148390D01*
X114587285Y-95148386D01*
X114466970Y-94982786D01*
X114466967Y-94982783D01*
X114466966Y-94982781D01*
X114322219Y-94838034D01*
X114322215Y-94838031D01*
X114322213Y-94838029D01*
X114156613Y-94717714D01*
X114156609Y-94717712D01*
X113974219Y-94624780D01*
X113779529Y-94561521D01*
X113577355Y-94529500D01*
X113577352Y-94529500D01*
X113372648Y-94529500D01*
X113372645Y-94529500D01*
X113170470Y-94561521D01*
X112975780Y-94624780D01*
X112793390Y-94717712D01*
X112793386Y-94717714D01*
X112627786Y-94838029D01*
X112483029Y-94982786D01*
X112362714Y-95148386D01*
X112362712Y-95148390D01*
X112293210Y-95284797D01*
X112249945Y-95328062D01*
X112189513Y-95337633D01*
X112134996Y-95309856D01*
X112116790Y-95284797D01*
X112047287Y-95148390D01*
X112047285Y-95148386D01*
X111926970Y-94982786D01*
X111926967Y-94982783D01*
X111926966Y-94982781D01*
X111782219Y-94838034D01*
X111782215Y-94838031D01*
X111782213Y-94838029D01*
X111616613Y-94717714D01*
X111616609Y-94717712D01*
X111434219Y-94624780D01*
X111239529Y-94561521D01*
X111037355Y-94529500D01*
X111037352Y-94529500D01*
X110832648Y-94529500D01*
X110832645Y-94529500D01*
X110630470Y-94561521D01*
X110435780Y-94624780D01*
X110253390Y-94717712D01*
X110253386Y-94717714D01*
X110087786Y-94838029D01*
X109943029Y-94982786D01*
X109822714Y-95148386D01*
X109822712Y-95148390D01*
X109753210Y-95284797D01*
X109709945Y-95328062D01*
X109649513Y-95337633D01*
X109594996Y-95309856D01*
X109576790Y-95284797D01*
X109507287Y-95148390D01*
X109507285Y-95148386D01*
X109386970Y-94982786D01*
X109386967Y-94982783D01*
X109386966Y-94982781D01*
X109242219Y-94838034D01*
X109242215Y-94838031D01*
X109242213Y-94838029D01*
X109076613Y-94717714D01*
X109076609Y-94717712D01*
X108894219Y-94624780D01*
X108699529Y-94561521D01*
X108497355Y-94529500D01*
X108497352Y-94529500D01*
X108292648Y-94529500D01*
X108292645Y-94529500D01*
X108090470Y-94561521D01*
X107895780Y-94624780D01*
X107713390Y-94717712D01*
X107713386Y-94717714D01*
X107547786Y-94838029D01*
X107403029Y-94982786D01*
X107282714Y-95148386D01*
X107282712Y-95148390D01*
X107213210Y-95284797D01*
X107169945Y-95328062D01*
X107109513Y-95337633D01*
X107054996Y-95309856D01*
X107036790Y-95284797D01*
X106967287Y-95148390D01*
X106967285Y-95148386D01*
X106846970Y-94982786D01*
X106846967Y-94982783D01*
X106846966Y-94982781D01*
X106702219Y-94838034D01*
X106702215Y-94838031D01*
X106702213Y-94838029D01*
X106536613Y-94717714D01*
X106536609Y-94717712D01*
X106354219Y-94624780D01*
X106159529Y-94561521D01*
X105957355Y-94529500D01*
X105957352Y-94529500D01*
X105752648Y-94529500D01*
X105752645Y-94529500D01*
X105550470Y-94561521D01*
X105355780Y-94624780D01*
X105173390Y-94717712D01*
X105173386Y-94717714D01*
X105007786Y-94838029D01*
X104863029Y-94982786D01*
X104742714Y-95148386D01*
X104742712Y-95148390D01*
X104673210Y-95284797D01*
X104629945Y-95328062D01*
X104569513Y-95337633D01*
X104514996Y-95309856D01*
X104496790Y-95284797D01*
X104427287Y-95148390D01*
X104427285Y-95148386D01*
X104306970Y-94982786D01*
X104306967Y-94982783D01*
X104306966Y-94982781D01*
X104162219Y-94838034D01*
X104162215Y-94838031D01*
X104162213Y-94838029D01*
X103996613Y-94717714D01*
X103996609Y-94717712D01*
X103814219Y-94624780D01*
X103619529Y-94561521D01*
X103417355Y-94529500D01*
X103417352Y-94529500D01*
X103212648Y-94529500D01*
X103212645Y-94529500D01*
X103010470Y-94561521D01*
X102815780Y-94624780D01*
X102633390Y-94717712D01*
X102633386Y-94717714D01*
X102467786Y-94838029D01*
X102323029Y-94982786D01*
X102202714Y-95148386D01*
X102202712Y-95148390D01*
X102133210Y-95284797D01*
X102089945Y-95328062D01*
X102029513Y-95337633D01*
X101974996Y-95309856D01*
X101956790Y-95284797D01*
X101887287Y-95148390D01*
X101887285Y-95148386D01*
X101766970Y-94982786D01*
X101766967Y-94982783D01*
X101766966Y-94982781D01*
X101622219Y-94838034D01*
X101622215Y-94838031D01*
X101622213Y-94838029D01*
X101456613Y-94717714D01*
X101456609Y-94717712D01*
X101274219Y-94624780D01*
X101079529Y-94561521D01*
X100877355Y-94529500D01*
X100877352Y-94529500D01*
X100672648Y-94529500D01*
X100672645Y-94529500D01*
X100470470Y-94561521D01*
X100275780Y-94624780D01*
X100093390Y-94717712D01*
X100093386Y-94717714D01*
X99927786Y-94838029D01*
X99783029Y-94982786D01*
X99662714Y-95148386D01*
X99662712Y-95148390D01*
X99593210Y-95284797D01*
X99549945Y-95328062D01*
X99489513Y-95337633D01*
X99434996Y-95309856D01*
X99416790Y-95284797D01*
X99347287Y-95148390D01*
X99347285Y-95148386D01*
X99226970Y-94982786D01*
X99226967Y-94982783D01*
X99226966Y-94982781D01*
X99082219Y-94838034D01*
X99082215Y-94838031D01*
X99082213Y-94838029D01*
X98916613Y-94717714D01*
X98916609Y-94717712D01*
X98734219Y-94624780D01*
X98539529Y-94561521D01*
X98337355Y-94529500D01*
X98337352Y-94529500D01*
X98132648Y-94529500D01*
X98132645Y-94529500D01*
X97930470Y-94561521D01*
X97735780Y-94624780D01*
X97553390Y-94717712D01*
X97553386Y-94717714D01*
X97387786Y-94838029D01*
X97243029Y-94982786D01*
X97122714Y-95148386D01*
X97122712Y-95148390D01*
X97053210Y-95284797D01*
X97009945Y-95328062D01*
X96949513Y-95337633D01*
X96894996Y-95309856D01*
X96876790Y-95284797D01*
X96807287Y-95148390D01*
X96807285Y-95148386D01*
X96686970Y-94982786D01*
X96686967Y-94982783D01*
X96686966Y-94982781D01*
X96542219Y-94838034D01*
X96542215Y-94838031D01*
X96542213Y-94838029D01*
X96376613Y-94717714D01*
X96376609Y-94717712D01*
X96194219Y-94624780D01*
X95999529Y-94561521D01*
X95797355Y-94529500D01*
X95797352Y-94529500D01*
X95592648Y-94529500D01*
X95592645Y-94529500D01*
X95390470Y-94561521D01*
X95195780Y-94624780D01*
X95013390Y-94717712D01*
X95013386Y-94717714D01*
X94847786Y-94838029D01*
X94703032Y-94982783D01*
X94592885Y-95134389D01*
X94543385Y-95170353D01*
X94482199Y-95170353D01*
X94432699Y-95134389D01*
X94413792Y-95076198D01*
X94414638Y-95063286D01*
X94425500Y-94980783D01*
X94425500Y-94679217D01*
X94386138Y-94380232D01*
X94308087Y-94088942D01*
X94192683Y-93810332D01*
X94041900Y-93549168D01*
X93858319Y-93309920D01*
X93645080Y-93096681D01*
X93645075Y-93096677D01*
X93645073Y-93096675D01*
X93405835Y-92913102D01*
X93405832Y-92913100D01*
X93144668Y-92762317D01*
X93144664Y-92762315D01*
X93144660Y-92762313D01*
X92866063Y-92646915D01*
X92866062Y-92646914D01*
X92866058Y-92646913D01*
X92574768Y-92568862D01*
X92574765Y-92568861D01*
X92574763Y-92568861D01*
X92275784Y-92529500D01*
X92275783Y-92529500D01*
X91974217Y-92529500D01*
X91974215Y-92529500D01*
X91675239Y-92568861D01*
X91675234Y-92568861D01*
X91383949Y-92646911D01*
X91383936Y-92646915D01*
X91105339Y-92762313D01*
X90844164Y-92913102D01*
X90604926Y-93096675D01*
X90391675Y-93309926D01*
X90208102Y-93549164D01*
X90057313Y-93810339D01*
X89941915Y-94088936D01*
X89941911Y-94088949D01*
X89863861Y-94380234D01*
X89863861Y-94380239D01*
X89824500Y-94679215D01*
X79875500Y-94679215D01*
X79875500Y-76901381D01*
X105659500Y-76901381D01*
X105659500Y-77988618D01*
X105696026Y-78172249D01*
X105767677Y-78345229D01*
X105767681Y-78345238D01*
X105842065Y-78456559D01*
X105871698Y-78500908D01*
X106004092Y-78633302D01*
X106070463Y-78677649D01*
X106159761Y-78737318D01*
X106159767Y-78737320D01*
X106159769Y-78737322D01*
X106332749Y-78808973D01*
X106516384Y-78845500D01*
X106516385Y-78845500D01*
X106703615Y-78845500D01*
X106703616Y-78845500D01*
X106887251Y-78808973D01*
X107060231Y-78737322D01*
X107185449Y-78653653D01*
X107244336Y-78637045D01*
X107295452Y-78653654D01*
X107419999Y-78736875D01*
X107420010Y-78736881D01*
X107592888Y-78808489D01*
X107592899Y-78808492D01*
X107620000Y-78813882D01*
X107620000Y-77621587D01*
X107626099Y-77632152D01*
X107682848Y-77688901D01*
X107752352Y-77729028D01*
X107829872Y-77749800D01*
X107910128Y-77749800D01*
X107987648Y-77729028D01*
X108046586Y-77695001D01*
X108120000Y-77695001D01*
X108120000Y-78813881D01*
X108147100Y-78808492D01*
X108147111Y-78808489D01*
X108319989Y-78736881D01*
X108320001Y-78736875D01*
X108475589Y-78632912D01*
X108475593Y-78632909D01*
X108607909Y-78500593D01*
X108607912Y-78500589D01*
X108711875Y-78345001D01*
X108711881Y-78344989D01*
X108783491Y-78172106D01*
X108783491Y-78172104D01*
X108819999Y-77988569D01*
X108820000Y-77988565D01*
X108820000Y-77695001D01*
X108819999Y-77695000D01*
X108120001Y-77695000D01*
X108120000Y-77695001D01*
X108046586Y-77695001D01*
X108057152Y-77688901D01*
X108113901Y-77632152D01*
X108154028Y-77562648D01*
X108174800Y-77485128D01*
X108174800Y-77404872D01*
X108154028Y-77327352D01*
X108113901Y-77257848D01*
X108057152Y-77201099D01*
X108046586Y-77194999D01*
X108120000Y-77194999D01*
X108120001Y-77195000D01*
X108819999Y-77195000D01*
X108820000Y-77194999D01*
X108820000Y-76901434D01*
X108819999Y-76901430D01*
X108783491Y-76717895D01*
X108783491Y-76717893D01*
X108711881Y-76545010D01*
X108711875Y-76544998D01*
X108607912Y-76389410D01*
X108607909Y-76389406D01*
X108475593Y-76257090D01*
X108475589Y-76257087D01*
X108320001Y-76153124D01*
X108319992Y-76153120D01*
X108147105Y-76081508D01*
X108120000Y-76076116D01*
X108120000Y-77194999D01*
X108046586Y-77194999D01*
X107987648Y-77160972D01*
X107910128Y-77140200D01*
X107829872Y-77140200D01*
X107752352Y-77160972D01*
X107682848Y-77201099D01*
X107626099Y-77257848D01*
X107620000Y-77268412D01*
X107620000Y-76076116D01*
X107592894Y-76081508D01*
X107420007Y-76153120D01*
X107420001Y-76153123D01*
X107295450Y-76236346D01*
X107236562Y-76252954D01*
X107185448Y-76236345D01*
X107162293Y-76220873D01*
X107060238Y-76152681D01*
X107060229Y-76152677D01*
X106887249Y-76081026D01*
X106703618Y-76044500D01*
X106703616Y-76044500D01*
X106516384Y-76044500D01*
X106516381Y-76044500D01*
X106332750Y-76081026D01*
X106159770Y-76152677D01*
X106159761Y-76152681D01*
X106004092Y-76256698D01*
X106004088Y-76256701D01*
X105871701Y-76389088D01*
X105871698Y-76389092D01*
X105767681Y-76544761D01*
X105767677Y-76544770D01*
X105696026Y-76717750D01*
X105659500Y-76901381D01*
X79875500Y-76901381D01*
X79875500Y-69093710D01*
X81969500Y-69093710D01*
X81969500Y-69336289D01*
X82001161Y-69576781D01*
X82001161Y-69576786D01*
X82063944Y-69811092D01*
X82063948Y-69811105D01*
X82156772Y-70035204D01*
X82156774Y-70035208D01*
X82156776Y-70035212D01*
X82278064Y-70245289D01*
X82278066Y-70245292D01*
X82425729Y-70437731D01*
X82425731Y-70437733D01*
X82425735Y-70437738D01*
X82597262Y-70609265D01*
X82597266Y-70609268D01*
X82597268Y-70609270D01*
X82789707Y-70756933D01*
X82789711Y-70756936D01*
X82999788Y-70878224D01*
X83223900Y-70971054D01*
X83458211Y-71033838D01*
X83698712Y-71065500D01*
X83698713Y-71065500D01*
X83941287Y-71065500D01*
X83941288Y-71065500D01*
X84181789Y-71033838D01*
X84416100Y-70971054D01*
X84640212Y-70878224D01*
X84850289Y-70756936D01*
X85042738Y-70609265D01*
X85214265Y-70437738D01*
X85361936Y-70245289D01*
X85483224Y-70035212D01*
X85576054Y-69811100D01*
X85638838Y-69576789D01*
X85670500Y-69336288D01*
X85670500Y-69093712D01*
X85670500Y-69093710D01*
X128324500Y-69093710D01*
X128324500Y-69336289D01*
X128356161Y-69576781D01*
X128356161Y-69576786D01*
X128418944Y-69811092D01*
X128418948Y-69811105D01*
X128511772Y-70035204D01*
X128511774Y-70035208D01*
X128511776Y-70035212D01*
X128633064Y-70245289D01*
X128633066Y-70245292D01*
X128780729Y-70437731D01*
X128780731Y-70437733D01*
X128780735Y-70437738D01*
X128952262Y-70609265D01*
X128952266Y-70609268D01*
X128952268Y-70609270D01*
X129144707Y-70756933D01*
X129144711Y-70756936D01*
X129354788Y-70878224D01*
X129578900Y-70971054D01*
X129813211Y-71033838D01*
X130053712Y-71065500D01*
X130053713Y-71065500D01*
X130296287Y-71065500D01*
X130296288Y-71065500D01*
X130536789Y-71033838D01*
X130771100Y-70971054D01*
X130995212Y-70878224D01*
X131205289Y-70756936D01*
X131397738Y-70609265D01*
X131569265Y-70437738D01*
X131716936Y-70245289D01*
X131838224Y-70035212D01*
X131931054Y-69811100D01*
X131993838Y-69576789D01*
X132025500Y-69336288D01*
X132025500Y-69093712D01*
X131993838Y-68853211D01*
X131931054Y-68618900D01*
X131838224Y-68394788D01*
X131716936Y-68184711D01*
X131689413Y-68148842D01*
X131569270Y-67992268D01*
X131569268Y-67992266D01*
X131569265Y-67992262D01*
X131397738Y-67820735D01*
X131397733Y-67820731D01*
X131397731Y-67820729D01*
X131205292Y-67673066D01*
X131188817Y-67663554D01*
X130995212Y-67551776D01*
X130995208Y-67551774D01*
X130995204Y-67551772D01*
X130771105Y-67458948D01*
X130771104Y-67458947D01*
X130771100Y-67458946D01*
X130536789Y-67396162D01*
X130536786Y-67396161D01*
X130536784Y-67396161D01*
X130296289Y-67364500D01*
X130296288Y-67364500D01*
X130053712Y-67364500D01*
X130053710Y-67364500D01*
X129813218Y-67396161D01*
X129813213Y-67396161D01*
X129578907Y-67458944D01*
X129578894Y-67458948D01*
X129354795Y-67551772D01*
X129144707Y-67673066D01*
X128952268Y-67820729D01*
X128780729Y-67992268D01*
X128633066Y-68184707D01*
X128511772Y-68394795D01*
X128418948Y-68618894D01*
X128418944Y-68618907D01*
X128356161Y-68853213D01*
X128356161Y-68853218D01*
X128324500Y-69093710D01*
X85670500Y-69093710D01*
X85638838Y-68853211D01*
X85576054Y-68618900D01*
X85483224Y-68394788D01*
X85361936Y-68184711D01*
X85334413Y-68148842D01*
X85214270Y-67992268D01*
X85214268Y-67992266D01*
X85214265Y-67992262D01*
X85042738Y-67820735D01*
X85042733Y-67820731D01*
X85042731Y-67820729D01*
X84850292Y-67673066D01*
X84833817Y-67663554D01*
X84640212Y-67551776D01*
X84640208Y-67551774D01*
X84640204Y-67551772D01*
X84416105Y-67458948D01*
X84416104Y-67458947D01*
X84416100Y-67458946D01*
X84181789Y-67396162D01*
X84181786Y-67396161D01*
X84181784Y-67396161D01*
X83941289Y-67364500D01*
X83941288Y-67364500D01*
X83698712Y-67364500D01*
X83698710Y-67364500D01*
X83458218Y-67396161D01*
X83458213Y-67396161D01*
X83223907Y-67458944D01*
X83223894Y-67458948D01*
X82999795Y-67551772D01*
X82789707Y-67673066D01*
X82597268Y-67820729D01*
X82425729Y-67992268D01*
X82278066Y-68184707D01*
X82156772Y-68394795D01*
X82063948Y-68618894D01*
X82063944Y-68618907D01*
X82001161Y-68853213D01*
X82001161Y-68853218D01*
X81969500Y-69093710D01*
X79875500Y-69093710D01*
X79875500Y-67184073D01*
X102390000Y-67184073D01*
X102390000Y-67435926D01*
X102429395Y-67684663D01*
X102507221Y-67924187D01*
X102621556Y-68148582D01*
X102621558Y-68148586D01*
X102695746Y-68250697D01*
X103350689Y-67595753D01*
X103369669Y-67641574D01*
X103446275Y-67756223D01*
X103543777Y-67853725D01*
X103658426Y-67930331D01*
X103704243Y-67949309D01*
X103049301Y-68604252D01*
X103151413Y-68678441D01*
X103151417Y-68678443D01*
X103375812Y-68792778D01*
X103615336Y-68870604D01*
X103864074Y-68910000D01*
X104115926Y-68910000D01*
X104364663Y-68870604D01*
X104604187Y-68792778D01*
X104828580Y-68678444D01*
X104930696Y-68604251D01*
X104275754Y-67949309D01*
X104321574Y-67930331D01*
X104436223Y-67853725D01*
X104533725Y-67756223D01*
X104610331Y-67641574D01*
X104629309Y-67595754D01*
X105284251Y-68250696D01*
X105358444Y-68148580D01*
X105472778Y-67924187D01*
X105550604Y-67684663D01*
X105590000Y-67435926D01*
X105590000Y-67184073D01*
X105589994Y-67184034D01*
X108889500Y-67184034D01*
X108889500Y-67435965D01*
X108928908Y-67684780D01*
X109006759Y-67924379D01*
X109050384Y-68009999D01*
X109121130Y-68148845D01*
X109269207Y-68352656D01*
X109447344Y-68530793D01*
X109651155Y-68678870D01*
X109875621Y-68793241D01*
X110115215Y-68871090D01*
X110115216Y-68871090D01*
X110115219Y-68871091D01*
X110364035Y-68910500D01*
X110364038Y-68910500D01*
X110615965Y-68910500D01*
X110864780Y-68871091D01*
X110864781Y-68871090D01*
X110864785Y-68871090D01*
X111104379Y-68793241D01*
X111328845Y-68678870D01*
X111532656Y-68530793D01*
X111710793Y-68352656D01*
X111858870Y-68148845D01*
X111973241Y-67924379D01*
X112051090Y-67684785D01*
X112051091Y-67684780D01*
X112090500Y-67435965D01*
X112090500Y-67184034D01*
X112051091Y-66935219D01*
X112027878Y-66863777D01*
X111973241Y-66695621D01*
X111858870Y-66471155D01*
X111710793Y-66267344D01*
X111532656Y-66089207D01*
X111328845Y-65941130D01*
X111328844Y-65941129D01*
X111328842Y-65941128D01*
X111104379Y-65826759D01*
X110864780Y-65748908D01*
X110615965Y-65709500D01*
X110615962Y-65709500D01*
X110364038Y-65709500D01*
X110364035Y-65709500D01*
X110115219Y-65748908D01*
X109875620Y-65826759D01*
X109651157Y-65941128D01*
X109447345Y-66089206D01*
X109269206Y-66267345D01*
X109121128Y-66471157D01*
X109006759Y-66695620D01*
X108928908Y-66935219D01*
X108889500Y-67184034D01*
X105589994Y-67184034D01*
X105550604Y-66935336D01*
X105472778Y-66695812D01*
X105358443Y-66471417D01*
X105358441Y-66471413D01*
X105284252Y-66369301D01*
X104629309Y-67024243D01*
X104610331Y-66978426D01*
X104533725Y-66863777D01*
X104436223Y-66766275D01*
X104321574Y-66689669D01*
X104275753Y-66670689D01*
X104930697Y-66015746D01*
X104828586Y-65941558D01*
X104828582Y-65941556D01*
X104604187Y-65827221D01*
X104364663Y-65749395D01*
X104115926Y-65710000D01*
X103864074Y-65710000D01*
X103615336Y-65749395D01*
X103375812Y-65827221D01*
X103151418Y-65941556D01*
X103049301Y-66015746D01*
X103704245Y-66670690D01*
X103658426Y-66689669D01*
X103543777Y-66766275D01*
X103446275Y-66863777D01*
X103369669Y-66978426D01*
X103350690Y-67024245D01*
X102695746Y-66369301D01*
X102621556Y-66471418D01*
X102507221Y-66695812D01*
X102429395Y-66935336D01*
X102390000Y-67184073D01*
X79875500Y-67184073D01*
X79875500Y-40728322D01*
X79894407Y-40670131D01*
X79904496Y-40658318D01*
X83083599Y-37479215D01*
X89824500Y-37479215D01*
X89824500Y-37780784D01*
X89863861Y-38079760D01*
X89863861Y-38079765D01*
X89941911Y-38371050D01*
X89941915Y-38371063D01*
X90057313Y-38649660D01*
X90057315Y-38649664D01*
X90057317Y-38649668D01*
X90208100Y-38910832D01*
X90208102Y-38910835D01*
X90391675Y-39150073D01*
X90391677Y-39150075D01*
X90391681Y-39150080D01*
X90604920Y-39363319D01*
X90604924Y-39363322D01*
X90604926Y-39363324D01*
X90844164Y-39546897D01*
X90844168Y-39546900D01*
X91105332Y-39697683D01*
X91383942Y-39813087D01*
X91675232Y-39891138D01*
X91974217Y-39930500D01*
X91974218Y-39930500D01*
X92275782Y-39930500D01*
X92275783Y-39930500D01*
X92574768Y-39891138D01*
X92866058Y-39813087D01*
X93144668Y-39697683D01*
X93405832Y-39546900D01*
X93645080Y-39363319D01*
X93858319Y-39150080D01*
X94041900Y-38910832D01*
X94192683Y-38649668D01*
X94308087Y-38371058D01*
X94386138Y-38079768D01*
X94412656Y-37878341D01*
X94438996Y-37823119D01*
X94492766Y-37793924D01*
X94553428Y-37801910D01*
X94570137Y-37812013D01*
X94652670Y-37873797D01*
X94787511Y-37924089D01*
X94787512Y-37924089D01*
X94787517Y-37924091D01*
X94847127Y-37930500D01*
X96542872Y-37930499D01*
X96602483Y-37924091D01*
X96671158Y-37898477D01*
X96737329Y-37873797D01*
X96737329Y-37873796D01*
X96737331Y-37873796D01*
X96852546Y-37787546D01*
X96938796Y-37672331D01*
X96957580Y-37621970D01*
X96989089Y-37537488D01*
X96989088Y-37537488D01*
X96989091Y-37537483D01*
X96995500Y-37477873D01*
X96995499Y-37441207D01*
X97014405Y-37383018D01*
X97063904Y-37347053D01*
X97125089Y-37347052D01*
X97174590Y-37383014D01*
X97174592Y-37383016D01*
X97175162Y-37383800D01*
X97243034Y-37477219D01*
X97387781Y-37621966D01*
X97387784Y-37621968D01*
X97387786Y-37621970D01*
X97553386Y-37742285D01*
X97553390Y-37742287D01*
X97735781Y-37835220D01*
X97930466Y-37898477D01*
X97930467Y-37898477D01*
X97930470Y-37898478D01*
X98132645Y-37930500D01*
X98132648Y-37930500D01*
X98337355Y-37930500D01*
X98539529Y-37898478D01*
X98539530Y-37898477D01*
X98539534Y-37898477D01*
X98734219Y-37835220D01*
X98916610Y-37742287D01*
X99082219Y-37621966D01*
X99226966Y-37477219D01*
X99337115Y-37325611D01*
X99347285Y-37311613D01*
X99347287Y-37311610D01*
X99416790Y-37175201D01*
X99460055Y-37131937D01*
X99520487Y-37122366D01*
X99575003Y-37150143D01*
X99593208Y-37175199D01*
X99595776Y-37180239D01*
X99662712Y-37311609D01*
X99662714Y-37311613D01*
X99783029Y-37477213D01*
X99783031Y-37477215D01*
X99783034Y-37477219D01*
X99927781Y-37621966D01*
X99927784Y-37621968D01*
X99927786Y-37621970D01*
X100093386Y-37742285D01*
X100093390Y-37742287D01*
X100275781Y-37835220D01*
X100470466Y-37898477D01*
X100470467Y-37898477D01*
X100470470Y-37898478D01*
X100672645Y-37930500D01*
X100672648Y-37930500D01*
X100877355Y-37930500D01*
X101079529Y-37898478D01*
X101079530Y-37898477D01*
X101079534Y-37898477D01*
X101274219Y-37835220D01*
X101456610Y-37742287D01*
X101622219Y-37621966D01*
X101766966Y-37477219D01*
X101877115Y-37325611D01*
X101887285Y-37311613D01*
X101887287Y-37311610D01*
X101956790Y-37175201D01*
X102000055Y-37131937D01*
X102060487Y-37122366D01*
X102115003Y-37150143D01*
X102133208Y-37175199D01*
X102135776Y-37180239D01*
X102202712Y-37311609D01*
X102202714Y-37311613D01*
X102323029Y-37477213D01*
X102323031Y-37477215D01*
X102323034Y-37477219D01*
X102467781Y-37621966D01*
X102467784Y-37621968D01*
X102467786Y-37621970D01*
X102633386Y-37742285D01*
X102633390Y-37742287D01*
X102815781Y-37835220D01*
X103010466Y-37898477D01*
X103010467Y-37898477D01*
X103010470Y-37898478D01*
X103212645Y-37930500D01*
X103212648Y-37930500D01*
X103417355Y-37930500D01*
X103619529Y-37898478D01*
X103619530Y-37898477D01*
X103619534Y-37898477D01*
X103814219Y-37835220D01*
X103996610Y-37742287D01*
X104162219Y-37621966D01*
X104306966Y-37477219D01*
X104417115Y-37325611D01*
X104427285Y-37311613D01*
X104427287Y-37311610D01*
X104496790Y-37175201D01*
X104540055Y-37131937D01*
X104600487Y-37122366D01*
X104655003Y-37150143D01*
X104673208Y-37175199D01*
X104675776Y-37180239D01*
X104742712Y-37311609D01*
X104742714Y-37311613D01*
X104863029Y-37477213D01*
X104863031Y-37477215D01*
X104863034Y-37477219D01*
X105007781Y-37621966D01*
X105007784Y-37621968D01*
X105007786Y-37621970D01*
X105173386Y-37742285D01*
X105173390Y-37742287D01*
X105355781Y-37835220D01*
X105550466Y-37898477D01*
X105550467Y-37898477D01*
X105550470Y-37898478D01*
X105752645Y-37930500D01*
X105752648Y-37930500D01*
X105957355Y-37930500D01*
X106159529Y-37898478D01*
X106159530Y-37898477D01*
X106159534Y-37898477D01*
X106354219Y-37835220D01*
X106536610Y-37742287D01*
X106702219Y-37621966D01*
X106846966Y-37477219D01*
X106957115Y-37325611D01*
X106967285Y-37311613D01*
X106967287Y-37311610D01*
X107036790Y-37175201D01*
X107080055Y-37131937D01*
X107140487Y-37122366D01*
X107195003Y-37150143D01*
X107213208Y-37175199D01*
X107215776Y-37180239D01*
X107282712Y-37311609D01*
X107282714Y-37311613D01*
X107403029Y-37477213D01*
X107403031Y-37477215D01*
X107403034Y-37477219D01*
X107547781Y-37621966D01*
X107547784Y-37621968D01*
X107547786Y-37621970D01*
X107713386Y-37742285D01*
X107713390Y-37742287D01*
X107895781Y-37835220D01*
X108090466Y-37898477D01*
X108090467Y-37898477D01*
X108090470Y-37898478D01*
X108292645Y-37930500D01*
X108292648Y-37930500D01*
X108497355Y-37930500D01*
X108699529Y-37898478D01*
X108699530Y-37898477D01*
X108699534Y-37898477D01*
X108894219Y-37835220D01*
X109076610Y-37742287D01*
X109242219Y-37621966D01*
X109386966Y-37477219D01*
X109497115Y-37325611D01*
X109507285Y-37311613D01*
X109507287Y-37311610D01*
X109576790Y-37175201D01*
X109620055Y-37131937D01*
X109680487Y-37122366D01*
X109735003Y-37150143D01*
X109753208Y-37175199D01*
X109755776Y-37180239D01*
X109822712Y-37311609D01*
X109822714Y-37311613D01*
X109943029Y-37477213D01*
X109943031Y-37477215D01*
X109943034Y-37477219D01*
X110087781Y-37621966D01*
X110087784Y-37621968D01*
X110087786Y-37621970D01*
X110253386Y-37742285D01*
X110253390Y-37742287D01*
X110435781Y-37835220D01*
X110630466Y-37898477D01*
X110630467Y-37898477D01*
X110630470Y-37898478D01*
X110832645Y-37930500D01*
X110832648Y-37930500D01*
X111037355Y-37930500D01*
X111239529Y-37898478D01*
X111239530Y-37898477D01*
X111239534Y-37898477D01*
X111434219Y-37835220D01*
X111616610Y-37742287D01*
X111782219Y-37621966D01*
X111926966Y-37477219D01*
X112037115Y-37325611D01*
X112047285Y-37311613D01*
X112047287Y-37311610D01*
X112116790Y-37175201D01*
X112160055Y-37131937D01*
X112220487Y-37122366D01*
X112275003Y-37150143D01*
X112293208Y-37175199D01*
X112295776Y-37180239D01*
X112362712Y-37311609D01*
X112362714Y-37311613D01*
X112483029Y-37477213D01*
X112483031Y-37477215D01*
X112483034Y-37477219D01*
X112627781Y-37621966D01*
X112627784Y-37621968D01*
X112627786Y-37621970D01*
X112793386Y-37742285D01*
X112793390Y-37742287D01*
X112975781Y-37835220D01*
X113170466Y-37898477D01*
X113170467Y-37898477D01*
X113170470Y-37898478D01*
X113372645Y-37930500D01*
X113372648Y-37930500D01*
X113577355Y-37930500D01*
X113779529Y-37898478D01*
X113779530Y-37898477D01*
X113779534Y-37898477D01*
X113974219Y-37835220D01*
X114156610Y-37742287D01*
X114322219Y-37621966D01*
X114466966Y-37477219D01*
X114577115Y-37325611D01*
X114587285Y-37311613D01*
X114587287Y-37311610D01*
X114656790Y-37175201D01*
X114700055Y-37131937D01*
X114760487Y-37122366D01*
X114815003Y-37150143D01*
X114833208Y-37175199D01*
X114835776Y-37180239D01*
X114902712Y-37311609D01*
X114902714Y-37311613D01*
X115023029Y-37477213D01*
X115023031Y-37477215D01*
X115023034Y-37477219D01*
X115167781Y-37621966D01*
X115167784Y-37621968D01*
X115167786Y-37621970D01*
X115333386Y-37742285D01*
X115333390Y-37742287D01*
X115515781Y-37835220D01*
X115710466Y-37898477D01*
X115710467Y-37898477D01*
X115710470Y-37898478D01*
X115912645Y-37930500D01*
X115912648Y-37930500D01*
X116117355Y-37930500D01*
X116319529Y-37898478D01*
X116319530Y-37898477D01*
X116319534Y-37898477D01*
X116514219Y-37835220D01*
X116696610Y-37742287D01*
X116862219Y-37621966D01*
X117006966Y-37477219D01*
X117117115Y-37325611D01*
X117127285Y-37311613D01*
X117127287Y-37311610D01*
X117196790Y-37175201D01*
X117240055Y-37131937D01*
X117300487Y-37122366D01*
X117355003Y-37150143D01*
X117373208Y-37175199D01*
X117375776Y-37180239D01*
X117442712Y-37311609D01*
X117442714Y-37311613D01*
X117563029Y-37477213D01*
X117563031Y-37477215D01*
X117563034Y-37477219D01*
X117707781Y-37621966D01*
X117707784Y-37621968D01*
X117707786Y-37621970D01*
X117873386Y-37742285D01*
X117873390Y-37742287D01*
X118055781Y-37835220D01*
X118250466Y-37898477D01*
X118250467Y-37898477D01*
X118250470Y-37898478D01*
X118452645Y-37930500D01*
X118452648Y-37930500D01*
X118657355Y-37930500D01*
X118859529Y-37898478D01*
X118859530Y-37898477D01*
X118859534Y-37898477D01*
X119054219Y-37835220D01*
X119236610Y-37742287D01*
X119402219Y-37621966D01*
X119546966Y-37477219D01*
X119657115Y-37325609D01*
X119706613Y-37289647D01*
X119767799Y-37289646D01*
X119817299Y-37325610D01*
X119836207Y-37383800D01*
X119835360Y-37396722D01*
X119824500Y-37479213D01*
X119824500Y-37780784D01*
X119863861Y-38079760D01*
X119863861Y-38079765D01*
X119941911Y-38371050D01*
X119941915Y-38371063D01*
X120057313Y-38649660D01*
X120057315Y-38649664D01*
X120057317Y-38649668D01*
X120208100Y-38910832D01*
X120208102Y-38910835D01*
X120391675Y-39150073D01*
X120391677Y-39150075D01*
X120391681Y-39150080D01*
X120604920Y-39363319D01*
X120604924Y-39363322D01*
X120604926Y-39363324D01*
X120844164Y-39546897D01*
X120844168Y-39546900D01*
X121105332Y-39697683D01*
X121383942Y-39813087D01*
X121675232Y-39891138D01*
X121974217Y-39930500D01*
X121974218Y-39930500D01*
X122275782Y-39930500D01*
X122275783Y-39930500D01*
X122574768Y-39891138D01*
X122866058Y-39813087D01*
X123144668Y-39697683D01*
X123405832Y-39546900D01*
X123645080Y-39363319D01*
X123858319Y-39150080D01*
X124041900Y-38910832D01*
X124192683Y-38649668D01*
X124308087Y-38371058D01*
X124386138Y-38079768D01*
X124425500Y-37780783D01*
X124425500Y-37479217D01*
X124386138Y-37180232D01*
X124308087Y-36888942D01*
X124192683Y-36610332D01*
X124041900Y-36349168D01*
X123879584Y-36137633D01*
X123858324Y-36109926D01*
X123858322Y-36109924D01*
X123858319Y-36109920D01*
X123645080Y-35896681D01*
X123645075Y-35896677D01*
X123645073Y-35896675D01*
X123405835Y-35713102D01*
X123405832Y-35713100D01*
X123144668Y-35562317D01*
X123144664Y-35562315D01*
X123144660Y-35562313D01*
X122866063Y-35446915D01*
X122866062Y-35446914D01*
X122866058Y-35446913D01*
X122574768Y-35368862D01*
X122574765Y-35368861D01*
X122574763Y-35368861D01*
X122275784Y-35329500D01*
X122275783Y-35329500D01*
X121974217Y-35329500D01*
X121974215Y-35329500D01*
X121675239Y-35368861D01*
X121675234Y-35368861D01*
X121383949Y-35446911D01*
X121383936Y-35446915D01*
X121105339Y-35562313D01*
X120844164Y-35713102D01*
X120604926Y-35896675D01*
X120391675Y-36109926D01*
X120208102Y-36349164D01*
X120057314Y-36610336D01*
X120045964Y-36637740D01*
X120006227Y-36684265D01*
X119946732Y-36698549D01*
X119890204Y-36675134D01*
X119858235Y-36622965D01*
X119855500Y-36599854D01*
X119855500Y-36527644D01*
X119823478Y-36325470D01*
X119823477Y-36325466D01*
X119760220Y-36130781D01*
X119667287Y-35948390D01*
X119667285Y-35948386D01*
X119546970Y-35782786D01*
X119546967Y-35782783D01*
X119546966Y-35782781D01*
X119402219Y-35638034D01*
X119402215Y-35638031D01*
X119402213Y-35638029D01*
X119236613Y-35517714D01*
X119236609Y-35517712D01*
X119054219Y-35424780D01*
X118859529Y-35361521D01*
X118657355Y-35329500D01*
X118657352Y-35329500D01*
X118452648Y-35329500D01*
X118452645Y-35329500D01*
X118250470Y-35361521D01*
X118055780Y-35424780D01*
X117873390Y-35517712D01*
X117873386Y-35517714D01*
X117707786Y-35638029D01*
X117563029Y-35782786D01*
X117442714Y-35948386D01*
X117442712Y-35948390D01*
X117373210Y-36084797D01*
X117329945Y-36128062D01*
X117269513Y-36137633D01*
X117214996Y-36109856D01*
X117196790Y-36084797D01*
X117127287Y-35948390D01*
X117127285Y-35948386D01*
X117006970Y-35782786D01*
X117006967Y-35782783D01*
X117006966Y-35782781D01*
X116862219Y-35638034D01*
X116862215Y-35638031D01*
X116862213Y-35638029D01*
X116696613Y-35517714D01*
X116696609Y-35517712D01*
X116514219Y-35424780D01*
X116319529Y-35361521D01*
X116117355Y-35329500D01*
X116117352Y-35329500D01*
X115912648Y-35329500D01*
X115912645Y-35329500D01*
X115710470Y-35361521D01*
X115515780Y-35424780D01*
X115333390Y-35517712D01*
X115333386Y-35517714D01*
X115167786Y-35638029D01*
X115023029Y-35782786D01*
X114902714Y-35948386D01*
X114902712Y-35948390D01*
X114833210Y-36084797D01*
X114789945Y-36128062D01*
X114729513Y-36137633D01*
X114674996Y-36109856D01*
X114656790Y-36084797D01*
X114587287Y-35948390D01*
X114587285Y-35948386D01*
X114466970Y-35782786D01*
X114466967Y-35782783D01*
X114466966Y-35782781D01*
X114322219Y-35638034D01*
X114322215Y-35638031D01*
X114322213Y-35638029D01*
X114156613Y-35517714D01*
X114156609Y-35517712D01*
X113974219Y-35424780D01*
X113779529Y-35361521D01*
X113577355Y-35329500D01*
X113577352Y-35329500D01*
X113372648Y-35329500D01*
X113372645Y-35329500D01*
X113170470Y-35361521D01*
X112975780Y-35424780D01*
X112793390Y-35517712D01*
X112793386Y-35517714D01*
X112627786Y-35638029D01*
X112483029Y-35782786D01*
X112362714Y-35948386D01*
X112362712Y-35948390D01*
X112293210Y-36084797D01*
X112249945Y-36128062D01*
X112189513Y-36137633D01*
X112134996Y-36109856D01*
X112116790Y-36084797D01*
X112047287Y-35948390D01*
X112047285Y-35948386D01*
X111926970Y-35782786D01*
X111926967Y-35782783D01*
X111926966Y-35782781D01*
X111782219Y-35638034D01*
X111782215Y-35638031D01*
X111782213Y-35638029D01*
X111616613Y-35517714D01*
X111616609Y-35517712D01*
X111434219Y-35424780D01*
X111239529Y-35361521D01*
X111037355Y-35329500D01*
X111037352Y-35329500D01*
X110832648Y-35329500D01*
X110832645Y-35329500D01*
X110630470Y-35361521D01*
X110435780Y-35424780D01*
X110253390Y-35517712D01*
X110253386Y-35517714D01*
X110087786Y-35638029D01*
X109943029Y-35782786D01*
X109822714Y-35948386D01*
X109822712Y-35948390D01*
X109753210Y-36084797D01*
X109709945Y-36128062D01*
X109649513Y-36137633D01*
X109594996Y-36109856D01*
X109576790Y-36084797D01*
X109507287Y-35948390D01*
X109507285Y-35948386D01*
X109386970Y-35782786D01*
X109386967Y-35782783D01*
X109386966Y-35782781D01*
X109242219Y-35638034D01*
X109242215Y-35638031D01*
X109242213Y-35638029D01*
X109076613Y-35517714D01*
X109076609Y-35517712D01*
X108894219Y-35424780D01*
X108699529Y-35361521D01*
X108497355Y-35329500D01*
X108497352Y-35329500D01*
X108292648Y-35329500D01*
X108292645Y-35329500D01*
X108090470Y-35361521D01*
X107895780Y-35424780D01*
X107713390Y-35517712D01*
X107713386Y-35517714D01*
X107547786Y-35638029D01*
X107403029Y-35782786D01*
X107282714Y-35948386D01*
X107282712Y-35948390D01*
X107213210Y-36084797D01*
X107169945Y-36128062D01*
X107109513Y-36137633D01*
X107054996Y-36109856D01*
X107036790Y-36084797D01*
X106967287Y-35948390D01*
X106967285Y-35948386D01*
X106846970Y-35782786D01*
X106846967Y-35782783D01*
X106846966Y-35782781D01*
X106702219Y-35638034D01*
X106702215Y-35638031D01*
X106702213Y-35638029D01*
X106536613Y-35517714D01*
X106536609Y-35517712D01*
X106354219Y-35424780D01*
X106159529Y-35361521D01*
X105957355Y-35329500D01*
X105957352Y-35329500D01*
X105752648Y-35329500D01*
X105752645Y-35329500D01*
X105550470Y-35361521D01*
X105355780Y-35424780D01*
X105173390Y-35517712D01*
X105173386Y-35517714D01*
X105007786Y-35638029D01*
X104863029Y-35782786D01*
X104742714Y-35948386D01*
X104742712Y-35948390D01*
X104673210Y-36084797D01*
X104629945Y-36128062D01*
X104569513Y-36137633D01*
X104514996Y-36109856D01*
X104496790Y-36084797D01*
X104427287Y-35948390D01*
X104427285Y-35948386D01*
X104306970Y-35782786D01*
X104306967Y-35782783D01*
X104306966Y-35782781D01*
X104162219Y-35638034D01*
X104162215Y-35638031D01*
X104162213Y-35638029D01*
X103996613Y-35517714D01*
X103996609Y-35517712D01*
X103814219Y-35424780D01*
X103619529Y-35361521D01*
X103417355Y-35329500D01*
X103417352Y-35329500D01*
X103212648Y-35329500D01*
X103212645Y-35329500D01*
X103010470Y-35361521D01*
X102815780Y-35424780D01*
X102633390Y-35517712D01*
X102633386Y-35517714D01*
X102467786Y-35638029D01*
X102323029Y-35782786D01*
X102202714Y-35948386D01*
X102202712Y-35948390D01*
X102133210Y-36084797D01*
X102089945Y-36128062D01*
X102029513Y-36137633D01*
X101974996Y-36109856D01*
X101956790Y-36084797D01*
X101887287Y-35948390D01*
X101887285Y-35948386D01*
X101766970Y-35782786D01*
X101766967Y-35782783D01*
X101766966Y-35782781D01*
X101622219Y-35638034D01*
X101622215Y-35638031D01*
X101622213Y-35638029D01*
X101456613Y-35517714D01*
X101456609Y-35517712D01*
X101274219Y-35424780D01*
X101079529Y-35361521D01*
X100877355Y-35329500D01*
X100877352Y-35329500D01*
X100672648Y-35329500D01*
X100672645Y-35329500D01*
X100470470Y-35361521D01*
X100275780Y-35424780D01*
X100093390Y-35517712D01*
X100093386Y-35517714D01*
X99927786Y-35638029D01*
X99783029Y-35782786D01*
X99662714Y-35948386D01*
X99662712Y-35948390D01*
X99593210Y-36084797D01*
X99549945Y-36128062D01*
X99489513Y-36137633D01*
X99434996Y-36109856D01*
X99416790Y-36084797D01*
X99347287Y-35948390D01*
X99347285Y-35948386D01*
X99226970Y-35782786D01*
X99226967Y-35782783D01*
X99226966Y-35782781D01*
X99082219Y-35638034D01*
X99082215Y-35638031D01*
X99082213Y-35638029D01*
X98916613Y-35517714D01*
X98916609Y-35517712D01*
X98734219Y-35424780D01*
X98539529Y-35361521D01*
X98337355Y-35329500D01*
X98337352Y-35329500D01*
X98132648Y-35329500D01*
X98132645Y-35329500D01*
X97930470Y-35361521D01*
X97735780Y-35424780D01*
X97553390Y-35517712D01*
X97553386Y-35517714D01*
X97387786Y-35638029D01*
X97243032Y-35782783D01*
X97174592Y-35876984D01*
X97125092Y-35912948D01*
X97063906Y-35912948D01*
X97014406Y-35876984D01*
X96995499Y-35818793D01*
X96995499Y-35782133D01*
X96995499Y-35782128D01*
X96989091Y-35722517D01*
X96989089Y-35722511D01*
X96938797Y-35587670D01*
X96852549Y-35472458D01*
X96852548Y-35472457D01*
X96852546Y-35472454D01*
X96852541Y-35472450D01*
X96737329Y-35386202D01*
X96602488Y-35335910D01*
X96602483Y-35335909D01*
X96602481Y-35335908D01*
X96602477Y-35335908D01*
X96571249Y-35332550D01*
X96542873Y-35329500D01*
X96542870Y-35329500D01*
X94847133Y-35329500D01*
X94847129Y-35329500D01*
X94847128Y-35329501D01*
X94839949Y-35330272D01*
X94787519Y-35335908D01*
X94787514Y-35335909D01*
X94652670Y-35386202D01*
X94537458Y-35472450D01*
X94537450Y-35472458D01*
X94451202Y-35587670D01*
X94400910Y-35722511D01*
X94400908Y-35722522D01*
X94394500Y-35782129D01*
X94394500Y-36599854D01*
X94375593Y-36658045D01*
X94326093Y-36694009D01*
X94264907Y-36694009D01*
X94215407Y-36658045D01*
X94204036Y-36637740D01*
X94192685Y-36610336D01*
X94192683Y-36610332D01*
X94041900Y-36349168D01*
X93879584Y-36137633D01*
X93858324Y-36109926D01*
X93858322Y-36109924D01*
X93858319Y-36109920D01*
X93645080Y-35896681D01*
X93645075Y-35896677D01*
X93645073Y-35896675D01*
X93405835Y-35713102D01*
X93405832Y-35713100D01*
X93144668Y-35562317D01*
X93144664Y-35562315D01*
X93144660Y-35562313D01*
X92866063Y-35446915D01*
X92866062Y-35446914D01*
X92866058Y-35446913D01*
X92574768Y-35368862D01*
X92574765Y-35368861D01*
X92574763Y-35368861D01*
X92275784Y-35329500D01*
X92275783Y-35329500D01*
X91974217Y-35329500D01*
X91974215Y-35329500D01*
X91675239Y-35368861D01*
X91675234Y-35368861D01*
X91383949Y-35446911D01*
X91383936Y-35446915D01*
X91105339Y-35562313D01*
X90844164Y-35713102D01*
X90604926Y-35896675D01*
X90391675Y-36109926D01*
X90208102Y-36349164D01*
X90057313Y-36610339D01*
X89941915Y-36888936D01*
X89941911Y-36888949D01*
X89863861Y-37180234D01*
X89863861Y-37180239D01*
X89824500Y-37479215D01*
X83083599Y-37479215D01*
X88730685Y-31832129D01*
X105449500Y-31832129D01*
X105449500Y-33627866D01*
X105449501Y-33627870D01*
X105455908Y-33687480D01*
X105455909Y-33687485D01*
X105506202Y-33822329D01*
X105592450Y-33937541D01*
X105592454Y-33937546D01*
X105592457Y-33937548D01*
X105592458Y-33937549D01*
X105707670Y-34023797D01*
X105842511Y-34074089D01*
X105842512Y-34074089D01*
X105842517Y-34074091D01*
X105902127Y-34080500D01*
X107697872Y-34080499D01*
X107757483Y-34074091D01*
X107830764Y-34046759D01*
X107892329Y-34023797D01*
X107892329Y-34023796D01*
X107892331Y-34023796D01*
X108007546Y-33937546D01*
X108093796Y-33822331D01*
X108144091Y-33687483D01*
X108150500Y-33627873D01*
X108150499Y-33592971D01*
X108169405Y-33534783D01*
X108214237Y-33502208D01*
X108857037Y-32859407D01*
X108874075Y-32922993D01*
X108939901Y-33037007D01*
X109032993Y-33130099D01*
X109147007Y-33195925D01*
X109210589Y-33212962D01*
X108578282Y-33845269D01*
X108578282Y-33845270D01*
X108632440Y-33884619D01*
X108632446Y-33884623D01*
X108821784Y-33981095D01*
X109023878Y-34046759D01*
X109233750Y-34080000D01*
X109446250Y-34080000D01*
X109656121Y-34046759D01*
X109858215Y-33981095D01*
X110047556Y-33884620D01*
X110101716Y-33845270D01*
X109469408Y-33212962D01*
X109532993Y-33195925D01*
X109647007Y-33130099D01*
X109740099Y-33037007D01*
X109805925Y-32922993D01*
X109822962Y-32859408D01*
X110455270Y-33491716D01*
X110494620Y-33437556D01*
X110591095Y-33248215D01*
X110656759Y-33046121D01*
X110690000Y-32836250D01*
X110690000Y-32623749D01*
X110656759Y-32413878D01*
X110591095Y-32211784D01*
X110494623Y-32022446D01*
X110494619Y-32022440D01*
X110455270Y-31968282D01*
X110455269Y-31968282D01*
X109822962Y-32600589D01*
X109805925Y-32537007D01*
X109740099Y-32422993D01*
X109647007Y-32329901D01*
X109532993Y-32264075D01*
X109469407Y-32247037D01*
X110101716Y-31614729D01*
X110101716Y-31614728D01*
X110047559Y-31575380D01*
X110047553Y-31575376D01*
X109858215Y-31478904D01*
X109656121Y-31413240D01*
X109446250Y-31380000D01*
X109233750Y-31380000D01*
X109023878Y-31413240D01*
X108821784Y-31478904D01*
X108632446Y-31575376D01*
X108632442Y-31575378D01*
X108578282Y-31614728D01*
X109210591Y-32247037D01*
X109147007Y-32264075D01*
X109032993Y-32329901D01*
X108939901Y-32422993D01*
X108874075Y-32537007D01*
X108857037Y-32600591D01*
X108211077Y-31954631D01*
X108197771Y-31951437D01*
X108158035Y-31904911D01*
X108150499Y-31867026D01*
X108150499Y-31832133D01*
X108150499Y-31832128D01*
X108144091Y-31772517D01*
X108144089Y-31772511D01*
X108112217Y-31687056D01*
X108093796Y-31637669D01*
X108007549Y-31522458D01*
X108007548Y-31522457D01*
X108007546Y-31522454D01*
X107949371Y-31478904D01*
X107892329Y-31436202D01*
X107757488Y-31385910D01*
X107757483Y-31385909D01*
X107757481Y-31385908D01*
X107757477Y-31385908D01*
X107726249Y-31382550D01*
X107697873Y-31379500D01*
X107697870Y-31379500D01*
X105902133Y-31379500D01*
X105902129Y-31379500D01*
X105902128Y-31379501D01*
X105897486Y-31380000D01*
X105842519Y-31385908D01*
X105842514Y-31385909D01*
X105707670Y-31436202D01*
X105592458Y-31522450D01*
X105592450Y-31522458D01*
X105506202Y-31637670D01*
X105455910Y-31772511D01*
X105455908Y-31772522D01*
X105449500Y-31832129D01*
X88730685Y-31832129D01*
X89553318Y-31009496D01*
X89607835Y-30981719D01*
X89623322Y-30980500D01*
X124371678Y-30980500D01*
X124429869Y-30999407D01*
G37*
%TD.AperFunction*%
%TD*%
M02*
