%TF.GenerationSoftware,KiCad,Pcbnew,10.0.1*%
%TF.CreationDate,2026-04-26T22:08:42-07:00*%
%TF.ProjectId,TamagotchiOfSin,54616d61-676f-4746-9368-694f6653696e,rev?*%
%TF.SameCoordinates,Original*%
%TF.FileFunction,Copper,L1,Top*%
%TF.FilePolarity,Positive*%
%FSLAX46Y46*%
G04 Gerber Fmt 4.6, Leading zero omitted, Abs format (unit mm)*
G04 Created by KiCad (PCBNEW 10.0.1) date 2026-04-26 22:08:42*
%MOMM*%
%LPD*%
G01*
G04 APERTURE LIST*
G04 Aperture macros list*
%AMRoundRect*
0 Rectangle with rounded corners*
0 $1 Rounding radius*
0 $2 $3 $4 $5 $6 $7 $8 $9 X,Y pos of 4 corners*
0 Add a 4 corners polygon primitive as box body*
4,1,4,$2,$3,$4,$5,$6,$7,$8,$9,$2,$3,0*
0 Add four circle primitives for the rounded corners*
1,1,$1+$1,$2,$3*
1,1,$1+$1,$4,$5*
1,1,$1+$1,$6,$7*
1,1,$1+$1,$8,$9*
0 Add four rect primitives between the rounded corners*
20,1,$1+$1,$2,$3,$4,$5,0*
20,1,$1+$1,$4,$5,$6,$7,0*
20,1,$1+$1,$6,$7,$8,$9,0*
20,1,$1+$1,$8,$9,$2,$3,0*%
G04 Aperture macros list end*
%TA.AperFunction,ComponentPad*%
%ADD10C,3.300000*%
%TD*%
%TA.AperFunction,ComponentPad*%
%ADD11C,1.600000*%
%TD*%
%TA.AperFunction,ComponentPad*%
%ADD12R,1.600000X1.600000*%
%TD*%
%TA.AperFunction,ComponentPad*%
%ADD13C,2.200000*%
%TD*%
%TA.AperFunction,ComponentPad*%
%ADD14R,1.700000X1.700000*%
%TD*%
%TA.AperFunction,ComponentPad*%
%ADD15C,1.700000*%
%TD*%
%TA.AperFunction,ComponentPad*%
%ADD16O,0.900000X1.800000*%
%TD*%
%TA.AperFunction,ComponentPad*%
%ADD17C,1.524000*%
%TD*%
%TA.AperFunction,ComponentPad*%
%ADD18RoundRect,0.275000X0.975000X0.275000X-0.975000X0.275000X-0.975000X-0.275000X0.975000X-0.275000X0*%
%TD*%
%TA.AperFunction,ViaPad*%
%ADD19C,0.600000*%
%TD*%
%TA.AperFunction,Conductor*%
%ADD20C,0.200000*%
%TD*%
G04 APERTURE END LIST*
D10*
%TO.P,LCD1,*%
%TO.N,*%
X92125000Y-94830000D03*
X122125000Y-94830000D03*
X122125000Y-37630000D03*
X92125000Y-37630000D03*
D11*
%TO.P,LCD1,20,CS1_20*%
%TO.N,unconnected-(LCD1-CS1-Pad20)*%
X95695000Y-95830000D03*
%TO.P,LCD1,19,RES_19*%
%TO.N,Net-(U4-GPIO5_A3_D3)*%
X98235000Y-95830000D03*
%TO.P,LCD1,18,DC_18*%
%TO.N,Net-(U4-GPIO6_D4_SDA)*%
X100775000Y-95830000D03*
%TO.P,LCD1,17,SDA_17*%
%TO.N,Net-(U4-GPIO10_D10_MOSI)*%
X103315000Y-95830000D03*
%TO.P,LCD1,16,CLK_16*%
%TO.N,Net-(U4-GPIO8_D8_SCK)*%
X105855000Y-95830000D03*
%TO.P,LCD1,15,FSO_15*%
%TO.N,unconnected-(LCD1-FSO-Pad15)*%
X108395000Y-95830000D03*
%TO.P,LCD1,14,FCS_14*%
%TO.N,unconnected-(LCD1-FCS-Pad14)*%
X110935000Y-95830000D03*
%TO.P,LCD1,13,BLK_13*%
%TO.N,unconnected-(LCD1-BLK-Pad13)*%
X113475000Y-95830000D03*
%TO.P,LCD1,12,GND_12*%
%TO.N,GND*%
X116015000Y-95830000D03*
D12*
%TO.P,LCD1,11,VCC_11*%
%TO.N,+3V3*%
X118555000Y-95830000D03*
D11*
%TO.P,LCD1,10,FCS_10*%
%TO.N,unconnected-(LCD1-FCS-Pad10)*%
X118555000Y-36630000D03*
%TO.P,LCD1,9,FSO_9*%
%TO.N,unconnected-(LCD1-FSO-Pad9)*%
X116015000Y-36630000D03*
%TO.P,LCD1,8,BLK_8*%
%TO.N,unconnected-(LCD1-BLK-Pad8)*%
X113475000Y-36630000D03*
%TO.P,LCD1,7,CS1_7*%
%TO.N,unconnected-(LCD1-CS1-Pad7)*%
X110935000Y-36630000D03*
%TO.P,LCD1,6,DC_6*%
%TO.N,unconnected-(LCD1-DC-Pad6)*%
X108395000Y-36630000D03*
%TO.P,LCD1,5,RES_5*%
%TO.N,unconnected-(LCD1-RES-Pad5)*%
X105855000Y-36630000D03*
%TO.P,LCD1,4,SDA_4*%
%TO.N,unconnected-(LCD1-SDA-Pad4)*%
X103315000Y-36630000D03*
%TO.P,LCD1,3,CLK_3*%
%TO.N,unconnected-(LCD1-CLK-Pad3)*%
X100775000Y-36630000D03*
%TO.P,LCD1,2,VCC_2*%
%TO.N,unconnected-(LCD1-VCC-Pad2)*%
X98235000Y-36630000D03*
D12*
%TO.P,LCD1,1,GND_1*%
%TO.N,unconnected-(LCD1-GND-Pad1)*%
X95695000Y-36630000D03*
%TD*%
D13*
%TO.P,BUZZER1,1,+_1*%
%TO.N,Net-(BUZZER1-+)*%
X110490000Y-67310000D03*
%TO.P,BUZZER1,2,-_2*%
%TO.N,GND*%
X103990000Y-67310000D03*
%TD*%
D14*
%TO.P,BT1,1,+_1*%
%TO.N,+BATT*%
X106800000Y-32730000D03*
D15*
%TO.P,BT1,2,-_2*%
%TO.N,GND*%
X109340000Y-32730000D03*
%TD*%
D11*
%TO.P,SW2,1,1_1*%
%TO.N,GND*%
X104775000Y-100893750D03*
X109575000Y-100893750D03*
%TO.P,SW2,2,2_2*%
%TO.N,Net-(U4-GPIO3_A1_D1)*%
X104775000Y-103893750D03*
X109575000Y-103893750D03*
%TD*%
%TO.P,SW1,1,1_1*%
%TO.N,GND*%
X91580000Y-100893750D03*
X96380000Y-100893750D03*
%TO.P,SW1,2,2_2*%
%TO.N,Net-(U4-GPIO2_A0_D0)*%
X91580000Y-103893750D03*
X96380000Y-103893750D03*
%TD*%
%TO.P,SW3,1,1_1*%
%TO.N,GND*%
X118250000Y-100893750D03*
X123050000Y-100893750D03*
%TO.P,SW3,2,2_2*%
%TO.N,Net-(U4-GPIO4_A2_D2)*%
X118250000Y-103893750D03*
X123050000Y-103893750D03*
%TD*%
D16*
%TO.P,MOT1,1,-_1*%
%TO.N,GND*%
X107870000Y-77445000D03*
%TO.P,MOT1,2,+_2*%
%TO.N,Net-(MOT1-+)*%
X106610000Y-77445000D03*
%TD*%
D17*
%TO.P,U4,1,GPIO2_A0_D0_1*%
%TO.N,Net-(U4-GPIO2_A0_D0)*%
X99695000Y-116205000D03*
%TO.P,U4,2,GPIO3_A1_D1_2*%
%TO.N,Net-(U4-GPIO3_A1_D1)*%
X99695000Y-113665000D03*
%TO.P,U4,3,GPIO4_A2_D2_3*%
%TO.N,Net-(U4-GPIO4_A2_D2)*%
X99695000Y-111125000D03*
%TO.P,U4,4,GPIO5_A3_D3_4*%
%TO.N,Net-(U4-GPIO5_A3_D3)*%
X99695000Y-108585000D03*
%TO.P,U4,5,GPIO6_D4_SDA_5*%
%TO.N,Net-(U4-GPIO6_D4_SDA)*%
X99695000Y-106045000D03*
%TO.P,U4,6,GPIO7_D5_SCL_6*%
%TO.N,Net-(MOT1-+)*%
X99695000Y-103505000D03*
%TO.P,U4,7,GPIO21_D6_TX_7*%
%TO.N,unconnected-(U4-GPIO21_D6_TX-Pad7)*%
X99695000Y-100965000D03*
%TO.P,U4,8,GPIO20_D7_RX_8*%
%TO.N,unconnected-(U4-GPIO20_D7_RX-Pad8)_1*%
X114935000Y-100965000D03*
%TO.P,U4,9,GPIO8_D8_SCK_9*%
%TO.N,Net-(U4-GPIO8_D8_SCK)*%
X114935000Y-103505000D03*
%TO.P,U4,10,GPIO9_D9_MISO_10*%
%TO.N,Net-(BUZZER1-+)*%
X114935000Y-106045000D03*
%TO.P,U4,11,GPIO10_D10_MOSI_11*%
%TO.N,Net-(U4-GPIO10_D10_MOSI)*%
X114935000Y-108585000D03*
%TO.P,U4,12,3V3_12*%
%TO.N,+3V3*%
X114935000Y-111125000D03*
%TO.P,U4,13,GND_13*%
%TO.N,GND*%
X114935000Y-113665000D03*
%TO.P,U4,14,VBUS_14*%
%TO.N,+5V*%
X114935000Y-116205000D03*
D18*
%TO.P,U4,15*%
%TO.N,N/C*%
X102870000Y-108971000D03*
%TO.P,U4,16*%
X102870000Y-110876000D03*
%TD*%
D19*
%TO.N,GND*%
X124561600Y-116611400D03*
X122021600Y-116611400D03*
X119481600Y-116611400D03*
X111861600Y-116611400D03*
X101701600Y-116611400D03*
X96621600Y-116611400D03*
X94081600Y-116611400D03*
X91541600Y-116611400D03*
X89001600Y-116611400D03*
X127101600Y-114071400D03*
X124561600Y-114071400D03*
X122021600Y-114071400D03*
X119481600Y-114071400D03*
X111861600Y-114071400D03*
X94081600Y-114071400D03*
X91541600Y-114071400D03*
X89001600Y-114071400D03*
X86461600Y-114071400D03*
X129641600Y-111531400D03*
X127101600Y-111531400D03*
X124561600Y-111531400D03*
X122021600Y-111531400D03*
X119481600Y-111531400D03*
X111861600Y-111531400D03*
X94081600Y-111531400D03*
X91541600Y-111531400D03*
X89001600Y-111531400D03*
X86461600Y-111531400D03*
X132181600Y-108991400D03*
X129641600Y-108991400D03*
X127101600Y-108991400D03*
X124561600Y-108991400D03*
X122021600Y-108991400D03*
X119481600Y-108991400D03*
X111861600Y-108991400D03*
X109321600Y-108991400D03*
X106781600Y-108991400D03*
X94081600Y-108991400D03*
X91541600Y-108991400D03*
X89001600Y-108991400D03*
X86461600Y-108991400D03*
X83921600Y-108991400D03*
X81381600Y-108991400D03*
X132181600Y-106451400D03*
X129641600Y-106451400D03*
X111861600Y-106451400D03*
X109321600Y-106451400D03*
X94081600Y-106451400D03*
X91541600Y-106451400D03*
X89001600Y-106451400D03*
X86461600Y-106451400D03*
X83921600Y-106451400D03*
X81381600Y-106451400D03*
X132181600Y-103911400D03*
X129641600Y-103911400D03*
X111861600Y-103911400D03*
X89001600Y-103911400D03*
X86461600Y-103911400D03*
X83921600Y-103911400D03*
X81381600Y-103911400D03*
X132181600Y-101371400D03*
X129641600Y-101371400D03*
X111861600Y-101371400D03*
X89001600Y-101371400D03*
X86461600Y-101371400D03*
X83921600Y-101371400D03*
X81381600Y-101371400D03*
X132181600Y-98831400D03*
X129641600Y-98831400D03*
X94081600Y-98831400D03*
X91541600Y-98831400D03*
X89001600Y-98831400D03*
X86461600Y-98831400D03*
X83921600Y-98831400D03*
X81381600Y-98831400D03*
X132181600Y-96291400D03*
X129641600Y-96291400D03*
X86461600Y-96291400D03*
X83921600Y-96291400D03*
X81381600Y-96291400D03*
X132181600Y-93751400D03*
X129641600Y-93751400D03*
X86461600Y-93751400D03*
X83921600Y-93751400D03*
X81381600Y-93751400D03*
X132181600Y-91211400D03*
X129641600Y-91211400D03*
X124561600Y-91211400D03*
X122021600Y-91211400D03*
X119481600Y-91211400D03*
X116941600Y-91211400D03*
X114401600Y-91211400D03*
X111861600Y-91211400D03*
X104241600Y-91211400D03*
X101701600Y-91211400D03*
X99161600Y-91211400D03*
X96621600Y-91211400D03*
X94081600Y-91211400D03*
X91541600Y-91211400D03*
X86461600Y-91211400D03*
X83921600Y-91211400D03*
X81381600Y-91211400D03*
X132181600Y-88671400D03*
X129641600Y-88671400D03*
X124561600Y-88671400D03*
X122021600Y-88671400D03*
X119481600Y-88671400D03*
X116941600Y-88671400D03*
X114401600Y-88671400D03*
X111861600Y-88671400D03*
X106781600Y-88671400D03*
X104241600Y-88671400D03*
X101701600Y-88671400D03*
X99161600Y-88671400D03*
X96621600Y-88671400D03*
X94081600Y-88671400D03*
X91541600Y-88671400D03*
X86461600Y-88671400D03*
X83921600Y-88671400D03*
X81381600Y-88671400D03*
X132181600Y-86131400D03*
X129641600Y-86131400D03*
X124561600Y-86131400D03*
X122021600Y-86131400D03*
X119481600Y-86131400D03*
X116941600Y-86131400D03*
X114401600Y-86131400D03*
X111861600Y-86131400D03*
X106781600Y-86131400D03*
X104241600Y-86131400D03*
X101701600Y-86131400D03*
X99161600Y-86131400D03*
X96621600Y-86131400D03*
X94081600Y-86131400D03*
X91541600Y-86131400D03*
X86461600Y-86131400D03*
X83921600Y-86131400D03*
X81381600Y-86131400D03*
X132181600Y-83591400D03*
X129641600Y-83591400D03*
X124561600Y-83591400D03*
X122021600Y-83591400D03*
X119481600Y-83591400D03*
X116941600Y-83591400D03*
X114401600Y-83591400D03*
X111861600Y-83591400D03*
X106781600Y-83591400D03*
X104241600Y-83591400D03*
X101701600Y-83591400D03*
X99161600Y-83591400D03*
X96621600Y-83591400D03*
X94081600Y-83591400D03*
X91541600Y-83591400D03*
X86461600Y-83591400D03*
X83921600Y-83591400D03*
X81381600Y-83591400D03*
X132181600Y-81051400D03*
X129641600Y-81051400D03*
X124561600Y-81051400D03*
X122021600Y-81051400D03*
X119481600Y-81051400D03*
X116941600Y-81051400D03*
X114401600Y-81051400D03*
X111861600Y-81051400D03*
X106781600Y-81051400D03*
X104241600Y-81051400D03*
X101701600Y-81051400D03*
X99161600Y-81051400D03*
X96621600Y-81051400D03*
X94081600Y-81051400D03*
X91541600Y-81051400D03*
X86461600Y-81051400D03*
X83921600Y-81051400D03*
X81381600Y-81051400D03*
X132181600Y-78511400D03*
X129641600Y-78511400D03*
X124561600Y-78511400D03*
X122021600Y-78511400D03*
X119481600Y-78511400D03*
X116941600Y-78511400D03*
X114401600Y-78511400D03*
X111861600Y-78511400D03*
X104241600Y-78511400D03*
X101701600Y-78511400D03*
X99161600Y-78511400D03*
X96621600Y-78511400D03*
X94081600Y-78511400D03*
X91541600Y-78511400D03*
X86461600Y-78511400D03*
X83921600Y-78511400D03*
X81381600Y-78511400D03*
X132181600Y-75971400D03*
X129641600Y-75971400D03*
X124561600Y-75971400D03*
X122021600Y-75971400D03*
X119481600Y-75971400D03*
X116941600Y-75971400D03*
X114401600Y-75971400D03*
X111861600Y-75971400D03*
X104241600Y-75971400D03*
X101701600Y-75971400D03*
X99161600Y-75971400D03*
X96621600Y-75971400D03*
X94081600Y-75971400D03*
X91541600Y-75971400D03*
X89001600Y-75971400D03*
X86461600Y-75971400D03*
X83921600Y-75971400D03*
X81381600Y-75971400D03*
X122021600Y-73431400D03*
X119481600Y-73431400D03*
X116941600Y-73431400D03*
X114401600Y-73431400D03*
X111861600Y-73431400D03*
X106781600Y-73431400D03*
X104241600Y-73431400D03*
X101701600Y-73431400D03*
X99161600Y-73431400D03*
X96621600Y-73431400D03*
X94081600Y-73431400D03*
X91541600Y-73431400D03*
X89001600Y-73431400D03*
X86461600Y-73431400D03*
X83921600Y-73431400D03*
X81381600Y-73431400D03*
X119481600Y-70891400D03*
X116941600Y-70891400D03*
X114401600Y-70891400D03*
X111861600Y-70891400D03*
X109321600Y-70891400D03*
X104241600Y-70891400D03*
X101701600Y-70891400D03*
X99161600Y-70891400D03*
X96621600Y-70891400D03*
X94081600Y-70891400D03*
X91541600Y-70891400D03*
X89001600Y-70891400D03*
X101701600Y-68351400D03*
X99161600Y-68351400D03*
X96621600Y-68351400D03*
X94081600Y-68351400D03*
X91541600Y-68351400D03*
X89001600Y-68351400D03*
X124561600Y-65811400D03*
X101701600Y-65811400D03*
X99161600Y-65811400D03*
X96621600Y-65811400D03*
X94081600Y-65811400D03*
X91541600Y-65811400D03*
X89001600Y-65811400D03*
X132181600Y-63271400D03*
X129641600Y-63271400D03*
X127101600Y-63271400D03*
X124561600Y-63271400D03*
X122021600Y-63271400D03*
X119481600Y-63271400D03*
X116941600Y-63271400D03*
X114401600Y-63271400D03*
X111861600Y-63271400D03*
X109321600Y-63271400D03*
X106781600Y-63271400D03*
X104241600Y-63271400D03*
X101701600Y-63271400D03*
X99161600Y-63271400D03*
X96621600Y-63271400D03*
X94081600Y-63271400D03*
X91541600Y-63271400D03*
X89001600Y-63271400D03*
X86461600Y-63271400D03*
X83921600Y-63271400D03*
X81381600Y-63271400D03*
X132181600Y-60731400D03*
X129641600Y-60731400D03*
X127101600Y-60731400D03*
X124561600Y-60731400D03*
X122021600Y-60731400D03*
X119481600Y-60731400D03*
X116941600Y-60731400D03*
X114401600Y-60731400D03*
X111861600Y-60731400D03*
X109321600Y-60731400D03*
X106781600Y-60731400D03*
X104241600Y-60731400D03*
X101701600Y-60731400D03*
X99161600Y-60731400D03*
X96621600Y-60731400D03*
X94081600Y-60731400D03*
X91541600Y-60731400D03*
X89001600Y-60731400D03*
X86461600Y-60731400D03*
X83921600Y-60731400D03*
X81381600Y-60731400D03*
X132181600Y-58191400D03*
X129641600Y-58191400D03*
X127101600Y-58191400D03*
X124561600Y-58191400D03*
X122021600Y-58191400D03*
X119481600Y-58191400D03*
X116941600Y-58191400D03*
X114401600Y-58191400D03*
X111861600Y-58191400D03*
X109321600Y-58191400D03*
X106781600Y-58191400D03*
X104241600Y-58191400D03*
X101701600Y-58191400D03*
X99161600Y-58191400D03*
X96621600Y-58191400D03*
X94081600Y-58191400D03*
X91541600Y-58191400D03*
X89001600Y-58191400D03*
X86461600Y-58191400D03*
X83921600Y-58191400D03*
X81381600Y-58191400D03*
X132181600Y-55651400D03*
X129641600Y-55651400D03*
X127101600Y-55651400D03*
X124561600Y-55651400D03*
X122021600Y-55651400D03*
X119481600Y-55651400D03*
X116941600Y-55651400D03*
X114401600Y-55651400D03*
X111861600Y-55651400D03*
X109321600Y-55651400D03*
X106781600Y-55651400D03*
X104241600Y-55651400D03*
X101701600Y-55651400D03*
X99161600Y-55651400D03*
X96621600Y-55651400D03*
X94081600Y-55651400D03*
X91541600Y-55651400D03*
X89001600Y-55651400D03*
X86461600Y-55651400D03*
X83921600Y-55651400D03*
X81381600Y-55651400D03*
X132181600Y-53111400D03*
X129641600Y-53111400D03*
X127101600Y-53111400D03*
X124561600Y-53111400D03*
X122021600Y-53111400D03*
X119481600Y-53111400D03*
X116941600Y-53111400D03*
X114401600Y-53111400D03*
X111861600Y-53111400D03*
X109321600Y-53111400D03*
X106781600Y-53111400D03*
X104241600Y-53111400D03*
X101701600Y-53111400D03*
X99161600Y-53111400D03*
X96621600Y-53111400D03*
X94081600Y-53111400D03*
X91541600Y-53111400D03*
X89001600Y-53111400D03*
X86461600Y-53111400D03*
X83921600Y-53111400D03*
X81381600Y-53111400D03*
X132181600Y-50571400D03*
X129641600Y-50571400D03*
X127101600Y-50571400D03*
X124561600Y-50571400D03*
X122021600Y-50571400D03*
X119481600Y-50571400D03*
X116941600Y-50571400D03*
X114401600Y-50571400D03*
X111861600Y-50571400D03*
X109321600Y-50571400D03*
X106781600Y-50571400D03*
X104241600Y-50571400D03*
X101701600Y-50571400D03*
X99161600Y-50571400D03*
X96621600Y-50571400D03*
X94081600Y-50571400D03*
X91541600Y-50571400D03*
X89001600Y-50571400D03*
X86461600Y-50571400D03*
X83921600Y-50571400D03*
X81381600Y-50571400D03*
X132181600Y-48031400D03*
X129641600Y-48031400D03*
X127101600Y-48031400D03*
X124561600Y-48031400D03*
X122021600Y-48031400D03*
X119481600Y-48031400D03*
X116941600Y-48031400D03*
X114401600Y-48031400D03*
X111861600Y-48031400D03*
X109321600Y-48031400D03*
X106781600Y-48031400D03*
X104241600Y-48031400D03*
X101701600Y-48031400D03*
X99161600Y-48031400D03*
X96621600Y-48031400D03*
X94081600Y-48031400D03*
X91541600Y-48031400D03*
X89001600Y-48031400D03*
X86461600Y-48031400D03*
X83921600Y-48031400D03*
X81381600Y-48031400D03*
X132181600Y-45491400D03*
X129641600Y-45491400D03*
X127101600Y-45491400D03*
X124561600Y-45491400D03*
X122021600Y-45491400D03*
X119481600Y-45491400D03*
X116941600Y-45491400D03*
X114401600Y-45491400D03*
X111861600Y-45491400D03*
X109321600Y-45491400D03*
X106781600Y-45491400D03*
X104241600Y-45491400D03*
X101701600Y-45491400D03*
X99161600Y-45491400D03*
X96621600Y-45491400D03*
X94081600Y-45491400D03*
X91541600Y-45491400D03*
X89001600Y-45491400D03*
X86461600Y-45491400D03*
X83921600Y-45491400D03*
X81381600Y-45491400D03*
X132181600Y-42951400D03*
X129641600Y-42951400D03*
X127101600Y-42951400D03*
X124561600Y-42951400D03*
X122021600Y-42951400D03*
X119481600Y-42951400D03*
X116941600Y-42951400D03*
X114401600Y-42951400D03*
X111861600Y-42951400D03*
X109321600Y-42951400D03*
X106781600Y-42951400D03*
X104241600Y-42951400D03*
X101701600Y-42951400D03*
X99161600Y-42951400D03*
X96621600Y-42951400D03*
X94081600Y-42951400D03*
X91541600Y-42951400D03*
X89001600Y-42951400D03*
X86461600Y-42951400D03*
X83921600Y-42951400D03*
X81381600Y-42951400D03*
X132181600Y-40411400D03*
X129641600Y-40411400D03*
X127101600Y-40411400D03*
X116941600Y-40411400D03*
X114401600Y-40411400D03*
X111861600Y-40411400D03*
X109321600Y-40411400D03*
X106781600Y-40411400D03*
X104241600Y-40411400D03*
X101701600Y-40411400D03*
X99161600Y-40411400D03*
X96621600Y-40411400D03*
X89001600Y-40411400D03*
X86461600Y-40411400D03*
X83921600Y-40411400D03*
X81381600Y-40411400D03*
X129641600Y-37871400D03*
X127101600Y-37871400D03*
X89001600Y-37871400D03*
X86461600Y-37871400D03*
X83921600Y-37871400D03*
X127101600Y-35331400D03*
X89001600Y-35331400D03*
X86461600Y-35331400D03*
X124561600Y-32791400D03*
X122021600Y-32791400D03*
X119481600Y-32791400D03*
X116941600Y-32791400D03*
X114401600Y-32791400D03*
X101701600Y-32791400D03*
X99161600Y-32791400D03*
X96621600Y-32791400D03*
X94081600Y-32791400D03*
X91541600Y-32791400D03*
X89001600Y-32791400D03*
X106781600Y-106451400D03*
X83921600Y-111531400D03*
X132181600Y-73431400D03*
X129641600Y-73431400D03*
%TD*%
%TO.N,Net-(U4-GPIO8_D8_SCK)*%
D20*
X125806200Y-104343200D02*
X124612400Y-105537000D01*
X124612400Y-105537000D02*
X116967000Y-105537000D01*
X125806200Y-98958400D02*
X125806200Y-104343200D01*
X125095000Y-98247200D02*
X125806200Y-98958400D01*
X105855000Y-97195000D02*
X106907200Y-98247200D01*
X106907200Y-98247200D02*
X125095000Y-98247200D01*
X105855000Y-95830000D02*
X105855000Y-97195000D01*
X116967000Y-105537000D02*
X114935000Y-103505000D01*
%TO.N,GND*%
X118250000Y-100893750D02*
X118308250Y-100893750D01*
X116015000Y-95830000D02*
X116031400Y-95830000D01*
%TO.N,Net-(U4-GPIO4_A2_D2)*%
X123050000Y-103893750D02*
X118250000Y-103893750D01*
%TO.N,Net-(U4-GPIO10_D10_MOSI)*%
X109956600Y-89188400D02*
X103315000Y-95830000D01*
X109956600Y-73761600D02*
X109956600Y-89188400D01*
X106680000Y-70485000D02*
X109956600Y-73761600D01*
X108585000Y-65405000D02*
X106680000Y-67310000D01*
X120580685Y-65405000D02*
X108585000Y-65405000D01*
X127152400Y-71976715D02*
X120580685Y-65405000D01*
X124841000Y-107645200D02*
X127152400Y-105333800D01*
X106680000Y-67310000D02*
X106680000Y-70485000D01*
X115874800Y-107645200D02*
X124841000Y-107645200D01*
X114935000Y-108585000D02*
X115874800Y-107645200D01*
%TO.N,Net-(U4-GPIO2_A0_D0)*%
X96380000Y-103893750D02*
X91580000Y-103893750D01*
X96380000Y-113967630D02*
X96380000Y-103893750D01*
%TO.N,Net-(U4-GPIO3_A1_D1)*%
X104775000Y-103893750D02*
X109575000Y-103893750D01*
X104775000Y-111125000D02*
X104775000Y-103893750D01*
%TO.N,Net-(U4-GPIO4_A2_D2)*%
X124299850Y-103893750D02*
X123050000Y-103893750D01*
X125298200Y-102895400D02*
X124299850Y-103893750D01*
X125298200Y-99085400D02*
X125298200Y-102895400D01*
X124917200Y-98704400D02*
X125298200Y-99085400D01*
X102590600Y-99364800D02*
X103251000Y-98704400D01*
X103251000Y-98704400D02*
X124917200Y-98704400D01*
X100757000Y-108793000D02*
X102590600Y-106959400D01*
X100757000Y-110063000D02*
X100757000Y-108793000D01*
X102590600Y-106959400D02*
X102590600Y-99364800D01*
X99695000Y-111125000D02*
X100757000Y-110063000D01*
%TO.N,Net-(U4-GPIO5_A3_D3)*%
X101955600Y-106324400D02*
X99695000Y-108585000D01*
X101955600Y-94355600D02*
X101955600Y-106324400D01*
X101600000Y-94000000D02*
X101955600Y-94355600D01*
X101600000Y-93980000D02*
X101600000Y-94000000D01*
X98235000Y-94805000D02*
X99060000Y-93980000D01*
X99060000Y-93980000D02*
X101600000Y-93980000D01*
X98235000Y-95830000D02*
X98235000Y-94805000D01*
%TO.N,+3V3*%
X120015000Y-92075000D02*
X118555000Y-93535000D01*
X124460000Y-92075000D02*
X120015000Y-92075000D01*
X126219000Y-93834000D02*
X124460000Y-92075000D01*
X126219000Y-104743200D02*
X126219000Y-93834000D01*
X124434600Y-106527600D02*
X126219000Y-104743200D01*
X115884495Y-105492600D02*
X115938886Y-105492600D01*
X114495105Y-104983000D02*
X115374895Y-104983000D01*
X115374895Y-104983000D02*
X115884495Y-105492600D01*
X118555000Y-93535000D02*
X118555000Y-95830000D01*
X115938886Y-105492600D02*
X116973886Y-106527600D01*
X113873000Y-110063000D02*
X113873000Y-105605105D01*
X113873000Y-105605105D02*
X114495105Y-104983000D01*
X114935000Y-111125000D02*
X113873000Y-110063000D01*
X116973886Y-106527600D02*
X124434600Y-106527600D01*
%TO.N,Net-(BUZZER1-+)*%
X115087400Y-105892600D02*
X114935000Y-106045000D01*
X115773200Y-105892600D02*
X115087400Y-105892600D01*
X116941600Y-107061000D02*
X115773200Y-105892600D01*
X124536200Y-107061000D02*
X116941600Y-107061000D01*
X126619000Y-73914000D02*
X126619000Y-104978200D01*
X126619000Y-104978200D02*
X124536200Y-107061000D01*
X120015000Y-67310000D02*
X126619000Y-73914000D01*
X110490000Y-67310000D02*
X120015000Y-67310000D01*
%TO.N,Net-(U4-GPIO6_D4_SDA)*%
X100775000Y-96270000D02*
X100775000Y-104965000D01*
X100775000Y-104965000D02*
X99695000Y-106045000D01*
%TO.N,Net-(U4-GPIO2_A0_D0)*%
X99695000Y-116205000D02*
X98617370Y-116205000D01*
X98617370Y-116205000D02*
X96380000Y-113967630D01*
%TO.N,Net-(U4-GPIO3_A1_D1)*%
X99695000Y-113665000D02*
X102235000Y-113665000D01*
X102235000Y-113665000D02*
X104775000Y-111125000D01*
%TO.N,Net-(MOT1-+)*%
X97480000Y-101902214D02*
X97480000Y-99009365D01*
X99082786Y-103505000D02*
X97480000Y-101902214D01*
X97480000Y-99009365D02*
X96260635Y-97790000D01*
X96260635Y-97790000D02*
X90170000Y-97790000D01*
X89535000Y-78740000D02*
X90830000Y-77445000D01*
X90170000Y-97790000D02*
X89535000Y-97155000D01*
X89535000Y-97155000D02*
X89535000Y-78740000D01*
X90830000Y-77445000D02*
X106610000Y-77445000D01*
%TO.N,Net-(U4-GPIO10_D10_MOSI)*%
X127152400Y-105333800D02*
X127152400Y-71976715D01*
%TD*%
%TA.AperFunction,Conductor*%
%TO.N,GND*%
G36*
X124228448Y-92694407D02*
G01*
X124240261Y-92704496D01*
X125589504Y-94053739D01*
X125617281Y-94108256D01*
X125618500Y-94123743D01*
X125618500Y-97684698D01*
X125615217Y-97694802D01*
X125616318Y-97705370D01*
X125605975Y-97723245D01*
X125599593Y-97742889D01*
X125590996Y-97749135D01*
X125585676Y-97758330D01*
X125566804Y-97766711D01*
X125550093Y-97778853D01*
X125539467Y-97778853D01*
X125529758Y-97783165D01*
X125514488Y-97778853D01*
X125488907Y-97778853D01*
X125469921Y-97770389D01*
X125463998Y-97766962D01*
X125463716Y-97766680D01*
X125367176Y-97710943D01*
X125367095Y-97710896D01*
X125326788Y-97687624D01*
X125326785Y-97687623D01*
X125174057Y-97646699D01*
X125015943Y-97646699D01*
X125009880Y-97646699D01*
X125009864Y-97646700D01*
X107196944Y-97646700D01*
X107138753Y-97627793D01*
X107126940Y-97617704D01*
X106896021Y-97386785D01*
X106569290Y-97060055D01*
X106541514Y-97005539D01*
X106551085Y-96945107D01*
X106581103Y-96909960D01*
X106702219Y-96821966D01*
X106846966Y-96677219D01*
X106967287Y-96511610D01*
X107036790Y-96375201D01*
X107080055Y-96331937D01*
X107140487Y-96322366D01*
X107195003Y-96350143D01*
X107213210Y-96375202D01*
X107282712Y-96511609D01*
X107282714Y-96511613D01*
X107403029Y-96677213D01*
X107403031Y-96677215D01*
X107403034Y-96677219D01*
X107547781Y-96821966D01*
X107547784Y-96821968D01*
X107547786Y-96821970D01*
X107713386Y-96942285D01*
X107713390Y-96942287D01*
X107895781Y-97035220D01*
X108090466Y-97098477D01*
X108090467Y-97098477D01*
X108090470Y-97098478D01*
X108292645Y-97130500D01*
X108292648Y-97130500D01*
X108497355Y-97130500D01*
X108699529Y-97098478D01*
X108699530Y-97098477D01*
X108699534Y-97098477D01*
X108894219Y-97035220D01*
X109076610Y-96942287D01*
X109077201Y-96941858D01*
X109131813Y-96902180D01*
X109242219Y-96821966D01*
X109386966Y-96677219D01*
X109507287Y-96511610D01*
X109576790Y-96375201D01*
X109620055Y-96331937D01*
X109680487Y-96322366D01*
X109735003Y-96350143D01*
X109753210Y-96375202D01*
X109822712Y-96511609D01*
X109822714Y-96511613D01*
X109943029Y-96677213D01*
X109943031Y-96677215D01*
X109943034Y-96677219D01*
X110087781Y-96821966D01*
X110087784Y-96821968D01*
X110087786Y-96821970D01*
X110253386Y-96942285D01*
X110253390Y-96942287D01*
X110435781Y-97035220D01*
X110630466Y-97098477D01*
X110630467Y-97098477D01*
X110630470Y-97098478D01*
X110832645Y-97130500D01*
X110832648Y-97130500D01*
X111037355Y-97130500D01*
X111239529Y-97098478D01*
X111239530Y-97098477D01*
X111239534Y-97098477D01*
X111434219Y-97035220D01*
X111616610Y-96942287D01*
X111617201Y-96941858D01*
X111671813Y-96902180D01*
X111782219Y-96821966D01*
X111926966Y-96677219D01*
X112047287Y-96511610D01*
X112116790Y-96375201D01*
X112160055Y-96331937D01*
X112220487Y-96322366D01*
X112275003Y-96350143D01*
X112293210Y-96375202D01*
X112362712Y-96511609D01*
X112362714Y-96511613D01*
X112483029Y-96677213D01*
X112483031Y-96677215D01*
X112483034Y-96677219D01*
X112627781Y-96821966D01*
X112627784Y-96821968D01*
X112627786Y-96821970D01*
X112793386Y-96942285D01*
X112793390Y-96942287D01*
X112975781Y-97035220D01*
X113170466Y-97098477D01*
X113170467Y-97098477D01*
X113170470Y-97098478D01*
X113372645Y-97130500D01*
X113372648Y-97130500D01*
X113577355Y-97130500D01*
X113779529Y-97098478D01*
X113779530Y-97098477D01*
X113779534Y-97098477D01*
X113974219Y-97035220D01*
X114156610Y-96942287D01*
X114157201Y-96941858D01*
X114211813Y-96902180D01*
X114322219Y-96821966D01*
X114466966Y-96677219D01*
X114587287Y-96511610D01*
X114657071Y-96374650D01*
X114700335Y-96331388D01*
X114760767Y-96321816D01*
X114815283Y-96349593D01*
X114833490Y-96374652D01*
X114903139Y-96511348D01*
X114903143Y-96511353D01*
X114935523Y-96555920D01*
X114935524Y-96555920D01*
X115532037Y-95959406D01*
X115549076Y-96022992D01*
X115614902Y-96137006D01*
X115707994Y-96230098D01*
X115822008Y-96295924D01*
X115885591Y-96312961D01*
X115289078Y-96909475D01*
X115333647Y-96941858D01*
X115515972Y-97034756D01*
X115710587Y-97097991D01*
X115912685Y-97130000D01*
X116117315Y-97130000D01*
X116319412Y-97097991D01*
X116514027Y-97034756D01*
X116696342Y-96941863D01*
X116696350Y-96941858D01*
X116740920Y-96909475D01*
X116144407Y-96312962D01*
X116207992Y-96295924D01*
X116322006Y-96230098D01*
X116415098Y-96137006D01*
X116480924Y-96022992D01*
X116497962Y-95959407D01*
X117094475Y-96555920D01*
X117113595Y-96554416D01*
X117124902Y-96546201D01*
X117186087Y-96546198D01*
X117235589Y-96582159D01*
X117254500Y-96640348D01*
X117254500Y-96677865D01*
X117254501Y-96677870D01*
X117260908Y-96737480D01*
X117260909Y-96737485D01*
X117311202Y-96872329D01*
X117396364Y-96986090D01*
X117397454Y-96987546D01*
X117397457Y-96987548D01*
X117397458Y-96987549D01*
X117512670Y-97073797D01*
X117647511Y-97124089D01*
X117647512Y-97124089D01*
X117647517Y-97124091D01*
X117707127Y-97130500D01*
X119402872Y-97130499D01*
X119462483Y-97124091D01*
X119591575Y-97075943D01*
X119597329Y-97073797D01*
X119597329Y-97073796D01*
X119597331Y-97073796D01*
X119712546Y-96987546D01*
X119798796Y-96872331D01*
X119817580Y-96821970D01*
X119849089Y-96737488D01*
X119849090Y-96737485D01*
X119849091Y-96737483D01*
X119855500Y-96677873D01*
X119855499Y-95860142D01*
X119874406Y-95801953D01*
X119923906Y-95765989D01*
X119985092Y-95765989D01*
X120034592Y-95801953D01*
X120045963Y-95822258D01*
X120057314Y-95849663D01*
X120208102Y-96110835D01*
X120391675Y-96350073D01*
X120391677Y-96350075D01*
X120391681Y-96350080D01*
X120604920Y-96563319D01*
X120604924Y-96563322D01*
X120604926Y-96563324D01*
X120831895Y-96737483D01*
X120844168Y-96746900D01*
X121105332Y-96897683D01*
X121383942Y-97013087D01*
X121675232Y-97091138D01*
X121974217Y-97130500D01*
X121974218Y-97130500D01*
X122275782Y-97130500D01*
X122275783Y-97130500D01*
X122574768Y-97091138D01*
X122866058Y-97013087D01*
X123144668Y-96897683D01*
X123405832Y-96746900D01*
X123645080Y-96563319D01*
X123858319Y-96350080D01*
X124041900Y-96110832D01*
X124192683Y-95849668D01*
X124308087Y-95571058D01*
X124386138Y-95279768D01*
X124425500Y-94980783D01*
X124425500Y-94679217D01*
X124386138Y-94380232D01*
X124308087Y-94088942D01*
X124192683Y-93810332D01*
X124041900Y-93549168D01*
X124003773Y-93499480D01*
X123858324Y-93309926D01*
X123858322Y-93309924D01*
X123858319Y-93309920D01*
X123645080Y-93096681D01*
X123645075Y-93096677D01*
X123645073Y-93096675D01*
X123405835Y-92913102D01*
X123405832Y-92913100D01*
X123314269Y-92860236D01*
X123273329Y-92814767D01*
X123266933Y-92753917D01*
X123297526Y-92700929D01*
X123353422Y-92676042D01*
X123363770Y-92675500D01*
X124170257Y-92675500D01*
X124228448Y-92694407D01*
G37*
%TD.AperFunction*%
%TA.AperFunction,Conductor*%
G36*
X109350235Y-66024407D02*
G01*
X109386199Y-66073907D01*
X109386199Y-66135093D01*
X109362049Y-66174501D01*
X109269207Y-66267344D01*
X109269206Y-66267345D01*
X109121128Y-66471157D01*
X109006759Y-66695620D01*
X108928908Y-66935219D01*
X108889500Y-67184034D01*
X108889500Y-67435965D01*
X108928908Y-67684780D01*
X109006759Y-67924379D01*
X109050384Y-68009999D01*
X109121130Y-68148845D01*
X109269207Y-68352656D01*
X109447344Y-68530793D01*
X109651155Y-68678870D01*
X109875621Y-68793241D01*
X110115215Y-68871090D01*
X110115216Y-68871090D01*
X110115219Y-68871091D01*
X110364035Y-68910500D01*
X110364038Y-68910500D01*
X110615965Y-68910500D01*
X110864780Y-68871091D01*
X110864781Y-68871090D01*
X110864785Y-68871090D01*
X111104379Y-68793241D01*
X111328845Y-68678870D01*
X111532656Y-68530793D01*
X111710793Y-68352656D01*
X111858870Y-68148845D01*
X111952770Y-67964554D01*
X111996035Y-67921290D01*
X112040980Y-67910500D01*
X119725257Y-67910500D01*
X119783448Y-67929407D01*
X119795261Y-67939496D01*
X125989504Y-74133739D01*
X126017281Y-74188256D01*
X126018500Y-74203743D01*
X126018500Y-92545256D01*
X125999593Y-92603447D01*
X125950093Y-92639411D01*
X125888907Y-92639411D01*
X125849496Y-92615260D01*
X124940521Y-91706286D01*
X124940520Y-91706284D01*
X124828716Y-91594480D01*
X124741904Y-91544360D01*
X124741903Y-91544359D01*
X124691788Y-91515425D01*
X124691785Y-91515423D01*
X124539057Y-91474499D01*
X124380943Y-91474499D01*
X124374880Y-91474499D01*
X124374864Y-91474500D01*
X120100137Y-91474500D01*
X120100121Y-91474499D01*
X120094058Y-91474499D01*
X119935943Y-91474499D01*
X119783215Y-91515423D01*
X119783213Y-91515423D01*
X119783209Y-91515425D01*
X119646286Y-91594478D01*
X119646284Y-91594480D01*
X118186286Y-93054478D01*
X118186284Y-93054480D01*
X118186283Y-93054479D01*
X118074480Y-93166283D01*
X118049413Y-93209699D01*
X118049414Y-93209700D01*
X117995423Y-93303215D01*
X117954499Y-93455943D01*
X117954499Y-93455945D01*
X117954499Y-93622031D01*
X117954500Y-93622044D01*
X117954500Y-94430500D01*
X117935593Y-94488691D01*
X117886093Y-94524655D01*
X117855501Y-94529500D01*
X117707131Y-94529500D01*
X117707129Y-94529500D01*
X117707128Y-94529501D01*
X117702486Y-94530000D01*
X117647519Y-94535908D01*
X117647514Y-94535909D01*
X117512670Y-94586202D01*
X117397458Y-94672450D01*
X117397450Y-94672458D01*
X117311202Y-94787670D01*
X117260910Y-94922511D01*
X117260909Y-94922517D01*
X117254645Y-94980784D01*
X117254500Y-94982129D01*
X117254500Y-95019644D01*
X117235593Y-95077835D01*
X117186093Y-95113799D01*
X117124907Y-95113799D01*
X117113599Y-95105583D01*
X117094475Y-95104078D01*
X116497961Y-95700591D01*
X116480924Y-95637008D01*
X116415098Y-95522994D01*
X116322006Y-95429902D01*
X116207992Y-95364076D01*
X116144406Y-95347037D01*
X116740920Y-94750524D01*
X116740920Y-94750523D01*
X116696353Y-94718143D01*
X116696348Y-94718139D01*
X116514027Y-94625243D01*
X116319412Y-94562008D01*
X116117315Y-94530000D01*
X115912685Y-94530000D01*
X115710587Y-94562008D01*
X115515972Y-94625243D01*
X115333651Y-94718139D01*
X115333647Y-94718141D01*
X115289078Y-94750523D01*
X115885592Y-95347037D01*
X115822008Y-95364076D01*
X115707994Y-95429902D01*
X115614902Y-95522994D01*
X115549076Y-95637008D01*
X115532037Y-95700592D01*
X114935523Y-95104078D01*
X114903141Y-95148647D01*
X114903139Y-95148651D01*
X114833490Y-95285347D01*
X114790225Y-95328612D01*
X114729793Y-95338183D01*
X114675276Y-95310406D01*
X114657070Y-95285347D01*
X114654227Y-95279768D01*
X114587287Y-95148390D01*
X114587285Y-95148386D01*
X114466970Y-94982786D01*
X114466967Y-94982783D01*
X114466966Y-94982781D01*
X114322219Y-94838034D01*
X114322215Y-94838031D01*
X114322213Y-94838029D01*
X114156613Y-94717714D01*
X114156609Y-94717712D01*
X113974219Y-94624780D01*
X113779529Y-94561521D01*
X113577355Y-94529500D01*
X113577352Y-94529500D01*
X113372648Y-94529500D01*
X113372645Y-94529500D01*
X113170470Y-94561521D01*
X112975780Y-94624780D01*
X112793390Y-94717712D01*
X112793386Y-94717714D01*
X112627786Y-94838029D01*
X112483029Y-94982786D01*
X112362714Y-95148386D01*
X112362712Y-95148390D01*
X112293210Y-95284797D01*
X112249945Y-95328062D01*
X112189513Y-95337633D01*
X112134996Y-95309856D01*
X112116790Y-95284797D01*
X112047287Y-95148390D01*
X112047285Y-95148386D01*
X111926970Y-94982786D01*
X111926967Y-94982783D01*
X111926966Y-94982781D01*
X111782219Y-94838034D01*
X111782215Y-94838031D01*
X111782213Y-94838029D01*
X111616613Y-94717714D01*
X111616609Y-94717712D01*
X111434219Y-94624780D01*
X111239529Y-94561521D01*
X111037355Y-94529500D01*
X111037352Y-94529500D01*
X110832648Y-94529500D01*
X110832645Y-94529500D01*
X110630470Y-94561521D01*
X110435780Y-94624780D01*
X110253390Y-94717712D01*
X110253386Y-94717714D01*
X110087786Y-94838029D01*
X109943029Y-94982786D01*
X109822714Y-95148386D01*
X109822712Y-95148390D01*
X109753210Y-95284797D01*
X109709945Y-95328062D01*
X109649513Y-95337633D01*
X109594996Y-95309856D01*
X109576790Y-95284797D01*
X109507287Y-95148390D01*
X109507285Y-95148386D01*
X109386970Y-94982786D01*
X109386967Y-94982783D01*
X109386966Y-94982781D01*
X109242219Y-94838034D01*
X109242215Y-94838031D01*
X109242213Y-94838029D01*
X109076613Y-94717714D01*
X109076609Y-94717712D01*
X108894219Y-94624780D01*
X108699529Y-94561521D01*
X108497355Y-94529500D01*
X108497352Y-94529500D01*
X108292648Y-94529500D01*
X108292645Y-94529500D01*
X108090470Y-94561521D01*
X107895780Y-94624780D01*
X107713390Y-94717712D01*
X107713386Y-94717714D01*
X107547786Y-94838029D01*
X107403029Y-94982786D01*
X107282714Y-95148386D01*
X107282712Y-95148390D01*
X107213210Y-95284797D01*
X107169945Y-95328062D01*
X107109513Y-95337633D01*
X107054996Y-95309856D01*
X107036790Y-95284797D01*
X106967287Y-95148390D01*
X106967285Y-95148386D01*
X106846970Y-94982786D01*
X106846967Y-94982783D01*
X106846966Y-94982781D01*
X106702219Y-94838034D01*
X106702215Y-94838031D01*
X106702213Y-94838029D01*
X106536613Y-94717714D01*
X106536609Y-94717712D01*
X106354219Y-94624780D01*
X106159529Y-94561521D01*
X105957355Y-94529500D01*
X105957352Y-94529500D01*
X105752648Y-94529500D01*
X105752645Y-94529500D01*
X105711491Y-94536018D01*
X105651059Y-94526447D01*
X105607794Y-94483182D01*
X105598223Y-94422750D01*
X105625998Y-94368235D01*
X110437120Y-89557116D01*
X110516177Y-89420185D01*
X110557101Y-89267457D01*
X110557101Y-89109342D01*
X110557101Y-89103280D01*
X110557100Y-89103262D01*
X110557100Y-73682544D01*
X110516177Y-73529816D01*
X110516176Y-73529813D01*
X110487239Y-73479694D01*
X110487239Y-73479693D01*
X110487237Y-73479691D01*
X110437124Y-73392889D01*
X110437121Y-73392886D01*
X110437120Y-73392884D01*
X110325316Y-73281080D01*
X110325313Y-73281078D01*
X107309496Y-70265261D01*
X107281719Y-70210744D01*
X107280500Y-70195257D01*
X107280500Y-67599743D01*
X107299407Y-67541552D01*
X107309496Y-67529739D01*
X108804739Y-66034496D01*
X108859256Y-66006719D01*
X108874743Y-66005500D01*
X109292044Y-66005500D01*
X109350235Y-66024407D01*
G37*
%TD.AperFunction*%
%TA.AperFunction,Conductor*%
G36*
X124429869Y-30999407D02*
G01*
X124441682Y-31009496D01*
X134090504Y-40658318D01*
X134118281Y-40712835D01*
X134119500Y-40728322D01*
X134119500Y-109131678D01*
X134100593Y-109189869D01*
X134090504Y-109201682D01*
X124441682Y-118850504D01*
X124387165Y-118878281D01*
X124371678Y-118879500D01*
X89623322Y-118879500D01*
X89565131Y-118860593D01*
X89553318Y-118850504D01*
X79904496Y-109201682D01*
X79876719Y-109147165D01*
X79875500Y-109131678D01*
X79875500Y-100791434D01*
X90280000Y-100791434D01*
X90280000Y-100996065D01*
X90312008Y-101198162D01*
X90375243Y-101392777D01*
X90468139Y-101575098D01*
X90468143Y-101575103D01*
X90500523Y-101619670D01*
X90500524Y-101619670D01*
X91097037Y-101023156D01*
X91114076Y-101086742D01*
X91179902Y-101200756D01*
X91272994Y-101293848D01*
X91387008Y-101359674D01*
X91450591Y-101376711D01*
X90854078Y-101973225D01*
X90898647Y-102005608D01*
X91080972Y-102098506D01*
X91275587Y-102161741D01*
X91477685Y-102193750D01*
X91682315Y-102193750D01*
X91884412Y-102161741D01*
X92079027Y-102098506D01*
X92261342Y-102005613D01*
X92261350Y-102005608D01*
X92305920Y-101973225D01*
X91709407Y-101376712D01*
X91772992Y-101359674D01*
X91887006Y-101293848D01*
X91980098Y-101200756D01*
X92045924Y-101086742D01*
X92062962Y-101023157D01*
X92659475Y-101619670D01*
X92691858Y-101575100D01*
X92691863Y-101575092D01*
X92784756Y-101392777D01*
X92847991Y-101198162D01*
X92880000Y-100996065D01*
X92880000Y-100791434D01*
X92847991Y-100589337D01*
X92784756Y-100394722D01*
X92691858Y-100212397D01*
X92659475Y-100167828D01*
X92062961Y-100764341D01*
X92045924Y-100700758D01*
X91980098Y-100586744D01*
X91887006Y-100493652D01*
X91772992Y-100427826D01*
X91709406Y-100410787D01*
X92305920Y-99814274D01*
X92305920Y-99814273D01*
X92261353Y-99781893D01*
X92261348Y-99781889D01*
X92079027Y-99688993D01*
X91884412Y-99625758D01*
X91682315Y-99593750D01*
X91477685Y-99593750D01*
X91275587Y-99625758D01*
X91080972Y-99688993D01*
X90898651Y-99781889D01*
X90898647Y-99781891D01*
X90854078Y-99814273D01*
X91450592Y-100410787D01*
X91387008Y-100427826D01*
X91272994Y-100493652D01*
X91179902Y-100586744D01*
X91114076Y-100700758D01*
X91097037Y-100764342D01*
X90500523Y-100167828D01*
X90468141Y-100212397D01*
X90468139Y-100212401D01*
X90375243Y-100394722D01*
X90312008Y-100589337D01*
X90280000Y-100791434D01*
X79875500Y-100791434D01*
X79875500Y-78660943D01*
X88934499Y-78660943D01*
X88934499Y-78819057D01*
X88934499Y-78819059D01*
X88934500Y-78827038D01*
X88934500Y-97069863D01*
X88934499Y-97069881D01*
X88934499Y-97075943D01*
X88934499Y-97234057D01*
X88975423Y-97386785D01*
X88975424Y-97386786D01*
X88995341Y-97421284D01*
X88995340Y-97421284D01*
X89054478Y-97523713D01*
X89054480Y-97523716D01*
X89166284Y-97635520D01*
X89166286Y-97635521D01*
X89801284Y-98270520D01*
X89938216Y-98349577D01*
X89938218Y-98349577D01*
X89938219Y-98349578D01*
X89962190Y-98356001D01*
X90090940Y-98390500D01*
X90090942Y-98390501D01*
X90090943Y-98390501D01*
X90255121Y-98390501D01*
X90255137Y-98390500D01*
X95970892Y-98390500D01*
X96029083Y-98409407D01*
X96040896Y-98419496D01*
X96850504Y-99229104D01*
X96878281Y-99283621D01*
X96879500Y-99299108D01*
X96879500Y-99552884D01*
X96860593Y-99611075D01*
X96811093Y-99647039D01*
X96749908Y-99647039D01*
X96684414Y-99625759D01*
X96482315Y-99593750D01*
X96277685Y-99593750D01*
X96075587Y-99625758D01*
X95880972Y-99688993D01*
X95698651Y-99781889D01*
X95698647Y-99781891D01*
X95654078Y-99814273D01*
X96250592Y-100410788D01*
X96187008Y-100427826D01*
X96072994Y-100493652D01*
X95979902Y-100586744D01*
X95914076Y-100700758D01*
X95897037Y-100764342D01*
X95300523Y-100167828D01*
X95268141Y-100212397D01*
X95268139Y-100212401D01*
X95175243Y-100394722D01*
X95112008Y-100589337D01*
X95080000Y-100791434D01*
X95080000Y-100996065D01*
X95112008Y-101198162D01*
X95175243Y-101392777D01*
X95268139Y-101575098D01*
X95268143Y-101575103D01*
X95300523Y-101619670D01*
X95300524Y-101619670D01*
X95897037Y-101023156D01*
X95914076Y-101086742D01*
X95979902Y-101200756D01*
X96072994Y-101293848D01*
X96187008Y-101359674D01*
X96250591Y-101376711D01*
X95654078Y-101973225D01*
X95698647Y-102005608D01*
X95880972Y-102098506D01*
X96075587Y-102161741D01*
X96277685Y-102193750D01*
X96482315Y-102193750D01*
X96684412Y-102161741D01*
X96820384Y-102117561D01*
X96881569Y-102117561D01*
X96931070Y-102153525D01*
X96936713Y-102162216D01*
X96999478Y-102270927D01*
X96999480Y-102270930D01*
X97111284Y-102382734D01*
X97111286Y-102382735D01*
X98428496Y-103699946D01*
X98456273Y-103754462D01*
X98463586Y-103800634D01*
X98481035Y-103854335D01*
X98524995Y-103989632D01*
X98615213Y-104166694D01*
X98732019Y-104327464D01*
X98872536Y-104467981D01*
X99033306Y-104584787D01*
X99210368Y-104675005D01*
X99228342Y-104680845D01*
X99277842Y-104716809D01*
X99296749Y-104775000D01*
X99277842Y-104833191D01*
X99228342Y-104869155D01*
X99210367Y-104874995D01*
X99033308Y-104965211D01*
X98872537Y-105082018D01*
X98732018Y-105222537D01*
X98615211Y-105383308D01*
X98524994Y-105560369D01*
X98463586Y-105749366D01*
X98432500Y-105945635D01*
X98432500Y-106144364D01*
X98463586Y-106340633D01*
X98463587Y-106340636D01*
X98524995Y-106529632D01*
X98615213Y-106706694D01*
X98732019Y-106867464D01*
X98872536Y-107007981D01*
X99033306Y-107124787D01*
X99210368Y-107215005D01*
X99228342Y-107220845D01*
X99277842Y-107256809D01*
X99296749Y-107315000D01*
X99277842Y-107373191D01*
X99228342Y-107409155D01*
X99210367Y-107414995D01*
X99033308Y-107505211D01*
X98872537Y-107622018D01*
X98732018Y-107762537D01*
X98615211Y-107923308D01*
X98524994Y-108100369D01*
X98463586Y-108289366D01*
X98432500Y-108485635D01*
X98432500Y-108684364D01*
X98463586Y-108880633D01*
X98463587Y-108880636D01*
X98524995Y-109069632D01*
X98615213Y-109246694D01*
X98732019Y-109407464D01*
X98872536Y-109547981D01*
X99033306Y-109664787D01*
X99210368Y-109755005D01*
X99228342Y-109760845D01*
X99277842Y-109796809D01*
X99296749Y-109855000D01*
X99277842Y-109913191D01*
X99228342Y-109949155D01*
X99210367Y-109954995D01*
X99033308Y-110045211D01*
X98872537Y-110162018D01*
X98732018Y-110302537D01*
X98615211Y-110463308D01*
X98524994Y-110640369D01*
X98463586Y-110829366D01*
X98432500Y-111025635D01*
X98432500Y-111224364D01*
X98463586Y-111420633D01*
X98487331Y-111493715D01*
X98524995Y-111609632D01*
X98615213Y-111786694D01*
X98732019Y-111947464D01*
X98872536Y-112087981D01*
X99033306Y-112204787D01*
X99210368Y-112295005D01*
X99228342Y-112300845D01*
X99277842Y-112336809D01*
X99296749Y-112395000D01*
X99277842Y-112453191D01*
X99228342Y-112489154D01*
X99225663Y-112490025D01*
X99210367Y-112494995D01*
X99033308Y-112585211D01*
X98872537Y-112702018D01*
X98732018Y-112842537D01*
X98615211Y-113003308D01*
X98524994Y-113180369D01*
X98463586Y-113369366D01*
X98432500Y-113565635D01*
X98432500Y-113764364D01*
X98463586Y-113960633D01*
X98524994Y-114149630D01*
X98615210Y-114326690D01*
X98615213Y-114326694D01*
X98732019Y-114487464D01*
X98872536Y-114627981D01*
X99033306Y-114744787D01*
X99210368Y-114835005D01*
X99228342Y-114840845D01*
X99277842Y-114876809D01*
X99296749Y-114935000D01*
X99277842Y-114993191D01*
X99228342Y-115029155D01*
X99210367Y-115034995D01*
X99033308Y-115125211D01*
X98872533Y-115242021D01*
X98758083Y-115356471D01*
X98703567Y-115384248D01*
X98643135Y-115374676D01*
X98618076Y-115356471D01*
X97009496Y-113747891D01*
X96981719Y-113693374D01*
X96980500Y-113677887D01*
X96980500Y-105108031D01*
X96999407Y-105049840D01*
X97034557Y-105019821D01*
X97034851Y-105019671D01*
X97061610Y-105006037D01*
X97227219Y-104885716D01*
X97371966Y-104740969D01*
X97492287Y-104575360D01*
X97585220Y-104392969D01*
X97648477Y-104198284D01*
X97648478Y-104198279D01*
X97680500Y-103996105D01*
X97680500Y-103791394D01*
X97648478Y-103589220D01*
X97588829Y-103405639D01*
X97585220Y-103394531D01*
X97492287Y-103212140D01*
X97492285Y-103212136D01*
X97371970Y-103046536D01*
X97371968Y-103046534D01*
X97371966Y-103046531D01*
X97227219Y-102901784D01*
X97227215Y-102901781D01*
X97227213Y-102901779D01*
X97061613Y-102781464D01*
X97061609Y-102781462D01*
X96879219Y-102688530D01*
X96684529Y-102625271D01*
X96482355Y-102593250D01*
X96482352Y-102593250D01*
X96277648Y-102593250D01*
X96277645Y-102593250D01*
X96075470Y-102625271D01*
X95880780Y-102688530D01*
X95698390Y-102781462D01*
X95698386Y-102781464D01*
X95532786Y-102901779D01*
X95388029Y-103046536D01*
X95267714Y-103212136D01*
X95267712Y-103212140D01*
X95253928Y-103239195D01*
X95210664Y-103282459D01*
X95165718Y-103293250D01*
X92794282Y-103293250D01*
X92736091Y-103274343D01*
X92706072Y-103239195D01*
X92692287Y-103212140D01*
X92692285Y-103212136D01*
X92571970Y-103046536D01*
X92571968Y-103046534D01*
X92571966Y-103046531D01*
X92427219Y-102901784D01*
X92427215Y-102901781D01*
X92427213Y-102901779D01*
X92261613Y-102781464D01*
X92261609Y-102781462D01*
X92079219Y-102688530D01*
X91884529Y-102625271D01*
X91682355Y-102593250D01*
X91682352Y-102593250D01*
X91477648Y-102593250D01*
X91477645Y-102593250D01*
X91275470Y-102625271D01*
X91080780Y-102688530D01*
X90898390Y-102781462D01*
X90898386Y-102781464D01*
X90732786Y-102901779D01*
X90588029Y-103046536D01*
X90467714Y-103212136D01*
X90467712Y-103212140D01*
X90374780Y-103394530D01*
X90311521Y-103589220D01*
X90279500Y-103791394D01*
X90279500Y-103996105D01*
X90311521Y-104198279D01*
X90374780Y-104392969D01*
X90467712Y-104575359D01*
X90467714Y-104575363D01*
X90588029Y-104740963D01*
X90588031Y-104740965D01*
X90588034Y-104740969D01*
X90732781Y-104885716D01*
X90732784Y-104885718D01*
X90732786Y-104885720D01*
X90898386Y-105006035D01*
X90898390Y-105006037D01*
X91080781Y-105098970D01*
X91275466Y-105162227D01*
X91275467Y-105162227D01*
X91275470Y-105162228D01*
X91477645Y-105194250D01*
X91477648Y-105194250D01*
X91682355Y-105194250D01*
X91884529Y-105162228D01*
X91884530Y-105162227D01*
X91884534Y-105162227D01*
X92079219Y-105098970D01*
X92261610Y-105006037D01*
X92427219Y-104885716D01*
X92571966Y-104740969D01*
X92692287Y-104575360D01*
X92706072Y-104548304D01*
X92749336Y-104505041D01*
X92794282Y-104494250D01*
X95165718Y-104494250D01*
X95223909Y-104513157D01*
X95253927Y-104548304D01*
X95257075Y-104554481D01*
X95267712Y-104575359D01*
X95267714Y-104575363D01*
X95388029Y-104740963D01*
X95388031Y-104740965D01*
X95388034Y-104740969D01*
X95532781Y-104885716D01*
X95532784Y-104885718D01*
X95532786Y-104885720D01*
X95698390Y-105006037D01*
X95725443Y-105019821D01*
X95768709Y-105063084D01*
X95779500Y-105108031D01*
X95779500Y-113882493D01*
X95779499Y-113882511D01*
X95779499Y-113888573D01*
X95779499Y-114046687D01*
X95819411Y-114195639D01*
X95820423Y-114199414D01*
X95820425Y-114199418D01*
X95849360Y-114249535D01*
X95849361Y-114249535D01*
X95899480Y-114336346D01*
X96011284Y-114448150D01*
X96011286Y-114448151D01*
X98136848Y-116573713D01*
X98136850Y-116573716D01*
X98248654Y-116685520D01*
X98248656Y-116685521D01*
X98248659Y-116685524D01*
X98248658Y-116685524D01*
X98335461Y-116735637D01*
X98335463Y-116735639D01*
X98335464Y-116735639D01*
X98364402Y-116752346D01*
X98385585Y-116764577D01*
X98538313Y-116805501D01*
X98538314Y-116805501D01*
X98544580Y-116807180D01*
X98544052Y-116809150D01*
X98590897Y-116831488D01*
X98610964Y-116858355D01*
X98615213Y-116866694D01*
X98732019Y-117027464D01*
X98872536Y-117167981D01*
X99033306Y-117284787D01*
X99210368Y-117375005D01*
X99399364Y-117436413D01*
X99477874Y-117448847D01*
X99595636Y-117467500D01*
X99595639Y-117467500D01*
X99794364Y-117467500D01*
X99892498Y-117451956D01*
X99990636Y-117436413D01*
X100179632Y-117375005D01*
X100356694Y-117284787D01*
X100517464Y-117167981D01*
X100657981Y-117027464D01*
X100774787Y-116866694D01*
X100865005Y-116689632D01*
X100926413Y-116500636D01*
X100957500Y-116304361D01*
X100957500Y-116105639D01*
X100957500Y-116105635D01*
X100926413Y-115909366D01*
X100926413Y-115909364D01*
X100865005Y-115720368D01*
X100774787Y-115543306D01*
X100657981Y-115382536D01*
X100517464Y-115242019D01*
X100356694Y-115125213D01*
X100356693Y-115125212D01*
X100356691Y-115125211D01*
X100179628Y-115034993D01*
X100179629Y-115034993D01*
X100161659Y-115029155D01*
X100112158Y-114993192D01*
X100093250Y-114935001D01*
X100112157Y-114876810D01*
X100161656Y-114840846D01*
X100161659Y-114840845D01*
X100179629Y-114835006D01*
X100179629Y-114835005D01*
X100179632Y-114835005D01*
X100356694Y-114744787D01*
X100517464Y-114627981D01*
X100657981Y-114487464D01*
X100774787Y-114326694D01*
X100776142Y-114324034D01*
X100778427Y-114319552D01*
X100821693Y-114276289D01*
X100866635Y-114265500D01*
X102149864Y-114265500D01*
X102149880Y-114265501D01*
X102155943Y-114265501D01*
X102314056Y-114265501D01*
X102314057Y-114265501D01*
X102466785Y-114224577D01*
X102516904Y-114195639D01*
X102603716Y-114145520D01*
X102715520Y-114033716D01*
X102715521Y-114033713D01*
X105143713Y-111605521D01*
X105143716Y-111605520D01*
X105255520Y-111493716D01*
X105334577Y-111356784D01*
X105375500Y-111204057D01*
X105375500Y-105108031D01*
X105394407Y-105049840D01*
X105429557Y-105019821D01*
X105429851Y-105019671D01*
X105456610Y-105006037D01*
X105622219Y-104885716D01*
X105766966Y-104740969D01*
X105887287Y-104575360D01*
X105901072Y-104548304D01*
X105944336Y-104505041D01*
X105989282Y-104494250D01*
X108360718Y-104494250D01*
X108418909Y-104513157D01*
X108448927Y-104548304D01*
X108452075Y-104554481D01*
X108462712Y-104575359D01*
X108462714Y-104575363D01*
X108583029Y-104740963D01*
X108583031Y-104740965D01*
X108583034Y-104740969D01*
X108727781Y-104885716D01*
X108727784Y-104885718D01*
X108727786Y-104885720D01*
X108893386Y-105006035D01*
X108893390Y-105006037D01*
X109075781Y-105098970D01*
X109270466Y-105162227D01*
X109270467Y-105162227D01*
X109270470Y-105162228D01*
X109472645Y-105194250D01*
X109472648Y-105194250D01*
X109677355Y-105194250D01*
X109879529Y-105162228D01*
X109879530Y-105162227D01*
X109879534Y-105162227D01*
X110074219Y-105098970D01*
X110256610Y-105006037D01*
X110422219Y-104885716D01*
X110566966Y-104740969D01*
X110687287Y-104575360D01*
X110780220Y-104392969D01*
X110843477Y-104198284D01*
X110843478Y-104198279D01*
X110875500Y-103996105D01*
X110875500Y-103791394D01*
X110843478Y-103589220D01*
X110783829Y-103405639D01*
X110780220Y-103394531D01*
X110687287Y-103212140D01*
X110687285Y-103212136D01*
X110566970Y-103046536D01*
X110566968Y-103046534D01*
X110566966Y-103046531D01*
X110422219Y-102901784D01*
X110422215Y-102901781D01*
X110422213Y-102901779D01*
X110256613Y-102781464D01*
X110256609Y-102781462D01*
X110074219Y-102688530D01*
X109879529Y-102625271D01*
X109677355Y-102593250D01*
X109677352Y-102593250D01*
X109472648Y-102593250D01*
X109472645Y-102593250D01*
X109270470Y-102625271D01*
X109075780Y-102688530D01*
X108893390Y-102781462D01*
X108893386Y-102781464D01*
X108727786Y-102901779D01*
X108583029Y-103046536D01*
X108462714Y-103212136D01*
X108462712Y-103212140D01*
X108448928Y-103239195D01*
X108405664Y-103282459D01*
X108360718Y-103293250D01*
X105989282Y-103293250D01*
X105931091Y-103274343D01*
X105901072Y-103239195D01*
X105887287Y-103212140D01*
X105887285Y-103212136D01*
X105766970Y-103046536D01*
X105766968Y-103046534D01*
X105766966Y-103046531D01*
X105622219Y-102901784D01*
X105622215Y-102901781D01*
X105622213Y-102901779D01*
X105456613Y-102781464D01*
X105456609Y-102781462D01*
X105274219Y-102688530D01*
X105079529Y-102625271D01*
X104877355Y-102593250D01*
X104877352Y-102593250D01*
X104672648Y-102593250D01*
X104672645Y-102593250D01*
X104470470Y-102625271D01*
X104275780Y-102688530D01*
X104093390Y-102781462D01*
X104093386Y-102781464D01*
X103927786Y-102901779D01*
X103783029Y-103046536D01*
X103662714Y-103212136D01*
X103662712Y-103212140D01*
X103569780Y-103394530D01*
X103506521Y-103589220D01*
X103474500Y-103791394D01*
X103474500Y-103996105D01*
X103506521Y-104198279D01*
X103569780Y-104392969D01*
X103662712Y-104575359D01*
X103662714Y-104575363D01*
X103783029Y-104740963D01*
X103783031Y-104740965D01*
X103783034Y-104740969D01*
X103927781Y-104885716D01*
X103927784Y-104885718D01*
X103927786Y-104885720D01*
X104093390Y-105006037D01*
X104120443Y-105019821D01*
X104163709Y-105063084D01*
X104174500Y-105108031D01*
X104174500Y-107850163D01*
X104155593Y-107908354D01*
X104106093Y-107944318D01*
X104044907Y-107944318D01*
X104042803Y-107943608D01*
X104018658Y-107935159D01*
X104018651Y-107935157D01*
X103888568Y-107920501D01*
X103888553Y-107920500D01*
X103888552Y-107920500D01*
X103888551Y-107920500D01*
X102717742Y-107920500D01*
X102659551Y-107901593D01*
X102623587Y-107852093D01*
X102623587Y-107790907D01*
X102647738Y-107751497D01*
X102777216Y-107622018D01*
X102959313Y-107439921D01*
X102959316Y-107439920D01*
X103071120Y-107328116D01*
X103114369Y-107253205D01*
X103136388Y-107215068D01*
X103136396Y-107215053D01*
X103136424Y-107215005D01*
X103150177Y-107191185D01*
X103191101Y-107038457D01*
X103191101Y-106880343D01*
X103191101Y-106874281D01*
X103191100Y-106874263D01*
X103191100Y-100791434D01*
X103475000Y-100791434D01*
X103475000Y-100996065D01*
X103507008Y-101198162D01*
X103570243Y-101392777D01*
X103663139Y-101575098D01*
X103663143Y-101575103D01*
X103695523Y-101619670D01*
X103695524Y-101619670D01*
X104292037Y-101023156D01*
X104309076Y-101086742D01*
X104374902Y-101200756D01*
X104467994Y-101293848D01*
X104582008Y-101359674D01*
X104645591Y-101376711D01*
X104049078Y-101973225D01*
X104093647Y-102005608D01*
X104275972Y-102098506D01*
X104470587Y-102161741D01*
X104672685Y-102193750D01*
X104877315Y-102193750D01*
X105079412Y-102161741D01*
X105274027Y-102098506D01*
X105456342Y-102005613D01*
X105456350Y-102005608D01*
X105500920Y-101973225D01*
X104904407Y-101376712D01*
X104967992Y-101359674D01*
X105082006Y-101293848D01*
X105175098Y-101200756D01*
X105240924Y-101086742D01*
X105257962Y-101023157D01*
X105854475Y-101619670D01*
X105886858Y-101575100D01*
X105886863Y-101575092D01*
X105979756Y-101392777D01*
X106042991Y-101198162D01*
X106075000Y-100996065D01*
X106075000Y-100791434D01*
X108275000Y-100791434D01*
X108275000Y-100996065D01*
X108307008Y-101198162D01*
X108370243Y-101392777D01*
X108463139Y-101575098D01*
X108463143Y-101575103D01*
X108495523Y-101619670D01*
X108495524Y-101619670D01*
X109092037Y-101023156D01*
X109109076Y-101086742D01*
X109174902Y-101200756D01*
X109267994Y-101293848D01*
X109382008Y-101359674D01*
X109445591Y-101376711D01*
X108849078Y-101973225D01*
X108893647Y-102005608D01*
X109075972Y-102098506D01*
X109270587Y-102161741D01*
X109472685Y-102193750D01*
X109677315Y-102193750D01*
X109879412Y-102161741D01*
X110074027Y-102098506D01*
X110256342Y-102005613D01*
X110256350Y-102005608D01*
X110300920Y-101973225D01*
X109704407Y-101376712D01*
X109767992Y-101359674D01*
X109882006Y-101293848D01*
X109975098Y-101200756D01*
X110040924Y-101086742D01*
X110057962Y-101023157D01*
X110654475Y-101619670D01*
X110686858Y-101575100D01*
X110686863Y-101575092D01*
X110779756Y-101392777D01*
X110842991Y-101198162D01*
X110875000Y-100996065D01*
X110875000Y-100791434D01*
X110842991Y-100589337D01*
X110779756Y-100394722D01*
X110686858Y-100212397D01*
X110654475Y-100167828D01*
X110057961Y-100764341D01*
X110040924Y-100700758D01*
X109975098Y-100586744D01*
X109882006Y-100493652D01*
X109767992Y-100427826D01*
X109704406Y-100410787D01*
X110300920Y-99814274D01*
X110300920Y-99814273D01*
X110256353Y-99781893D01*
X110256348Y-99781889D01*
X110074027Y-99688993D01*
X109879412Y-99625758D01*
X109677315Y-99593750D01*
X109472685Y-99593750D01*
X109270587Y-99625758D01*
X109075972Y-99688993D01*
X108893651Y-99781889D01*
X108893647Y-99781891D01*
X108849078Y-99814273D01*
X109445592Y-100410787D01*
X109382008Y-100427826D01*
X109267994Y-100493652D01*
X109174902Y-100586744D01*
X109109076Y-100700758D01*
X109092037Y-100764342D01*
X108495523Y-100167828D01*
X108463141Y-100212397D01*
X108463139Y-100212401D01*
X108370243Y-100394722D01*
X108307008Y-100589337D01*
X108275000Y-100791434D01*
X106075000Y-100791434D01*
X106042991Y-100589337D01*
X105979756Y-100394722D01*
X105886858Y-100212397D01*
X105854475Y-100167828D01*
X105257961Y-100764341D01*
X105240924Y-100700758D01*
X105175098Y-100586744D01*
X105082006Y-100493652D01*
X104967992Y-100427826D01*
X104904406Y-100410787D01*
X105500920Y-99814274D01*
X105500920Y-99814273D01*
X105456353Y-99781893D01*
X105456348Y-99781889D01*
X105274027Y-99688993D01*
X105079412Y-99625758D01*
X104877315Y-99593750D01*
X104672685Y-99593750D01*
X104470587Y-99625758D01*
X104275972Y-99688993D01*
X104093651Y-99781889D01*
X104093647Y-99781891D01*
X104049078Y-99814273D01*
X104645592Y-100410787D01*
X104582008Y-100427826D01*
X104467994Y-100493652D01*
X104374902Y-100586744D01*
X104309076Y-100700758D01*
X104292037Y-100764342D01*
X103695523Y-100167828D01*
X103663141Y-100212397D01*
X103663139Y-100212401D01*
X103570243Y-100394722D01*
X103507008Y-100589337D01*
X103475000Y-100791434D01*
X103191100Y-100791434D01*
X103191100Y-99654542D01*
X103210007Y-99596351D01*
X103220097Y-99584538D01*
X103470740Y-99333896D01*
X103525256Y-99306119D01*
X103540743Y-99304900D01*
X124598700Y-99304900D01*
X124656891Y-99323807D01*
X124692855Y-99373307D01*
X124697700Y-99403900D01*
X124697700Y-102605656D01*
X124678793Y-102663847D01*
X124668703Y-102675660D01*
X124231599Y-103112763D01*
X124177083Y-103140540D01*
X124116651Y-103130969D01*
X124081503Y-103100949D01*
X124041970Y-103046536D01*
X124041968Y-103046534D01*
X124041966Y-103046531D01*
X123897219Y-102901784D01*
X123897215Y-102901781D01*
X123897213Y-102901779D01*
X123731613Y-102781464D01*
X123731609Y-102781462D01*
X123549219Y-102688530D01*
X123354529Y-102625271D01*
X123152355Y-102593250D01*
X123152352Y-102593250D01*
X122947648Y-102593250D01*
X122947645Y-102593250D01*
X122745470Y-102625271D01*
X122550780Y-102688530D01*
X122368390Y-102781462D01*
X122368386Y-102781464D01*
X122202786Y-102901779D01*
X122058029Y-103046536D01*
X121937714Y-103212136D01*
X121937712Y-103212140D01*
X121923928Y-103239195D01*
X121880664Y-103282459D01*
X121835718Y-103293250D01*
X119464282Y-103293250D01*
X119406091Y-103274343D01*
X119376072Y-103239195D01*
X119362287Y-103212140D01*
X119362285Y-103212136D01*
X119241970Y-103046536D01*
X119241968Y-103046534D01*
X119241966Y-103046531D01*
X119097219Y-102901784D01*
X119097215Y-102901781D01*
X119097213Y-102901779D01*
X118931613Y-102781464D01*
X118931609Y-102781462D01*
X118749219Y-102688530D01*
X118554529Y-102625271D01*
X118352355Y-102593250D01*
X118352352Y-102593250D01*
X118147648Y-102593250D01*
X118147645Y-102593250D01*
X117945470Y-102625271D01*
X117750780Y-102688530D01*
X117568390Y-102781462D01*
X117568386Y-102781464D01*
X117402786Y-102901779D01*
X117258029Y-103046536D01*
X117137714Y-103212136D01*
X117137712Y-103212140D01*
X117044780Y-103394530D01*
X116981521Y-103589220D01*
X116949500Y-103791394D01*
X116949500Y-103996105D01*
X116981521Y-104198279D01*
X117044780Y-104392969D01*
X117137712Y-104575359D01*
X117137714Y-104575363D01*
X117150536Y-104593010D01*
X117169443Y-104651201D01*
X117150535Y-104709391D01*
X117101035Y-104745355D01*
X117039850Y-104745354D01*
X117000439Y-104721204D01*
X116188087Y-103908852D01*
X116160310Y-103854335D01*
X116163937Y-103808253D01*
X116166413Y-103800636D01*
X116173726Y-103754462D01*
X116197500Y-103604364D01*
X116197500Y-103405635D01*
X116171138Y-103239195D01*
X116166413Y-103209364D01*
X116105005Y-103020368D01*
X116014787Y-102843306D01*
X115897981Y-102682536D01*
X115757464Y-102542019D01*
X115596694Y-102425213D01*
X115596693Y-102425212D01*
X115596691Y-102425211D01*
X115419628Y-102334993D01*
X115419629Y-102334993D01*
X115401659Y-102329155D01*
X115352158Y-102293192D01*
X115333250Y-102235001D01*
X115352157Y-102176810D01*
X115401656Y-102140846D01*
X115401659Y-102140845D01*
X115419629Y-102135006D01*
X115419629Y-102135005D01*
X115419632Y-102135005D01*
X115596694Y-102044787D01*
X115757464Y-101927981D01*
X115897981Y-101787464D01*
X116014787Y-101626694D01*
X116105005Y-101449632D01*
X116166413Y-101260636D01*
X116189405Y-101115471D01*
X116197500Y-101064364D01*
X116197500Y-100865635D01*
X116187585Y-100803035D01*
X116185748Y-100791434D01*
X116950000Y-100791434D01*
X116950000Y-100996065D01*
X116982008Y-101198162D01*
X117045243Y-101392777D01*
X117138139Y-101575098D01*
X117138143Y-101575103D01*
X117170523Y-101619670D01*
X117170524Y-101619670D01*
X117767037Y-101023156D01*
X117784076Y-101086742D01*
X117849902Y-101200756D01*
X117942994Y-101293848D01*
X118057008Y-101359674D01*
X118120591Y-101376711D01*
X117524078Y-101973225D01*
X117568647Y-102005608D01*
X117750972Y-102098506D01*
X117945587Y-102161741D01*
X118147685Y-102193750D01*
X118352315Y-102193750D01*
X118554412Y-102161741D01*
X118749027Y-102098506D01*
X118931342Y-102005613D01*
X118931350Y-102005608D01*
X118975920Y-101973225D01*
X118379407Y-101376712D01*
X118442992Y-101359674D01*
X118557006Y-101293848D01*
X118650098Y-101200756D01*
X118715924Y-101086742D01*
X118732962Y-101023157D01*
X119329475Y-101619670D01*
X119361858Y-101575100D01*
X119361863Y-101575092D01*
X119454756Y-101392777D01*
X119517991Y-101198162D01*
X119550000Y-100996065D01*
X119550000Y-100791434D01*
X121750000Y-100791434D01*
X121750000Y-100996065D01*
X121782008Y-101198162D01*
X121845243Y-101392777D01*
X121938139Y-101575098D01*
X121938143Y-101575103D01*
X121970523Y-101619670D01*
X121970524Y-101619670D01*
X122567037Y-101023156D01*
X122584076Y-101086742D01*
X122649902Y-101200756D01*
X122742994Y-101293848D01*
X122857008Y-101359674D01*
X122920591Y-101376711D01*
X122324078Y-101973225D01*
X122368647Y-102005608D01*
X122550972Y-102098506D01*
X122745587Y-102161741D01*
X122947685Y-102193750D01*
X123152315Y-102193750D01*
X123354412Y-102161741D01*
X123549027Y-102098506D01*
X123731342Y-102005613D01*
X123731350Y-102005608D01*
X123775920Y-101973225D01*
X123179407Y-101376712D01*
X123242992Y-101359674D01*
X123357006Y-101293848D01*
X123450098Y-101200756D01*
X123515924Y-101086742D01*
X123532962Y-101023157D01*
X124129475Y-101619670D01*
X124161858Y-101575100D01*
X124161863Y-101575092D01*
X124254756Y-101392777D01*
X124317991Y-101198162D01*
X124350000Y-100996065D01*
X124350000Y-100791434D01*
X124317991Y-100589337D01*
X124254756Y-100394722D01*
X124161858Y-100212397D01*
X124129475Y-100167828D01*
X123532961Y-100764341D01*
X123515924Y-100700758D01*
X123450098Y-100586744D01*
X123357006Y-100493652D01*
X123242992Y-100427826D01*
X123179406Y-100410787D01*
X123775920Y-99814274D01*
X123775920Y-99814273D01*
X123731353Y-99781893D01*
X123731348Y-99781889D01*
X123549027Y-99688993D01*
X123354412Y-99625758D01*
X123152315Y-99593750D01*
X122947685Y-99593750D01*
X122745587Y-99625758D01*
X122550972Y-99688993D01*
X122368651Y-99781889D01*
X122368647Y-99781891D01*
X122324078Y-99814273D01*
X122920592Y-100410787D01*
X122857008Y-100427826D01*
X122742994Y-100493652D01*
X122649902Y-100586744D01*
X122584076Y-100700758D01*
X122567037Y-100764342D01*
X121970523Y-100167828D01*
X121938141Y-100212397D01*
X121938139Y-100212401D01*
X121845243Y-100394722D01*
X121782008Y-100589337D01*
X121750000Y-100791434D01*
X119550000Y-100791434D01*
X119517991Y-100589337D01*
X119454756Y-100394722D01*
X119361858Y-100212397D01*
X119329475Y-100167828D01*
X118732961Y-100764341D01*
X118715924Y-100700758D01*
X118650098Y-100586744D01*
X118557006Y-100493652D01*
X118442992Y-100427826D01*
X118379406Y-100410787D01*
X118975920Y-99814274D01*
X118975920Y-99814273D01*
X118931353Y-99781893D01*
X118931348Y-99781889D01*
X118749027Y-99688993D01*
X118554412Y-99625758D01*
X118352315Y-99593750D01*
X118147685Y-99593750D01*
X117945587Y-99625758D01*
X117750972Y-99688993D01*
X117568651Y-99781889D01*
X117568647Y-99781891D01*
X117524078Y-99814273D01*
X118120592Y-100410787D01*
X118057008Y-100427826D01*
X117942994Y-100493652D01*
X117849902Y-100586744D01*
X117784076Y-100700758D01*
X117767037Y-100764342D01*
X117170523Y-100167828D01*
X117138141Y-100212397D01*
X117138139Y-100212401D01*
X117045243Y-100394722D01*
X116982008Y-100589337D01*
X116950000Y-100791434D01*
X116185748Y-100791434D01*
X116166413Y-100669366D01*
X116166413Y-100669364D01*
X116105005Y-100480368D01*
X116014787Y-100303306D01*
X115897981Y-100142536D01*
X115757464Y-100002019D01*
X115596694Y-99885213D01*
X115596693Y-99885212D01*
X115596691Y-99885211D01*
X115419630Y-99794994D01*
X115230633Y-99733586D01*
X115034364Y-99702500D01*
X115034361Y-99702500D01*
X114835639Y-99702500D01*
X114835636Y-99702500D01*
X114639366Y-99733586D01*
X114450369Y-99794994D01*
X114273308Y-99885211D01*
X114112537Y-100002018D01*
X113972018Y-100142537D01*
X113855211Y-100303308D01*
X113764994Y-100480369D01*
X113703586Y-100669366D01*
X113672500Y-100865635D01*
X113672500Y-101064364D01*
X113703586Y-101260633D01*
X113746837Y-101393749D01*
X113764995Y-101449632D01*
X113855213Y-101626694D01*
X113972019Y-101787464D01*
X114112536Y-101927981D01*
X114273306Y-102044787D01*
X114450368Y-102135005D01*
X114468342Y-102140845D01*
X114517842Y-102176809D01*
X114536749Y-102235000D01*
X114517842Y-102293191D01*
X114468342Y-102329155D01*
X114450367Y-102334995D01*
X114273308Y-102425211D01*
X114112537Y-102542018D01*
X113972018Y-102682537D01*
X113855211Y-102843308D01*
X113764994Y-103020369D01*
X113703586Y-103209366D01*
X113672500Y-103405635D01*
X113672500Y-103604364D01*
X113703586Y-103800633D01*
X113703587Y-103800636D01*
X113764995Y-103989632D01*
X113855213Y-104166694D01*
X113972019Y-104327464D01*
X114066709Y-104422154D01*
X114073827Y-104436124D01*
X114084913Y-104447210D01*
X114087365Y-104462696D01*
X114094485Y-104476669D01*
X114092032Y-104492156D01*
X114094485Y-104507642D01*
X114087367Y-104521612D01*
X114084914Y-104537101D01*
X114066708Y-104562159D01*
X114014585Y-104614283D01*
X114014585Y-104614284D01*
X114014583Y-104614286D01*
X113504286Y-105124583D01*
X113504284Y-105124585D01*
X113504283Y-105124584D01*
X113392479Y-105236389D01*
X113342359Y-105323200D01*
X113313425Y-105373314D01*
X113313423Y-105373318D01*
X113313423Y-105373320D01*
X113272499Y-105526048D01*
X113272499Y-105526050D01*
X113272499Y-105692136D01*
X113272500Y-105692149D01*
X113272500Y-109977863D01*
X113272499Y-109977881D01*
X113272499Y-109983942D01*
X113272499Y-109983943D01*
X113272499Y-110142057D01*
X113313423Y-110294784D01*
X113313425Y-110294788D01*
X113342360Y-110344905D01*
X113342361Y-110344905D01*
X113392480Y-110431716D01*
X113504284Y-110543520D01*
X113504286Y-110543521D01*
X113681912Y-110721147D01*
X113709689Y-110775664D01*
X113706063Y-110821743D01*
X113703586Y-110829366D01*
X113672500Y-111025635D01*
X113672500Y-111224364D01*
X113703586Y-111420633D01*
X113727331Y-111493715D01*
X113764995Y-111609632D01*
X113855213Y-111786694D01*
X113972019Y-111947464D01*
X114112536Y-112087981D01*
X114273306Y-112204787D01*
X114450368Y-112295005D01*
X114465244Y-112299838D01*
X114469151Y-112301108D01*
X114518651Y-112337072D01*
X114537559Y-112395262D01*
X114518652Y-112453453D01*
X114469153Y-112489417D01*
X114450563Y-112495457D01*
X114273567Y-112585641D01*
X114236283Y-112612728D01*
X114850907Y-113227352D01*
X114763429Y-113250792D01*
X114662070Y-113309311D01*
X114579311Y-113392070D01*
X114520792Y-113493429D01*
X114497352Y-113580907D01*
X113882728Y-112966283D01*
X113855641Y-113003567D01*
X113765459Y-113180559D01*
X113704073Y-113369485D01*
X113673000Y-113565674D01*
X113673000Y-113764325D01*
X113704073Y-113960514D01*
X113765459Y-114149440D01*
X113855637Y-114326425D01*
X113882729Y-114363714D01*
X114497351Y-113749091D01*
X114520792Y-113836571D01*
X114579311Y-113937930D01*
X114662070Y-114020689D01*
X114763429Y-114079208D01*
X114850905Y-114102647D01*
X114236283Y-114717270D01*
X114273564Y-114744357D01*
X114273568Y-114744359D01*
X114450558Y-114834540D01*
X114469149Y-114840580D01*
X114518650Y-114876543D01*
X114537559Y-114934733D01*
X114518654Y-114992924D01*
X114469155Y-115028890D01*
X114450368Y-115034994D01*
X114273308Y-115125211D01*
X114112537Y-115242018D01*
X113972018Y-115382537D01*
X113855211Y-115543308D01*
X113764994Y-115720369D01*
X113703586Y-115909366D01*
X113672500Y-116105635D01*
X113672500Y-116304364D01*
X113703586Y-116500633D01*
X113764994Y-116689630D01*
X113850965Y-116858358D01*
X113855213Y-116866694D01*
X113972019Y-117027464D01*
X114112536Y-117167981D01*
X114273306Y-117284787D01*
X114450368Y-117375005D01*
X114639364Y-117436413D01*
X114717874Y-117448847D01*
X114835636Y-117467500D01*
X114835639Y-117467500D01*
X115034364Y-117467500D01*
X115132498Y-117451956D01*
X115230636Y-117436413D01*
X115419632Y-117375005D01*
X115596694Y-117284787D01*
X115757464Y-117167981D01*
X115897981Y-117027464D01*
X116014787Y-116866694D01*
X116105005Y-116689632D01*
X116166413Y-116500636D01*
X116197500Y-116304361D01*
X116197500Y-116105639D01*
X116197500Y-116105635D01*
X116166413Y-115909366D01*
X116166413Y-115909364D01*
X116105005Y-115720368D01*
X116014787Y-115543306D01*
X115897981Y-115382536D01*
X115757464Y-115242019D01*
X115596694Y-115125213D01*
X115596693Y-115125212D01*
X115596691Y-115125211D01*
X115419630Y-115034994D01*
X115400845Y-115028890D01*
X115351346Y-114992925D01*
X115332440Y-114934734D01*
X115351349Y-114876544D01*
X115400849Y-114840581D01*
X115400852Y-114840580D01*
X115419438Y-114834541D01*
X115596434Y-114744357D01*
X115633715Y-114717270D01*
X115019092Y-114102647D01*
X115106571Y-114079208D01*
X115207930Y-114020689D01*
X115290689Y-113937930D01*
X115349208Y-113836571D01*
X115372647Y-113749092D01*
X115987270Y-114363715D01*
X116014357Y-114326434D01*
X116104540Y-114149440D01*
X116165926Y-113960514D01*
X116197000Y-113764325D01*
X116197000Y-113565674D01*
X116165926Y-113369485D01*
X116104540Y-113180559D01*
X116014359Y-113003568D01*
X116014357Y-113003564D01*
X115987270Y-112966283D01*
X115372647Y-113580905D01*
X115349208Y-113493429D01*
X115290689Y-113392070D01*
X115207930Y-113309311D01*
X115106571Y-113250792D01*
X115019091Y-113227351D01*
X115633714Y-112612729D01*
X115596425Y-112585637D01*
X115419438Y-112495458D01*
X115400848Y-112489418D01*
X115351348Y-112453454D01*
X115332440Y-112395263D01*
X115351347Y-112337073D01*
X115400847Y-112301109D01*
X115400849Y-112301108D01*
X115419629Y-112295006D01*
X115419629Y-112295005D01*
X115419632Y-112295005D01*
X115596694Y-112204787D01*
X115757464Y-112087981D01*
X115897981Y-111947464D01*
X116014787Y-111786694D01*
X116105005Y-111609632D01*
X116166413Y-111420636D01*
X116184950Y-111303601D01*
X116197500Y-111224364D01*
X116197500Y-111025635D01*
X116166413Y-110829366D01*
X116166413Y-110829364D01*
X116105005Y-110640368D01*
X116014787Y-110463306D01*
X115897981Y-110302536D01*
X115757464Y-110162019D01*
X115596694Y-110045213D01*
X115596693Y-110045212D01*
X115596691Y-110045211D01*
X115419628Y-109954993D01*
X115419629Y-109954993D01*
X115401659Y-109949155D01*
X115352158Y-109913192D01*
X115333250Y-109855001D01*
X115352157Y-109796810D01*
X115401656Y-109760846D01*
X115401659Y-109760845D01*
X115419629Y-109755006D01*
X115419629Y-109755005D01*
X115419632Y-109755005D01*
X115596694Y-109664787D01*
X115757464Y-109547981D01*
X115897981Y-109407464D01*
X116014787Y-109246694D01*
X116105005Y-109069632D01*
X116166413Y-108880636D01*
X116197500Y-108684361D01*
X116197500Y-108485639D01*
X116197500Y-108485635D01*
X116177631Y-108360187D01*
X116187202Y-108299755D01*
X116230467Y-108256490D01*
X116275412Y-108245700D01*
X124755864Y-108245700D01*
X124755880Y-108245701D01*
X124761943Y-108245701D01*
X124920056Y-108245701D01*
X124920057Y-108245701D01*
X125072785Y-108204777D01*
X125122904Y-108175839D01*
X125209716Y-108125720D01*
X125321520Y-108013916D01*
X125321521Y-108013913D01*
X127521113Y-105814321D01*
X127521116Y-105814320D01*
X127632920Y-105702516D01*
X127693623Y-105597375D01*
X127711977Y-105565585D01*
X127752900Y-105412858D01*
X127752900Y-105254743D01*
X127752900Y-71897658D01*
X127711977Y-71744931D01*
X127632920Y-71607999D01*
X127521116Y-71496195D01*
X127521113Y-71496193D01*
X125118630Y-69093710D01*
X128324500Y-69093710D01*
X128324500Y-69336289D01*
X128356161Y-69576781D01*
X128356161Y-69576786D01*
X128418944Y-69811092D01*
X128418948Y-69811105D01*
X128511772Y-70035204D01*
X128511774Y-70035208D01*
X128511776Y-70035212D01*
X128627854Y-70236265D01*
X128633066Y-70245292D01*
X128780729Y-70437731D01*
X128780731Y-70437733D01*
X128780735Y-70437738D01*
X128952262Y-70609265D01*
X128952266Y-70609268D01*
X128952268Y-70609270D01*
X129092384Y-70716784D01*
X129144711Y-70756936D01*
X129354788Y-70878224D01*
X129578900Y-70971054D01*
X129813211Y-71033838D01*
X130053712Y-71065500D01*
X130053713Y-71065500D01*
X130296287Y-71065500D01*
X130296288Y-71065500D01*
X130536789Y-71033838D01*
X130771100Y-70971054D01*
X130995212Y-70878224D01*
X131205289Y-70756936D01*
X131397738Y-70609265D01*
X131569265Y-70437738D01*
X131716936Y-70245289D01*
X131838224Y-70035212D01*
X131931054Y-69811100D01*
X131993838Y-69576789D01*
X132025500Y-69336288D01*
X132025500Y-69093712D01*
X131993838Y-68853211D01*
X131931054Y-68618900D01*
X131838224Y-68394788D01*
X131716936Y-68184711D01*
X131689413Y-68148842D01*
X131569270Y-67992268D01*
X131569268Y-67992266D01*
X131569265Y-67992262D01*
X131397738Y-67820735D01*
X131397733Y-67820731D01*
X131397731Y-67820729D01*
X131205292Y-67673066D01*
X131188817Y-67663554D01*
X130995212Y-67551776D01*
X130995208Y-67551774D01*
X130995204Y-67551772D01*
X130771105Y-67458948D01*
X130771104Y-67458947D01*
X130771100Y-67458946D01*
X130536789Y-67396162D01*
X130536786Y-67396161D01*
X130536784Y-67396161D01*
X130296289Y-67364500D01*
X130296288Y-67364500D01*
X130053712Y-67364500D01*
X130053710Y-67364500D01*
X129813218Y-67396161D01*
X129813213Y-67396161D01*
X129578907Y-67458944D01*
X129578894Y-67458948D01*
X129354795Y-67551772D01*
X129144707Y-67673066D01*
X128952268Y-67820729D01*
X128780729Y-67992268D01*
X128633066Y-68184707D01*
X128511772Y-68394795D01*
X128418948Y-68618894D01*
X128418944Y-68618907D01*
X128356161Y-68853213D01*
X128356161Y-68853218D01*
X128324500Y-69093710D01*
X125118630Y-69093710D01*
X121061206Y-65036286D01*
X121061205Y-65036284D01*
X120949401Y-64924480D01*
X120862589Y-64874360D01*
X120862588Y-64874359D01*
X120812473Y-64845425D01*
X120812470Y-64845423D01*
X120659742Y-64804499D01*
X120501628Y-64804499D01*
X120495565Y-64804499D01*
X120495549Y-64804500D01*
X108670136Y-64804500D01*
X108670120Y-64804499D01*
X108664057Y-64804499D01*
X108505943Y-64804499D01*
X108353215Y-64845423D01*
X108353213Y-64845423D01*
X108353209Y-64845425D01*
X108303095Y-64874359D01*
X108216284Y-64924479D01*
X108104479Y-65036283D01*
X108104480Y-65036284D01*
X108104478Y-65036286D01*
X106311286Y-66829478D01*
X106311284Y-66829480D01*
X106311283Y-66829479D01*
X106199479Y-66941284D01*
X106149359Y-67028095D01*
X106120425Y-67078209D01*
X106120423Y-67078213D01*
X106120423Y-67078215D01*
X106079499Y-67230943D01*
X106079499Y-67230945D01*
X106079499Y-67397031D01*
X106079500Y-67397044D01*
X106079500Y-70399863D01*
X106079499Y-70399881D01*
X106079499Y-70405943D01*
X106079499Y-70564057D01*
X106120423Y-70716784D01*
X106120425Y-70716788D01*
X106149360Y-70766905D01*
X106149361Y-70766905D01*
X106199480Y-70853716D01*
X106311284Y-70965520D01*
X106311286Y-70965521D01*
X109327104Y-73981339D01*
X109354881Y-74035856D01*
X109356100Y-74051343D01*
X109356100Y-88898656D01*
X109337193Y-88956847D01*
X109327104Y-88968660D01*
X103749008Y-94546755D01*
X103694491Y-94574532D01*
X103648412Y-94570906D01*
X103632132Y-94565616D01*
X103619529Y-94561521D01*
X103417355Y-94529500D01*
X103417352Y-94529500D01*
X103212648Y-94529500D01*
X103212645Y-94529500D01*
X103010470Y-94561521D01*
X102815780Y-94624780D01*
X102700045Y-94683750D01*
X102639613Y-94693321D01*
X102585096Y-94665543D01*
X102557319Y-94611027D01*
X102556100Y-94595540D01*
X102556100Y-94276542D01*
X102547761Y-94245424D01*
X102547760Y-94245420D01*
X102536318Y-94202715D01*
X102536318Y-94202716D01*
X102515177Y-94123816D01*
X102436120Y-93986884D01*
X102324316Y-93875080D01*
X102324313Y-93875078D01*
X102117055Y-93667820D01*
X102101325Y-93647320D01*
X102080520Y-93611284D01*
X101968716Y-93499480D01*
X101831784Y-93420423D01*
X101679057Y-93379500D01*
X99139057Y-93379500D01*
X98980942Y-93379500D01*
X98887469Y-93404545D01*
X98828210Y-93420424D01*
X98778095Y-93449359D01*
X98691284Y-93499479D01*
X98579479Y-93611283D01*
X98579480Y-93611284D01*
X98579478Y-93611286D01*
X97866286Y-94324478D01*
X97866284Y-94324480D01*
X97866283Y-94324479D01*
X97754479Y-94436284D01*
X97731271Y-94476483D01*
X97731268Y-94476488D01*
X97728941Y-94480520D01*
X97675423Y-94573215D01*
X97659132Y-94634008D01*
X97655669Y-94641572D01*
X97640314Y-94658267D01*
X97627961Y-94677289D01*
X97615192Y-94685580D01*
X97614250Y-94686606D01*
X97613328Y-94686791D01*
X97610604Y-94688561D01*
X97553390Y-94717712D01*
X97553386Y-94717714D01*
X97387786Y-94838029D01*
X97243029Y-94982786D01*
X97122714Y-95148386D01*
X97122712Y-95148390D01*
X97053210Y-95284797D01*
X97009945Y-95328062D01*
X96949513Y-95337633D01*
X96894996Y-95309856D01*
X96876790Y-95284797D01*
X96807287Y-95148390D01*
X96807285Y-95148386D01*
X96686970Y-94982786D01*
X96686967Y-94982783D01*
X96686966Y-94982781D01*
X96542219Y-94838034D01*
X96542215Y-94838031D01*
X96542213Y-94838029D01*
X96376613Y-94717714D01*
X96376609Y-94717712D01*
X96194219Y-94624780D01*
X95999529Y-94561521D01*
X95797355Y-94529500D01*
X95797352Y-94529500D01*
X95592648Y-94529500D01*
X95592645Y-94529500D01*
X95390470Y-94561521D01*
X95195780Y-94624780D01*
X95013390Y-94717712D01*
X95013386Y-94717714D01*
X94847786Y-94838029D01*
X94703032Y-94982783D01*
X94592885Y-95134389D01*
X94543385Y-95170353D01*
X94482199Y-95170353D01*
X94432699Y-95134389D01*
X94413792Y-95076198D01*
X94414638Y-95063286D01*
X94425500Y-94980783D01*
X94425500Y-94679217D01*
X94386138Y-94380232D01*
X94308087Y-94088942D01*
X94192683Y-93810332D01*
X94041900Y-93549168D01*
X94003773Y-93499480D01*
X93858324Y-93309926D01*
X93858322Y-93309924D01*
X93858319Y-93309920D01*
X93645080Y-93096681D01*
X93645075Y-93096677D01*
X93645073Y-93096675D01*
X93405835Y-92913102D01*
X93405832Y-92913100D01*
X93144668Y-92762317D01*
X93144664Y-92762315D01*
X93144660Y-92762313D01*
X92866063Y-92646915D01*
X92866062Y-92646914D01*
X92866058Y-92646913D01*
X92574768Y-92568862D01*
X92574765Y-92568861D01*
X92574763Y-92568861D01*
X92275784Y-92529500D01*
X92275783Y-92529500D01*
X91974217Y-92529500D01*
X91974215Y-92529500D01*
X91675239Y-92568861D01*
X91675234Y-92568861D01*
X91383949Y-92646911D01*
X91383936Y-92646915D01*
X91105339Y-92762313D01*
X90844164Y-92913102D01*
X90604926Y-93096675D01*
X90391675Y-93309926D01*
X90313042Y-93412404D01*
X90262618Y-93447060D01*
X90201453Y-93445459D01*
X90152912Y-93408211D01*
X90135500Y-93352137D01*
X90135500Y-79029743D01*
X90154407Y-78971552D01*
X90164496Y-78959739D01*
X91049740Y-78074496D01*
X91104257Y-78046719D01*
X91119744Y-78045500D01*
X105589567Y-78045500D01*
X105647758Y-78064407D01*
X105683722Y-78113907D01*
X105686665Y-78125185D01*
X105696027Y-78172250D01*
X105767677Y-78345229D01*
X105767681Y-78345238D01*
X105842065Y-78456559D01*
X105871698Y-78500908D01*
X106004092Y-78633302D01*
X106070463Y-78677649D01*
X106159761Y-78737318D01*
X106159767Y-78737320D01*
X106159769Y-78737322D01*
X106332749Y-78808973D01*
X106516384Y-78845500D01*
X106516385Y-78845500D01*
X106703615Y-78845500D01*
X106703616Y-78845500D01*
X106887251Y-78808973D01*
X107060231Y-78737322D01*
X107185449Y-78653653D01*
X107244336Y-78637045D01*
X107295452Y-78653654D01*
X107419999Y-78736875D01*
X107420010Y-78736881D01*
X107592888Y-78808489D01*
X107592899Y-78808492D01*
X107620000Y-78813882D01*
X107620000Y-77621587D01*
X107626099Y-77632152D01*
X107682848Y-77688901D01*
X107752352Y-77729028D01*
X107829872Y-77749800D01*
X107910128Y-77749800D01*
X107987648Y-77729028D01*
X108046586Y-77695001D01*
X108120000Y-77695001D01*
X108120000Y-78813881D01*
X108147100Y-78808492D01*
X108147111Y-78808489D01*
X108319989Y-78736881D01*
X108320001Y-78736875D01*
X108475589Y-78632912D01*
X108475593Y-78632909D01*
X108607909Y-78500593D01*
X108607912Y-78500589D01*
X108711875Y-78345001D01*
X108711881Y-78344989D01*
X108783491Y-78172106D01*
X108783491Y-78172104D01*
X108819999Y-77988569D01*
X108820000Y-77988565D01*
X108820000Y-77695001D01*
X108819999Y-77695000D01*
X108120001Y-77695000D01*
X108120000Y-77695001D01*
X108046586Y-77695001D01*
X108057152Y-77688901D01*
X108113901Y-77632152D01*
X108154028Y-77562648D01*
X108174800Y-77485128D01*
X108174800Y-77404872D01*
X108154028Y-77327352D01*
X108113901Y-77257848D01*
X108057152Y-77201099D01*
X108046586Y-77194999D01*
X108120000Y-77194999D01*
X108120001Y-77195000D01*
X108819999Y-77195000D01*
X108820000Y-77194999D01*
X108820000Y-76901434D01*
X108819999Y-76901430D01*
X108783491Y-76717895D01*
X108783491Y-76717893D01*
X108711881Y-76545010D01*
X108711875Y-76544998D01*
X108607912Y-76389410D01*
X108607909Y-76389406D01*
X108475593Y-76257090D01*
X108475589Y-76257087D01*
X108320001Y-76153124D01*
X108319992Y-76153120D01*
X108147105Y-76081508D01*
X108120000Y-76076116D01*
X108120000Y-77194999D01*
X108046586Y-77194999D01*
X107987648Y-77160972D01*
X107910128Y-77140200D01*
X107829872Y-77140200D01*
X107752352Y-77160972D01*
X107682848Y-77201099D01*
X107626099Y-77257848D01*
X107620000Y-77268412D01*
X107620000Y-76076116D01*
X107592894Y-76081508D01*
X107420007Y-76153120D01*
X107420001Y-76153123D01*
X107295450Y-76236346D01*
X107236562Y-76252954D01*
X107185448Y-76236345D01*
X107162293Y-76220873D01*
X107060238Y-76152681D01*
X107060229Y-76152677D01*
X106887249Y-76081026D01*
X106703618Y-76044500D01*
X106703616Y-76044500D01*
X106516384Y-76044500D01*
X106516381Y-76044500D01*
X106332750Y-76081026D01*
X106159770Y-76152677D01*
X106159761Y-76152681D01*
X106004092Y-76256698D01*
X106004088Y-76256701D01*
X105871701Y-76389088D01*
X105871698Y-76389092D01*
X105767681Y-76544761D01*
X105767677Y-76544770D01*
X105696027Y-76717749D01*
X105686665Y-76764815D01*
X105656768Y-76818198D01*
X105601203Y-76843814D01*
X105589567Y-76844500D01*
X90915137Y-76844500D01*
X90915121Y-76844499D01*
X90909058Y-76844499D01*
X90750943Y-76844499D01*
X90750940Y-76844499D01*
X90598219Y-76885421D01*
X90598218Y-76885421D01*
X90461284Y-76964480D01*
X89166286Y-78259478D01*
X89166284Y-78259480D01*
X89166283Y-78259479D01*
X89054479Y-78371284D01*
X89004359Y-78458095D01*
X88975425Y-78508209D01*
X88975423Y-78508213D01*
X88975423Y-78508215D01*
X88934499Y-78660943D01*
X79875500Y-78660943D01*
X79875500Y-69093710D01*
X81969500Y-69093710D01*
X81969500Y-69336289D01*
X82001161Y-69576781D01*
X82001161Y-69576786D01*
X82063944Y-69811092D01*
X82063948Y-69811105D01*
X82156772Y-70035204D01*
X82156774Y-70035208D01*
X82156776Y-70035212D01*
X82272854Y-70236265D01*
X82278066Y-70245292D01*
X82425729Y-70437731D01*
X82425731Y-70437733D01*
X82425735Y-70437738D01*
X82597262Y-70609265D01*
X82597266Y-70609268D01*
X82597268Y-70609270D01*
X82737384Y-70716784D01*
X82789711Y-70756936D01*
X82999788Y-70878224D01*
X83223900Y-70971054D01*
X83458211Y-71033838D01*
X83698712Y-71065500D01*
X83698713Y-71065500D01*
X83941287Y-71065500D01*
X83941288Y-71065500D01*
X84181789Y-71033838D01*
X84416100Y-70971054D01*
X84640212Y-70878224D01*
X84850289Y-70756936D01*
X85042738Y-70609265D01*
X85214265Y-70437738D01*
X85361936Y-70245289D01*
X85483224Y-70035212D01*
X85576054Y-69811100D01*
X85638838Y-69576789D01*
X85670500Y-69336288D01*
X85670500Y-69093712D01*
X85638838Y-68853211D01*
X85576054Y-68618900D01*
X85483224Y-68394788D01*
X85361936Y-68184711D01*
X85334413Y-68148842D01*
X85214270Y-67992268D01*
X85214268Y-67992266D01*
X85214265Y-67992262D01*
X85042738Y-67820735D01*
X85042733Y-67820731D01*
X85042731Y-67820729D01*
X84850292Y-67673066D01*
X84833817Y-67663554D01*
X84640212Y-67551776D01*
X84640208Y-67551774D01*
X84640204Y-67551772D01*
X84416105Y-67458948D01*
X84416104Y-67458947D01*
X84416100Y-67458946D01*
X84181789Y-67396162D01*
X84181786Y-67396161D01*
X84181784Y-67396161D01*
X83941289Y-67364500D01*
X83941288Y-67364500D01*
X83698712Y-67364500D01*
X83698710Y-67364500D01*
X83458218Y-67396161D01*
X83458213Y-67396161D01*
X83223907Y-67458944D01*
X83223894Y-67458948D01*
X82999795Y-67551772D01*
X82789707Y-67673066D01*
X82597268Y-67820729D01*
X82425729Y-67992268D01*
X82278066Y-68184707D01*
X82156772Y-68394795D01*
X82063948Y-68618894D01*
X82063944Y-68618907D01*
X82001161Y-68853213D01*
X82001161Y-68853218D01*
X81969500Y-69093710D01*
X79875500Y-69093710D01*
X79875500Y-67184073D01*
X102390000Y-67184073D01*
X102390000Y-67435926D01*
X102429395Y-67684663D01*
X102507221Y-67924187D01*
X102621556Y-68148582D01*
X102621558Y-68148586D01*
X102695746Y-68250697D01*
X103350689Y-67595753D01*
X103369669Y-67641574D01*
X103446275Y-67756223D01*
X103543777Y-67853725D01*
X103658426Y-67930331D01*
X103704243Y-67949309D01*
X103049301Y-68604252D01*
X103151413Y-68678441D01*
X103151417Y-68678443D01*
X103375812Y-68792778D01*
X103615336Y-68870604D01*
X103864074Y-68910000D01*
X104115926Y-68910000D01*
X104364663Y-68870604D01*
X104604187Y-68792778D01*
X104828580Y-68678444D01*
X104930696Y-68604251D01*
X104275754Y-67949309D01*
X104321574Y-67930331D01*
X104436223Y-67853725D01*
X104533725Y-67756223D01*
X104610331Y-67641574D01*
X104629309Y-67595754D01*
X105284251Y-68250696D01*
X105358444Y-68148580D01*
X105472778Y-67924187D01*
X105550604Y-67684663D01*
X105590000Y-67435926D01*
X105590000Y-67184073D01*
X105550604Y-66935336D01*
X105472778Y-66695812D01*
X105358443Y-66471417D01*
X105358441Y-66471413D01*
X105284252Y-66369301D01*
X104629309Y-67024243D01*
X104610331Y-66978426D01*
X104533725Y-66863777D01*
X104436223Y-66766275D01*
X104321574Y-66689669D01*
X104275753Y-66670689D01*
X104930697Y-66015746D01*
X104828586Y-65941558D01*
X104828582Y-65941556D01*
X104604187Y-65827221D01*
X104364663Y-65749395D01*
X104115926Y-65710000D01*
X103864074Y-65710000D01*
X103615336Y-65749395D01*
X103375812Y-65827221D01*
X103151418Y-65941556D01*
X103049301Y-66015746D01*
X103704245Y-66670690D01*
X103658426Y-66689669D01*
X103543777Y-66766275D01*
X103446275Y-66863777D01*
X103369669Y-66978426D01*
X103350690Y-67024245D01*
X102695746Y-66369301D01*
X102621556Y-66471418D01*
X102507221Y-66695812D01*
X102429395Y-66935336D01*
X102390000Y-67184073D01*
X79875500Y-67184073D01*
X79875500Y-40728322D01*
X79894407Y-40670131D01*
X79904496Y-40658318D01*
X83083599Y-37479215D01*
X89824500Y-37479215D01*
X89824500Y-37780784D01*
X89863861Y-38079760D01*
X89863861Y-38079765D01*
X89941911Y-38371050D01*
X89941915Y-38371063D01*
X90057313Y-38649660D01*
X90057315Y-38649664D01*
X90057317Y-38649668D01*
X90208100Y-38910832D01*
X90208102Y-38910835D01*
X90391675Y-39150073D01*
X90391677Y-39150075D01*
X90391681Y-39150080D01*
X90604920Y-39363319D01*
X90604924Y-39363322D01*
X90604926Y-39363324D01*
X90844164Y-39546897D01*
X90844168Y-39546900D01*
X91105332Y-39697683D01*
X91383942Y-39813087D01*
X91675232Y-39891138D01*
X91974217Y-39930500D01*
X91974218Y-39930500D01*
X92275782Y-39930500D01*
X92275783Y-39930500D01*
X92574768Y-39891138D01*
X92866058Y-39813087D01*
X93144668Y-39697683D01*
X93405832Y-39546900D01*
X93645080Y-39363319D01*
X93858319Y-39150080D01*
X94041900Y-38910832D01*
X94192683Y-38649668D01*
X94308087Y-38371058D01*
X94386138Y-38079768D01*
X94412656Y-37878341D01*
X94438996Y-37823119D01*
X94492766Y-37793924D01*
X94553428Y-37801910D01*
X94570137Y-37812013D01*
X94652670Y-37873797D01*
X94787511Y-37924089D01*
X94787512Y-37924089D01*
X94787517Y-37924091D01*
X94847127Y-37930500D01*
X96542872Y-37930499D01*
X96602483Y-37924091D01*
X96671158Y-37898477D01*
X96737329Y-37873797D01*
X96737329Y-37873796D01*
X96737331Y-37873796D01*
X96852546Y-37787546D01*
X96938796Y-37672331D01*
X96957580Y-37621970D01*
X96989089Y-37537488D01*
X96989088Y-37537488D01*
X96989091Y-37537483D01*
X96995500Y-37477873D01*
X96995499Y-37441207D01*
X97014405Y-37383018D01*
X97063904Y-37347053D01*
X97125089Y-37347052D01*
X97174590Y-37383014D01*
X97174592Y-37383016D01*
X97175162Y-37383800D01*
X97243034Y-37477219D01*
X97387781Y-37621966D01*
X97387784Y-37621968D01*
X97387786Y-37621970D01*
X97553386Y-37742285D01*
X97553390Y-37742287D01*
X97735781Y-37835220D01*
X97930466Y-37898477D01*
X97930467Y-37898477D01*
X97930470Y-37898478D01*
X98132645Y-37930500D01*
X98132648Y-37930500D01*
X98337355Y-37930500D01*
X98539529Y-37898478D01*
X98539530Y-37898477D01*
X98539534Y-37898477D01*
X98734219Y-37835220D01*
X98916610Y-37742287D01*
X99082219Y-37621966D01*
X99226966Y-37477219D01*
X99337115Y-37325611D01*
X99347285Y-37311613D01*
X99347287Y-37311610D01*
X99416790Y-37175201D01*
X99460055Y-37131937D01*
X99520487Y-37122366D01*
X99575003Y-37150143D01*
X99593208Y-37175199D01*
X99595776Y-37180239D01*
X99662712Y-37311609D01*
X99662714Y-37311613D01*
X99783029Y-37477213D01*
X99783031Y-37477215D01*
X99783034Y-37477219D01*
X99927781Y-37621966D01*
X99927784Y-37621968D01*
X99927786Y-37621970D01*
X100093386Y-37742285D01*
X100093390Y-37742287D01*
X100275781Y-37835220D01*
X100470466Y-37898477D01*
X100470467Y-37898477D01*
X100470470Y-37898478D01*
X100672645Y-37930500D01*
X100672648Y-37930500D01*
X100877355Y-37930500D01*
X101079529Y-37898478D01*
X101079530Y-37898477D01*
X101079534Y-37898477D01*
X101274219Y-37835220D01*
X101456610Y-37742287D01*
X101622219Y-37621966D01*
X101766966Y-37477219D01*
X101877115Y-37325611D01*
X101887285Y-37311613D01*
X101887287Y-37311610D01*
X101956790Y-37175201D01*
X102000055Y-37131937D01*
X102060487Y-37122366D01*
X102115003Y-37150143D01*
X102133208Y-37175199D01*
X102135776Y-37180239D01*
X102202712Y-37311609D01*
X102202714Y-37311613D01*
X102323029Y-37477213D01*
X102323031Y-37477215D01*
X102323034Y-37477219D01*
X102467781Y-37621966D01*
X102467784Y-37621968D01*
X102467786Y-37621970D01*
X102633386Y-37742285D01*
X102633390Y-37742287D01*
X102815781Y-37835220D01*
X103010466Y-37898477D01*
X103010467Y-37898477D01*
X103010470Y-37898478D01*
X103212645Y-37930500D01*
X103212648Y-37930500D01*
X103417355Y-37930500D01*
X103619529Y-37898478D01*
X103619530Y-37898477D01*
X103619534Y-37898477D01*
X103814219Y-37835220D01*
X103996610Y-37742287D01*
X104162219Y-37621966D01*
X104306966Y-37477219D01*
X104417115Y-37325611D01*
X104427285Y-37311613D01*
X104427287Y-37311610D01*
X104496790Y-37175201D01*
X104540055Y-37131937D01*
X104600487Y-37122366D01*
X104655003Y-37150143D01*
X104673208Y-37175199D01*
X104675776Y-37180239D01*
X104742712Y-37311609D01*
X104742714Y-37311613D01*
X104863029Y-37477213D01*
X104863031Y-37477215D01*
X104863034Y-37477219D01*
X105007781Y-37621966D01*
X105007784Y-37621968D01*
X105007786Y-37621970D01*
X105173386Y-37742285D01*
X105173390Y-37742287D01*
X105355781Y-37835220D01*
X105550466Y-37898477D01*
X105550467Y-37898477D01*
X105550470Y-37898478D01*
X105752645Y-37930500D01*
X105752648Y-37930500D01*
X105957355Y-37930500D01*
X106159529Y-37898478D01*
X106159530Y-37898477D01*
X106159534Y-37898477D01*
X106354219Y-37835220D01*
X106536610Y-37742287D01*
X106702219Y-37621966D01*
X106846966Y-37477219D01*
X106957115Y-37325611D01*
X106967285Y-37311613D01*
X106967287Y-37311610D01*
X107036790Y-37175201D01*
X107080055Y-37131937D01*
X107140487Y-37122366D01*
X107195003Y-37150143D01*
X107213208Y-37175199D01*
X107215776Y-37180239D01*
X107282712Y-37311609D01*
X107282714Y-37311613D01*
X107403029Y-37477213D01*
X107403031Y-37477215D01*
X107403034Y-37477219D01*
X107547781Y-37621966D01*
X107547784Y-37621968D01*
X107547786Y-37621970D01*
X107713386Y-37742285D01*
X107713390Y-37742287D01*
X107895781Y-37835220D01*
X108090466Y-37898477D01*
X108090467Y-37898477D01*
X108090470Y-37898478D01*
X108292645Y-37930500D01*
X108292648Y-37930500D01*
X108497355Y-37930500D01*
X108699529Y-37898478D01*
X108699530Y-37898477D01*
X108699534Y-37898477D01*
X108894219Y-37835220D01*
X109076610Y-37742287D01*
X109242219Y-37621966D01*
X109386966Y-37477219D01*
X109497115Y-37325611D01*
X109507285Y-37311613D01*
X109507287Y-37311610D01*
X109576790Y-37175201D01*
X109620055Y-37131937D01*
X109680487Y-37122366D01*
X109735003Y-37150143D01*
X109753208Y-37175199D01*
X109755776Y-37180239D01*
X109822712Y-37311609D01*
X109822714Y-37311613D01*
X109943029Y-37477213D01*
X109943031Y-37477215D01*
X109943034Y-37477219D01*
X110087781Y-37621966D01*
X110087784Y-37621968D01*
X110087786Y-37621970D01*
X110253386Y-37742285D01*
X110253390Y-37742287D01*
X110435781Y-37835220D01*
X110630466Y-37898477D01*
X110630467Y-37898477D01*
X110630470Y-37898478D01*
X110832645Y-37930500D01*
X110832648Y-37930500D01*
X111037355Y-37930500D01*
X111239529Y-37898478D01*
X111239530Y-37898477D01*
X111239534Y-37898477D01*
X111434219Y-37835220D01*
X111616610Y-37742287D01*
X111782219Y-37621966D01*
X111926966Y-37477219D01*
X112037115Y-37325611D01*
X112047285Y-37311613D01*
X112047287Y-37311610D01*
X112116790Y-37175201D01*
X112160055Y-37131937D01*
X112220487Y-37122366D01*
X112275003Y-37150143D01*
X112293208Y-37175199D01*
X112295776Y-37180239D01*
X112362712Y-37311609D01*
X112362714Y-37311613D01*
X112483029Y-37477213D01*
X112483031Y-37477215D01*
X112483034Y-37477219D01*
X112627781Y-37621966D01*
X112627784Y-37621968D01*
X112627786Y-37621970D01*
X112793386Y-37742285D01*
X112793390Y-37742287D01*
X112975781Y-37835220D01*
X113170466Y-37898477D01*
X113170467Y-37898477D01*
X113170470Y-37898478D01*
X113372645Y-37930500D01*
X113372648Y-37930500D01*
X113577355Y-37930500D01*
X113779529Y-37898478D01*
X113779530Y-37898477D01*
X113779534Y-37898477D01*
X113974219Y-37835220D01*
X114156610Y-37742287D01*
X114322219Y-37621966D01*
X114466966Y-37477219D01*
X114577115Y-37325611D01*
X114587285Y-37311613D01*
X114587287Y-37311610D01*
X114656790Y-37175201D01*
X114700055Y-37131937D01*
X114760487Y-37122366D01*
X114815003Y-37150143D01*
X114833208Y-37175199D01*
X114835776Y-37180239D01*
X114902712Y-37311609D01*
X114902714Y-37311613D01*
X115023029Y-37477213D01*
X115023031Y-37477215D01*
X115023034Y-37477219D01*
X115167781Y-37621966D01*
X115167784Y-37621968D01*
X115167786Y-37621970D01*
X115333386Y-37742285D01*
X115333390Y-37742287D01*
X115515781Y-37835220D01*
X115710466Y-37898477D01*
X115710467Y-37898477D01*
X115710470Y-37898478D01*
X115912645Y-37930500D01*
X115912648Y-37930500D01*
X116117355Y-37930500D01*
X116319529Y-37898478D01*
X116319530Y-37898477D01*
X116319534Y-37898477D01*
X116514219Y-37835220D01*
X116696610Y-37742287D01*
X116862219Y-37621966D01*
X117006966Y-37477219D01*
X117117115Y-37325611D01*
X117127285Y-37311613D01*
X117127287Y-37311610D01*
X117196790Y-37175201D01*
X117240055Y-37131937D01*
X117300487Y-37122366D01*
X117355003Y-37150143D01*
X117373208Y-37175199D01*
X117375776Y-37180239D01*
X117442712Y-37311609D01*
X117442714Y-37311613D01*
X117563029Y-37477213D01*
X117563031Y-37477215D01*
X117563034Y-37477219D01*
X117707781Y-37621966D01*
X117707784Y-37621968D01*
X117707786Y-37621970D01*
X117873386Y-37742285D01*
X117873390Y-37742287D01*
X118055781Y-37835220D01*
X118250466Y-37898477D01*
X118250467Y-37898477D01*
X118250470Y-37898478D01*
X118452645Y-37930500D01*
X118452648Y-37930500D01*
X118657355Y-37930500D01*
X118859529Y-37898478D01*
X118859530Y-37898477D01*
X118859534Y-37898477D01*
X119054219Y-37835220D01*
X119236610Y-37742287D01*
X119402219Y-37621966D01*
X119546966Y-37477219D01*
X119657115Y-37325609D01*
X119706613Y-37289647D01*
X119767799Y-37289646D01*
X119817299Y-37325610D01*
X119836207Y-37383800D01*
X119835360Y-37396722D01*
X119824500Y-37479213D01*
X119824500Y-37780784D01*
X119863861Y-38079760D01*
X119863861Y-38079765D01*
X119941911Y-38371050D01*
X119941915Y-38371063D01*
X120057313Y-38649660D01*
X120057315Y-38649664D01*
X120057317Y-38649668D01*
X120208100Y-38910832D01*
X120208102Y-38910835D01*
X120391675Y-39150073D01*
X120391677Y-39150075D01*
X120391681Y-39150080D01*
X120604920Y-39363319D01*
X120604924Y-39363322D01*
X120604926Y-39363324D01*
X120844164Y-39546897D01*
X120844168Y-39546900D01*
X121105332Y-39697683D01*
X121383942Y-39813087D01*
X121675232Y-39891138D01*
X121974217Y-39930500D01*
X121974218Y-39930500D01*
X122275782Y-39930500D01*
X122275783Y-39930500D01*
X122574768Y-39891138D01*
X122866058Y-39813087D01*
X123144668Y-39697683D01*
X123405832Y-39546900D01*
X123645080Y-39363319D01*
X123858319Y-39150080D01*
X124041900Y-38910832D01*
X124192683Y-38649668D01*
X124308087Y-38371058D01*
X124386138Y-38079768D01*
X124425500Y-37780783D01*
X124425500Y-37479217D01*
X124386138Y-37180232D01*
X124308087Y-36888942D01*
X124192683Y-36610332D01*
X124041900Y-36349168D01*
X123879584Y-36137633D01*
X123858324Y-36109926D01*
X123858322Y-36109924D01*
X123858319Y-36109920D01*
X123645080Y-35896681D01*
X123645075Y-35896677D01*
X123645073Y-35896675D01*
X123405835Y-35713102D01*
X123405832Y-35713100D01*
X123144668Y-35562317D01*
X123144664Y-35562315D01*
X123144660Y-35562313D01*
X122866063Y-35446915D01*
X122866062Y-35446914D01*
X122866058Y-35446913D01*
X122574768Y-35368862D01*
X122574765Y-35368861D01*
X122574763Y-35368861D01*
X122275784Y-35329500D01*
X122275783Y-35329500D01*
X121974217Y-35329500D01*
X121974215Y-35329500D01*
X121675239Y-35368861D01*
X121675234Y-35368861D01*
X121383949Y-35446911D01*
X121383936Y-35446915D01*
X121105339Y-35562313D01*
X120844164Y-35713102D01*
X120604926Y-35896675D01*
X120391675Y-36109926D01*
X120208102Y-36349164D01*
X120057314Y-36610336D01*
X120045964Y-36637740D01*
X120006227Y-36684265D01*
X119946732Y-36698549D01*
X119890204Y-36675134D01*
X119858235Y-36622965D01*
X119855500Y-36599854D01*
X119855500Y-36527644D01*
X119823478Y-36325470D01*
X119823477Y-36325466D01*
X119760220Y-36130781D01*
X119667287Y-35948390D01*
X119667285Y-35948386D01*
X119546970Y-35782786D01*
X119546967Y-35782783D01*
X119546966Y-35782781D01*
X119402219Y-35638034D01*
X119402215Y-35638031D01*
X119402213Y-35638029D01*
X119236613Y-35517714D01*
X119236609Y-35517712D01*
X119054219Y-35424780D01*
X118859529Y-35361521D01*
X118657355Y-35329500D01*
X118657352Y-35329500D01*
X118452648Y-35329500D01*
X118452645Y-35329500D01*
X118250470Y-35361521D01*
X118055780Y-35424780D01*
X117873390Y-35517712D01*
X117873386Y-35517714D01*
X117707786Y-35638029D01*
X117563029Y-35782786D01*
X117442714Y-35948386D01*
X117442712Y-35948390D01*
X117373210Y-36084797D01*
X117329945Y-36128062D01*
X117269513Y-36137633D01*
X117214996Y-36109856D01*
X117196790Y-36084797D01*
X117127287Y-35948390D01*
X117127285Y-35948386D01*
X117006970Y-35782786D01*
X117006967Y-35782783D01*
X117006966Y-35782781D01*
X116862219Y-35638034D01*
X116862215Y-35638031D01*
X116862213Y-35638029D01*
X116696613Y-35517714D01*
X116696609Y-35517712D01*
X116514219Y-35424780D01*
X116319529Y-35361521D01*
X116117355Y-35329500D01*
X116117352Y-35329500D01*
X115912648Y-35329500D01*
X115912645Y-35329500D01*
X115710470Y-35361521D01*
X115515780Y-35424780D01*
X115333390Y-35517712D01*
X115333386Y-35517714D01*
X115167786Y-35638029D01*
X115023029Y-35782786D01*
X114902714Y-35948386D01*
X114902712Y-35948390D01*
X114833210Y-36084797D01*
X114789945Y-36128062D01*
X114729513Y-36137633D01*
X114674996Y-36109856D01*
X114656790Y-36084797D01*
X114587287Y-35948390D01*
X114587285Y-35948386D01*
X114466970Y-35782786D01*
X114466967Y-35782783D01*
X114466966Y-35782781D01*
X114322219Y-35638034D01*
X114322215Y-35638031D01*
X114322213Y-35638029D01*
X114156613Y-35517714D01*
X114156609Y-35517712D01*
X113974219Y-35424780D01*
X113779529Y-35361521D01*
X113577355Y-35329500D01*
X113577352Y-35329500D01*
X113372648Y-35329500D01*
X113372645Y-35329500D01*
X113170470Y-35361521D01*
X112975780Y-35424780D01*
X112793390Y-35517712D01*
X112793386Y-35517714D01*
X112627786Y-35638029D01*
X112483029Y-35782786D01*
X112362714Y-35948386D01*
X112362712Y-35948390D01*
X112293210Y-36084797D01*
X112249945Y-36128062D01*
X112189513Y-36137633D01*
X112134996Y-36109856D01*
X112116790Y-36084797D01*
X112047287Y-35948390D01*
X112047285Y-35948386D01*
X111926970Y-35782786D01*
X111926967Y-35782783D01*
X111926966Y-35782781D01*
X111782219Y-35638034D01*
X111782215Y-35638031D01*
X111782213Y-35638029D01*
X111616613Y-35517714D01*
X111616609Y-35517712D01*
X111434219Y-35424780D01*
X111239529Y-35361521D01*
X111037355Y-35329500D01*
X111037352Y-35329500D01*
X110832648Y-35329500D01*
X110832645Y-35329500D01*
X110630470Y-35361521D01*
X110435780Y-35424780D01*
X110253390Y-35517712D01*
X110253386Y-35517714D01*
X110087786Y-35638029D01*
X109943029Y-35782786D01*
X109822714Y-35948386D01*
X109822712Y-35948390D01*
X109753210Y-36084797D01*
X109709945Y-36128062D01*
X109649513Y-36137633D01*
X109594996Y-36109856D01*
X109576790Y-36084797D01*
X109507287Y-35948390D01*
X109507285Y-35948386D01*
X109386970Y-35782786D01*
X109386967Y-35782783D01*
X109386966Y-35782781D01*
X109242219Y-35638034D01*
X109242215Y-35638031D01*
X109242213Y-35638029D01*
X109076613Y-35517714D01*
X109076609Y-35517712D01*
X108894219Y-35424780D01*
X108699529Y-35361521D01*
X108497355Y-35329500D01*
X108497352Y-35329500D01*
X108292648Y-35329500D01*
X108292645Y-35329500D01*
X108090470Y-35361521D01*
X107895780Y-35424780D01*
X107713390Y-35517712D01*
X107713386Y-35517714D01*
X107547786Y-35638029D01*
X107403029Y-35782786D01*
X107282714Y-35948386D01*
X107282712Y-35948390D01*
X107213210Y-36084797D01*
X107169945Y-36128062D01*
X107109513Y-36137633D01*
X107054996Y-36109856D01*
X107036790Y-36084797D01*
X106967287Y-35948390D01*
X106967285Y-35948386D01*
X106846970Y-35782786D01*
X106846967Y-35782783D01*
X106846966Y-35782781D01*
X106702219Y-35638034D01*
X106702215Y-35638031D01*
X106702213Y-35638029D01*
X106536613Y-35517714D01*
X106536609Y-35517712D01*
X106354219Y-35424780D01*
X106159529Y-35361521D01*
X105957355Y-35329500D01*
X105957352Y-35329500D01*
X105752648Y-35329500D01*
X105752645Y-35329500D01*
X105550470Y-35361521D01*
X105355780Y-35424780D01*
X105173390Y-35517712D01*
X105173386Y-35517714D01*
X105007786Y-35638029D01*
X104863029Y-35782786D01*
X104742714Y-35948386D01*
X104742712Y-35948390D01*
X104673210Y-36084797D01*
X104629945Y-36128062D01*
X104569513Y-36137633D01*
X104514996Y-36109856D01*
X104496790Y-36084797D01*
X104427287Y-35948390D01*
X104427285Y-35948386D01*
X104306970Y-35782786D01*
X104306967Y-35782783D01*
X104306966Y-35782781D01*
X104162219Y-35638034D01*
X104162215Y-35638031D01*
X104162213Y-35638029D01*
X103996613Y-35517714D01*
X103996609Y-35517712D01*
X103814219Y-35424780D01*
X103619529Y-35361521D01*
X103417355Y-35329500D01*
X103417352Y-35329500D01*
X103212648Y-35329500D01*
X103212645Y-35329500D01*
X103010470Y-35361521D01*
X102815780Y-35424780D01*
X102633390Y-35517712D01*
X102633386Y-35517714D01*
X102467786Y-35638029D01*
X102323029Y-35782786D01*
X102202714Y-35948386D01*
X102202712Y-35948390D01*
X102133210Y-36084797D01*
X102089945Y-36128062D01*
X102029513Y-36137633D01*
X101974996Y-36109856D01*
X101956790Y-36084797D01*
X101887287Y-35948390D01*
X101887285Y-35948386D01*
X101766970Y-35782786D01*
X101766967Y-35782783D01*
X101766966Y-35782781D01*
X101622219Y-35638034D01*
X101622215Y-35638031D01*
X101622213Y-35638029D01*
X101456613Y-35517714D01*
X101456609Y-35517712D01*
X101274219Y-35424780D01*
X101079529Y-35361521D01*
X100877355Y-35329500D01*
X100877352Y-35329500D01*
X100672648Y-35329500D01*
X100672645Y-35329500D01*
X100470470Y-35361521D01*
X100275780Y-35424780D01*
X100093390Y-35517712D01*
X100093386Y-35517714D01*
X99927786Y-35638029D01*
X99783029Y-35782786D01*
X99662714Y-35948386D01*
X99662712Y-35948390D01*
X99593210Y-36084797D01*
X99549945Y-36128062D01*
X99489513Y-36137633D01*
X99434996Y-36109856D01*
X99416790Y-36084797D01*
X99347287Y-35948390D01*
X99347285Y-35948386D01*
X99226970Y-35782786D01*
X99226967Y-35782783D01*
X99226966Y-35782781D01*
X99082219Y-35638034D01*
X99082215Y-35638031D01*
X99082213Y-35638029D01*
X98916613Y-35517714D01*
X98916609Y-35517712D01*
X98734219Y-35424780D01*
X98539529Y-35361521D01*
X98337355Y-35329500D01*
X98337352Y-35329500D01*
X98132648Y-35329500D01*
X98132645Y-35329500D01*
X97930470Y-35361521D01*
X97735780Y-35424780D01*
X97553390Y-35517712D01*
X97553386Y-35517714D01*
X97387786Y-35638029D01*
X97243032Y-35782783D01*
X97174592Y-35876984D01*
X97125092Y-35912948D01*
X97063906Y-35912948D01*
X97014406Y-35876984D01*
X96995499Y-35818793D01*
X96995499Y-35782133D01*
X96995499Y-35782128D01*
X96989091Y-35722517D01*
X96989089Y-35722511D01*
X96938797Y-35587670D01*
X96852549Y-35472458D01*
X96852548Y-35472457D01*
X96852546Y-35472454D01*
X96852541Y-35472450D01*
X96737329Y-35386202D01*
X96602488Y-35335910D01*
X96602483Y-35335909D01*
X96602481Y-35335908D01*
X96602477Y-35335908D01*
X96571249Y-35332550D01*
X96542873Y-35329500D01*
X96542870Y-35329500D01*
X94847133Y-35329500D01*
X94847129Y-35329500D01*
X94847128Y-35329501D01*
X94839949Y-35330272D01*
X94787519Y-35335908D01*
X94787514Y-35335909D01*
X94652670Y-35386202D01*
X94537458Y-35472450D01*
X94537450Y-35472458D01*
X94451202Y-35587670D01*
X94400910Y-35722511D01*
X94400908Y-35722522D01*
X94394500Y-35782129D01*
X94394500Y-36599854D01*
X94375593Y-36658045D01*
X94326093Y-36694009D01*
X94264907Y-36694009D01*
X94215407Y-36658045D01*
X94204036Y-36637740D01*
X94192685Y-36610336D01*
X94192683Y-36610332D01*
X94041900Y-36349168D01*
X93879584Y-36137633D01*
X93858324Y-36109926D01*
X93858322Y-36109924D01*
X93858319Y-36109920D01*
X93645080Y-35896681D01*
X93645075Y-35896677D01*
X93645073Y-35896675D01*
X93405835Y-35713102D01*
X93405832Y-35713100D01*
X93144668Y-35562317D01*
X93144664Y-35562315D01*
X93144660Y-35562313D01*
X92866063Y-35446915D01*
X92866062Y-35446914D01*
X92866058Y-35446913D01*
X92574768Y-35368862D01*
X92574765Y-35368861D01*
X92574763Y-35368861D01*
X92275784Y-35329500D01*
X92275783Y-35329500D01*
X91974217Y-35329500D01*
X91974215Y-35329500D01*
X91675239Y-35368861D01*
X91675234Y-35368861D01*
X91383949Y-35446911D01*
X91383936Y-35446915D01*
X91105339Y-35562313D01*
X90844164Y-35713102D01*
X90604926Y-35896675D01*
X90391675Y-36109926D01*
X90208102Y-36349164D01*
X90057313Y-36610339D01*
X89941915Y-36888936D01*
X89941911Y-36888949D01*
X89863861Y-37180234D01*
X89863861Y-37180239D01*
X89824500Y-37479215D01*
X83083599Y-37479215D01*
X88730685Y-31832129D01*
X105449500Y-31832129D01*
X105449500Y-33627866D01*
X105449501Y-33627870D01*
X105455908Y-33687480D01*
X105455909Y-33687485D01*
X105506202Y-33822329D01*
X105592450Y-33937541D01*
X105592454Y-33937546D01*
X105592457Y-33937548D01*
X105592458Y-33937549D01*
X105707670Y-34023797D01*
X105842511Y-34074089D01*
X105842512Y-34074089D01*
X105842517Y-34074091D01*
X105902127Y-34080500D01*
X107697872Y-34080499D01*
X107757483Y-34074091D01*
X107830764Y-34046759D01*
X107892329Y-34023797D01*
X107892329Y-34023796D01*
X107892331Y-34023796D01*
X108007546Y-33937546D01*
X108093796Y-33822331D01*
X108144091Y-33687483D01*
X108150500Y-33627873D01*
X108150499Y-33592971D01*
X108169405Y-33534783D01*
X108214237Y-33502208D01*
X108857037Y-32859407D01*
X108874075Y-32922993D01*
X108939901Y-33037007D01*
X109032993Y-33130099D01*
X109147007Y-33195925D01*
X109210589Y-33212962D01*
X108578282Y-33845269D01*
X108578282Y-33845270D01*
X108632440Y-33884619D01*
X108632446Y-33884623D01*
X108821784Y-33981095D01*
X109023878Y-34046759D01*
X109233750Y-34080000D01*
X109446250Y-34080000D01*
X109656121Y-34046759D01*
X109858215Y-33981095D01*
X110047556Y-33884620D01*
X110101716Y-33845270D01*
X109469408Y-33212962D01*
X109532993Y-33195925D01*
X109647007Y-33130099D01*
X109740099Y-33037007D01*
X109805925Y-32922993D01*
X109822962Y-32859408D01*
X110455270Y-33491716D01*
X110494620Y-33437556D01*
X110591095Y-33248215D01*
X110656759Y-33046121D01*
X110690000Y-32836250D01*
X110690000Y-32623749D01*
X110656759Y-32413878D01*
X110591095Y-32211784D01*
X110494623Y-32022446D01*
X110494619Y-32022440D01*
X110455270Y-31968282D01*
X110455269Y-31968282D01*
X109822962Y-32600589D01*
X109805925Y-32537007D01*
X109740099Y-32422993D01*
X109647007Y-32329901D01*
X109532993Y-32264075D01*
X109469407Y-32247037D01*
X110101716Y-31614729D01*
X110101716Y-31614728D01*
X110047559Y-31575380D01*
X110047553Y-31575376D01*
X109858215Y-31478904D01*
X109656121Y-31413240D01*
X109446250Y-31380000D01*
X109233750Y-31380000D01*
X109023878Y-31413240D01*
X108821784Y-31478904D01*
X108632446Y-31575376D01*
X108632442Y-31575378D01*
X108578282Y-31614728D01*
X109210591Y-32247037D01*
X109147007Y-32264075D01*
X109032993Y-32329901D01*
X108939901Y-32422993D01*
X108874075Y-32537007D01*
X108857037Y-32600591D01*
X108211077Y-31954631D01*
X108197771Y-31951437D01*
X108158035Y-31904911D01*
X108150499Y-31867026D01*
X108150499Y-31832133D01*
X108150499Y-31832128D01*
X108144091Y-31772517D01*
X108144089Y-31772511D01*
X108112217Y-31687056D01*
X108093796Y-31637669D01*
X108007549Y-31522458D01*
X108007548Y-31522457D01*
X108007546Y-31522454D01*
X107949371Y-31478904D01*
X107892329Y-31436202D01*
X107757488Y-31385910D01*
X107757483Y-31385909D01*
X107757481Y-31385908D01*
X107757477Y-31385908D01*
X107726249Y-31382550D01*
X107697873Y-31379500D01*
X107697870Y-31379500D01*
X105902133Y-31379500D01*
X105902129Y-31379500D01*
X105902128Y-31379501D01*
X105897486Y-31380000D01*
X105842519Y-31385908D01*
X105842514Y-31385909D01*
X105707670Y-31436202D01*
X105592458Y-31522450D01*
X105592450Y-31522458D01*
X105506202Y-31637670D01*
X105455910Y-31772511D01*
X105455908Y-31772522D01*
X105449500Y-31832129D01*
X88730685Y-31832129D01*
X89553318Y-31009496D01*
X89607835Y-30981719D01*
X89623322Y-30980500D01*
X124371678Y-30980500D01*
X124429869Y-30999407D01*
G37*
%TD.AperFunction*%
%TD*%
M02*
