%TF.GenerationSoftware,KiCad,Pcbnew,10.0.1*%
%TF.CreationDate,2026-04-22T22:05:53-07:00*%
%TF.ProjectId,TamagotchiOfSin,54616d61-676f-4746-9368-694f6653696e,rev?*%
%TF.SameCoordinates,Original*%
%TF.FileFunction,Copper,L2,Bot*%
%TF.FilePolarity,Positive*%
%FSLAX46Y46*%
G04 Gerber Fmt 4.6, Leading zero omitted, Abs format (unit mm)*
G04 Created by KiCad (PCBNEW 10.0.1) date 2026-04-22 22:05:53*
%MOMM*%
%LPD*%
G01*
G04 APERTURE LIST*
G04 Aperture macros list*
%AMRoundRect*
0 Rectangle with rounded corners*
0 $1 Rounding radius*
0 $2 $3 $4 $5 $6 $7 $8 $9 X,Y pos of 4 corners*
0 Add a 4 corners polygon primitive as box body*
4,1,4,$2,$3,$4,$5,$6,$7,$8,$9,$2,$3,0*
0 Add four circle primitives for the rounded corners*
1,1,$1+$1,$2,$3*
1,1,$1+$1,$4,$5*
1,1,$1+$1,$6,$7*
1,1,$1+$1,$8,$9*
0 Add four rect primitives between the rounded corners*
20,1,$1+$1,$2,$3,$4,$5,0*
20,1,$1+$1,$4,$5,$6,$7,0*
20,1,$1+$1,$6,$7,$8,$9,0*
20,1,$1+$1,$8,$9,$2,$3,0*%
G04 Aperture macros list end*
%TA.AperFunction,ComponentPad*%
%ADD10C,1.400000*%
%TD*%
%TA.AperFunction,ComponentPad*%
%ADD11R,1.308000X1.308000*%
%TD*%
%TA.AperFunction,ComponentPad*%
%ADD12C,1.308000*%
%TD*%
%TA.AperFunction,ComponentPad*%
%ADD13C,2.030000*%
%TD*%
%TA.AperFunction,ComponentPad*%
%ADD14C,1.800000*%
%TD*%
%TA.AperFunction,ComponentPad*%
%ADD15C,1.600000*%
%TD*%
%TA.AperFunction,ComponentPad*%
%ADD16C,1.524000*%
%TD*%
%TA.AperFunction,ComponentPad*%
%ADD17RoundRect,0.275000X-0.975000X-0.275000X0.975000X-0.275000X0.975000X0.275000X-0.975000X0.275000X0*%
%TD*%
%TA.AperFunction,ComponentPad*%
%ADD18C,1.700000*%
%TD*%
%TA.AperFunction,ComponentPad*%
%ADD19O,2.750000X3.000000*%
%TD*%
%TA.AperFunction,ComponentPad*%
%ADD20R,1.700000X1.700000*%
%TD*%
%TA.AperFunction,ComponentPad*%
%ADD21R,2.500000X2.500000*%
%TD*%
%TA.AperFunction,ComponentPad*%
%ADD22C,2.500000*%
%TD*%
%TA.AperFunction,ViaPad*%
%ADD23C,0.600000*%
%TD*%
%TA.AperFunction,Conductor*%
%ADD24C,0.500000*%
%TD*%
%TA.AperFunction,Conductor*%
%ADD25C,0.200000*%
%TD*%
G04 APERTURE END LIST*
D10*
%TO.P,R3,1*%
%TO.N,Net-(U4-GPIO20_D7_RX)*%
X96520000Y-98255000D03*
%TO.P,R3,2*%
%TO.N,GND*%
X96520000Y-108755000D03*
%TD*%
D11*
%TO.P,U3,1,VCC_1*%
%TO.N,+5V*%
X74168000Y-85725000D03*
D12*
%TO.P,U3,2,RX_2*%
%TO.N,Net-(U3-RX)*%
X74168000Y-88265000D03*
%TO.P,U3,3,TX_3*%
%TO.N,Net-(U3-TX)*%
X74168000Y-90805000D03*
%TO.P,U3,4,DAC_R_4*%
%TO.N,unconnected-(U3-DAC_R-Pad4)*%
X74168000Y-93345000D03*
%TO.P,U3,5,DAC_L_5*%
%TO.N,unconnected-(U3-DAC_L-Pad5)*%
X74168000Y-95885000D03*
%TO.P,U3,6,SPK1_6*%
%TO.N,Net-(SPK1-+)*%
X74168000Y-98425000D03*
%TO.P,U3,7,GND_7*%
%TO.N,GND*%
X74168000Y-100965000D03*
%TO.P,U3,8,SPK2_8*%
%TO.N,Net-(SPK1--)*%
X74168000Y-103505000D03*
%TO.P,U3,9,IO1_9*%
%TO.N,unconnected-(U3-IO1-Pad9)*%
X92202000Y-103505000D03*
%TO.P,U3,10,GND_10*%
%TO.N,GND*%
X92202000Y-100965000D03*
%TO.P,U3,11,IO2_11*%
%TO.N,unconnected-(U3-IO2-Pad11)*%
X92202000Y-98425000D03*
%TO.P,U3,12,ADKEY1_12*%
%TO.N,unconnected-(U3-ADKEY1-Pad12)*%
X92202000Y-95885000D03*
%TO.P,U3,13,ADKEY2_13*%
%TO.N,unconnected-(U3-ADKEY2-Pad13)*%
X92202000Y-93345000D03*
%TO.P,U3,14,USB+_14*%
%TO.N,unconnected-(U3-USB+-Pad14)*%
X92202000Y-90805000D03*
%TO.P,U3,15,USB-_15*%
%TO.N,unconnected-(U3-USB--Pad15)*%
X92202000Y-88265000D03*
%TO.P,U3,16,BUSY_16*%
%TO.N,Net-(U3-BUSY)*%
X92202000Y-85725000D03*
%TD*%
D13*
%TO.P,U2,*%
%TO.N,*%
X97985000Y-58420000D03*
X97985000Y-82220000D03*
X121285000Y-58420000D03*
X121285000Y-82220000D03*
D14*
%TO.P,U2,1,GND_1*%
%TO.N,GND*%
X105825000Y-57860000D03*
%TO.P,U2,2,VCC_2*%
%TO.N,+3V3*%
X108365000Y-57860000D03*
%TO.P,U2,3,SCL_3*%
%TO.N,Net-(U2-SCL)*%
X110905000Y-57860000D03*
%TO.P,U2,4,SDA_4*%
%TO.N,Net-(U2-SDA)*%
X113445000Y-57860000D03*
%TD*%
D15*
%TO.P,SW3,1,1_1*%
%TO.N,GND*%
X129045000Y-88035000D03*
X133845000Y-88035000D03*
%TO.P,SW3,2,2_2*%
%TO.N,Net-(U4-GPIO5_A3_D3)*%
X129045000Y-91035000D03*
X133845000Y-91035000D03*
%TD*%
D16*
%TO.P,U4,1,GPIO2_A0_D0_1*%
%TO.N,Net-(U4-GPIO2_A0_D0)*%
X117475000Y-110104000D03*
%TO.P,U4,2,GPIO3_A1_D1_2*%
%TO.N,Net-(U4-GPIO3_A1_D1)*%
X117475000Y-107564000D03*
%TO.P,U4,3,GPIO4_A2_D2_3*%
%TO.N,Net-(U4-GPIO4_A2_D2)*%
X117475000Y-105024000D03*
%TO.P,U4,4,GPIO5_A3_D3_4*%
%TO.N,Net-(U4-GPIO5_A3_D3)*%
X117475000Y-102484000D03*
%TO.P,U4,5,GPIO6_D4_SDA_5*%
%TO.N,Net-(U2-SDA)*%
X117475000Y-99944000D03*
%TO.P,U4,6,GPIO7_D5_SCL_6*%
%TO.N,Net-(U2-SCL)*%
X117475000Y-97404000D03*
%TO.P,U4,7,GPIO21_D6_TX_7*%
%TO.N,Net-(U4-GPIO21_D6_TX)*%
X117475000Y-94864000D03*
%TO.P,U4,8,GPIO20_D7_RX_8*%
%TO.N,Net-(U4-GPIO20_D7_RX)*%
X102235000Y-94864000D03*
%TO.P,U4,9,GPIO8_D8_SCK_9*%
%TO.N,Net-(U3-BUSY)*%
X102235000Y-97404000D03*
%TO.P,U4,10,GPIO9_D9_MISO_10*%
%TO.N,unconnected-(U4-GPIO9_D9_MISO-Pad10)*%
X102235000Y-99944000D03*
%TO.P,U4,11,GPIO10_D10_MOSI_11*%
%TO.N,unconnected-(U4-GPIO10_D10_MOSI-Pad11)_1*%
X102235000Y-102484000D03*
%TO.P,U4,12,3V3_12*%
%TO.N,+3V3*%
X102235000Y-105024000D03*
%TO.P,U4,13,GND_13*%
%TO.N,GND*%
X102235000Y-107564000D03*
%TO.P,U4,14,VBUS_14*%
%TO.N,+5V*%
X102235000Y-110104000D03*
D17*
%TO.P,U4,15*%
%TO.N,N/C*%
X114300000Y-102870000D03*
%TO.P,U4,16*%
X114300000Y-104775000D03*
%TD*%
D15*
%TO.P,SW1,1,1_1*%
%TO.N,GND*%
X129045000Y-71525000D03*
X133845000Y-71525000D03*
%TO.P,SW1,2,2_2*%
%TO.N,Net-(U4-GPIO3_A1_D1)*%
X129045000Y-74525000D03*
X133845000Y-74525000D03*
%TD*%
%TO.P,SW2,1,1_1*%
%TO.N,GND*%
X142380000Y-71525000D03*
X147180000Y-71525000D03*
%TO.P,SW2,2,2_2*%
%TO.N,Net-(U4-GPIO4_A2_D2)*%
X142380000Y-74525000D03*
X147180000Y-74525000D03*
%TD*%
D10*
%TO.P,R1,1*%
%TO.N,Net-(U3-RX)*%
X77470000Y-107950000D03*
%TO.P,R1,2*%
%TO.N,Net-(U4-GPIO21_D6_TX)*%
X87670000Y-107950000D03*
%TD*%
D18*
%TO.P,RV1,1,1_1*%
%TO.N,+3V3*%
X142280000Y-92907500D03*
%TO.P,RV1,2,2_2*%
%TO.N,Net-(U4-GPIO2_A0_D0)*%
X144780000Y-92907500D03*
%TO.P,RV1,3,3_3*%
%TO.N,GND*%
X147280000Y-92907500D03*
D19*
%TO.P,RV1,4*%
%TO.N,N/C*%
X140380000Y-85907500D03*
%TO.P,RV1,5*%
X149180000Y-85907500D03*
%TD*%
D10*
%TO.P,R2,1*%
%TO.N,Net-(U3-TX)*%
X96520000Y-85705000D03*
%TO.P,R2,2*%
%TO.N,Net-(U4-GPIO20_D7_RX)*%
X96520000Y-95905000D03*
%TD*%
D20*
%TO.P,BT1,1,+_1*%
%TO.N,+BATT*%
X139065000Y-60960000D03*
D18*
%TO.P,BT1,2,-_2*%
%TO.N,GND*%
X136525000Y-60960000D03*
%TD*%
D21*
%TO.P,SPK1,1,+_1*%
%TO.N,Net-(SPK1-+)*%
X77630000Y-69215000D03*
D22*
%TO.P,SPK1,2,-_2*%
%TO.N,Net-(SPK1--)*%
X87630000Y-69215000D03*
%TD*%
D23*
%TO.N,GND*%
X70485000Y-82550000D03*
%TO.N,+5V*%
X71120000Y-86995000D03*
X94615000Y-110490000D03*
%TO.N,Net-(U2-SCL)*%
X122555000Y-94615000D03*
%TO.N,Net-(U2-SDA)*%
X123190000Y-97155000D03*
%TO.N,Net-(U4-GPIO5_A3_D3)*%
X150495000Y-76835000D03*
X123825000Y-71755000D03*
%TD*%
%TO.N,GND*%
D24*
X69850000Y-57150000D02*
X72390000Y-54610000D01*
X69850000Y-57150000D02*
X69215000Y-57785000D01*
X69215000Y-81280000D02*
X70485000Y-82550000D01*
X105410000Y-54610000D02*
X105825000Y-55025000D01*
X105825000Y-55025000D02*
X105825000Y-57860000D01*
X72390000Y-54610000D02*
X105410000Y-54610000D01*
X69215000Y-57785000D02*
X69215000Y-81280000D01*
%TO.N,+5V*%
X94615000Y-110490000D02*
X80645000Y-96520000D01*
X74676000Y-86995000D02*
X71120000Y-86995000D01*
X80645000Y-92964000D02*
X74676000Y-86995000D01*
X74676000Y-86995000D02*
X74676000Y-86233000D01*
X80645000Y-96520000D02*
X80645000Y-92964000D01*
X74676000Y-86233000D02*
X74168000Y-85725000D01*
%TO.N,Net-(U3-RX)*%
D25*
X77470000Y-107950000D02*
X77470000Y-92329000D01*
X77470000Y-92329000D02*
X74041000Y-88900000D01*
%TO.N,+3V3*%
X142082500Y-92710000D02*
X142280000Y-92907500D01*
D24*
X108365000Y-84870000D02*
X116205000Y-92710000D01*
X116205000Y-92710000D02*
X142082500Y-92710000D01*
X108365000Y-57860000D02*
X108365000Y-84870000D01*
%TO.N,Net-(U2-SCL)*%
D25*
X107805000Y-56660000D02*
X107165000Y-57300000D01*
X121285000Y-93345000D02*
X122555000Y-94615000D01*
X109705000Y-56660000D02*
X107805000Y-56660000D01*
X107165000Y-57300000D02*
X107165000Y-86140685D01*
X114369315Y-93345000D02*
X121285000Y-93345000D01*
X107165000Y-86140685D02*
X114369315Y-93345000D01*
X110905000Y-57860000D02*
X109705000Y-56660000D01*
%TO.N,Net-(U2-SDA)*%
X142198846Y-94615000D02*
X143430000Y-93383846D01*
X125730000Y-94615000D02*
X142198846Y-94615000D01*
X113445000Y-62446154D02*
X113445000Y-57860000D01*
X143430000Y-92431154D02*
X113445000Y-62446154D01*
X143430000Y-93383846D02*
X143430000Y-92431154D01*
X123190000Y-97155000D02*
X125730000Y-94615000D01*
%TO.N,Net-(U4-GPIO5_A3_D3)*%
X140032419Y-82217581D02*
X146050000Y-76200000D01*
X149860000Y-76200000D02*
X146050000Y-76200000D01*
X150495000Y-76835000D02*
X149860000Y-76200000D01*
X140032419Y-82217581D02*
X134287581Y-82217581D01*
X134287581Y-82217581D02*
X123825000Y-71755000D01*
%TD*%
M02*
