%TF.GenerationSoftware,KiCad,Pcbnew,10.0.1*%
%TF.CreationDate,2026-04-26T22:08:42-07:00*%
%TF.ProjectId,TamagotchiOfSin,54616d61-676f-4746-9368-694f6653696e,rev?*%
%TF.SameCoordinates,Original*%
%TF.FileFunction,Soldermask,Top*%
%TF.FilePolarity,Negative*%
%FSLAX46Y46*%
G04 Gerber Fmt 4.6, Leading zero omitted, Abs format (unit mm)*
G04 Created by KiCad (PCBNEW 10.0.1) date 2026-04-26 22:08:42*
%MOMM*%
%LPD*%
G01*
G04 APERTURE LIST*
G04 Aperture macros list*
%AMRoundRect*
0 Rectangle with rounded corners*
0 $1 Rounding radius*
0 $2 $3 $4 $5 $6 $7 $8 $9 X,Y pos of 4 corners*
0 Add a 4 corners polygon primitive as box body*
4,1,4,$2,$3,$4,$5,$6,$7,$8,$9,$2,$3,0*
0 Add four circle primitives for the rounded corners*
1,1,$1+$1,$2,$3*
1,1,$1+$1,$4,$5*
1,1,$1+$1,$6,$7*
1,1,$1+$1,$8,$9*
0 Add four rect primitives between the rounded corners*
20,1,$1+$1,$2,$3,$4,$5,0*
20,1,$1+$1,$4,$5,$6,$7,0*
20,1,$1+$1,$6,$7,$8,$9,0*
20,1,$1+$1,$8,$9,$2,$3,0*%
G04 Aperture macros list end*
%ADD10C,3.300000*%
%ADD11C,1.600000*%
%ADD12R,1.600000X1.600000*%
%ADD13C,2.200000*%
%ADD14R,1.700000X1.700000*%
%ADD15C,1.700000*%
%ADD16C,3.200000*%
%ADD17O,0.900000X1.800000*%
%ADD18C,1.524000*%
%ADD19RoundRect,0.275000X0.975000X0.275000X-0.975000X0.275000X-0.975000X-0.275000X0.975000X-0.275000X0*%
G04 APERTURE END LIST*
D10*
%TO.C,LCD1*%
X92125000Y-94830000D03*
X122125000Y-94830000D03*
X122125000Y-37630000D03*
X92125000Y-37630000D03*
D11*
X95695000Y-95830000D03*
X98235000Y-95830000D03*
X100775000Y-95830000D03*
X103315000Y-95830000D03*
X105855000Y-95830000D03*
X108395000Y-95830000D03*
X110935000Y-95830000D03*
X113475000Y-95830000D03*
X116015000Y-95830000D03*
D12*
X118555000Y-95830000D03*
D11*
X118555000Y-36630000D03*
X116015000Y-36630000D03*
X113475000Y-36630000D03*
X110935000Y-36630000D03*
X108395000Y-36630000D03*
X105855000Y-36630000D03*
X103315000Y-36630000D03*
X100775000Y-36630000D03*
X98235000Y-36630000D03*
D12*
X95695000Y-36630000D03*
%TD*%
D13*
%TO.C,BUZZER1*%
X110490000Y-67310000D03*
X103990000Y-67310000D03*
%TD*%
D14*
%TO.C,BT1*%
X106800000Y-32730000D03*
D15*
X109340000Y-32730000D03*
%TD*%
D11*
%TO.C,SW2*%
X104775000Y-100893750D03*
X109575000Y-100893750D03*
X104775000Y-103893750D03*
X109575000Y-103893750D03*
%TD*%
%TO.C,SW1*%
X91580000Y-100893750D03*
X96380000Y-100893750D03*
X91580000Y-103893750D03*
X96380000Y-103893750D03*
%TD*%
%TO.C,SW3*%
X118250000Y-100893750D03*
X123050000Y-100893750D03*
X118250000Y-103893750D03*
X123050000Y-103893750D03*
%TD*%
D16*
%TO.C,REF\u002A\u002A*%
X83820000Y-69215000D03*
%TD*%
%TO.C,REF\u002A\u002A*%
X130175000Y-69215000D03*
%TD*%
D17*
%TO.C,MOT1*%
X107870000Y-77445000D03*
X106610000Y-77445000D03*
%TD*%
D18*
%TO.C,U4*%
X99695000Y-116205000D03*
X99695000Y-113665000D03*
X99695000Y-111125000D03*
X99695000Y-108585000D03*
X99695000Y-106045000D03*
X99695000Y-103505000D03*
X99695000Y-100965000D03*
X114935000Y-100965000D03*
X114935000Y-103505000D03*
X114935000Y-106045000D03*
X114935000Y-108585000D03*
X114935000Y-111125000D03*
X114935000Y-113665000D03*
X114935000Y-116205000D03*
D19*
X102870000Y-108971000D03*
X102870000Y-110876000D03*
%TD*%
M02*
